<svg width="318" height="104" viewBox="0 0 318 104" fill="none" xmlns="http://www.w3.org/2000/svg">
<rect width="318" height="104" rx="11.1315" fill="#FFFFD6"/>
<path d="M23.2844 9.68566H26.7531C28.4586 9.68566 29.634 10.8207 29.634 12.532C29.634 14.2375 28.4182 15.3784 26.6666 15.3784H25.0245V18H23.2844V9.68566ZM25.0245 11.0627V14.0186H26.2864C27.2832 14.0186 27.8651 13.4885 27.8651 12.5378C27.8651 11.5928 27.2889 11.0627 26.2921 11.0627H25.0245ZM30.5847 18V9.2881H32.2671V18H30.5847ZM35.8798 16.8476C36.6577 16.8476 37.2799 16.3636 37.2799 15.6722V15.2055L35.949 15.2977C35.246 15.3438 34.8715 15.6204 34.8715 16.0871C34.8715 16.5538 35.2691 16.8476 35.8798 16.8476ZM35.3324 18.0749C34.1109 18.0749 33.1948 17.3086 33.1948 16.1735C33.1948 15.0211 34.0764 14.37 35.6954 14.2721L37.2799 14.1741V13.7535C37.2799 13.1428 36.8593 12.8086 36.1679 12.8086C35.5572 12.8086 35.1308 13.1312 35.0501 13.5922H33.5117C33.5578 12.3822 34.6526 11.5467 36.2371 11.5467C37.8677 11.5467 38.9336 12.3822 38.9336 13.6498V18H37.3088V17.0205H37.2742C36.9285 17.6831 36.1449 18.0749 35.3324 18.0749ZM40.0687 18V11.6562H41.6935V12.7913H41.7281C42.0911 11.9904 42.7364 11.564 43.7102 11.564C45.1161 11.564 45.9112 12.4513 45.9112 13.9321V18H44.2287V14.2836C44.2287 13.4424 43.8369 12.9642 43.0418 12.9642C42.2351 12.9642 41.7511 13.5403 41.7511 14.3816V18H40.0687ZM49.9214 18.1095C47.997 18.1095 46.7927 16.8764 46.7927 14.8252C46.7927 12.7971 48.0143 11.5467 49.9214 11.5467C51.8344 11.5467 53.0501 12.7913 53.0501 14.8252C53.0501 16.8822 51.8459 18.1095 49.9214 18.1095ZM49.9214 16.8131C50.8088 16.8131 51.3388 16.0871 51.3388 14.8252C51.3388 13.5749 50.803 12.8374 49.9214 12.8374C49.0341 12.8374 48.4983 13.5807 48.4983 14.8252C48.4983 16.0871 49.0341 16.8131 49.9214 16.8131Z" fill="black"/>
<path d="M60.3446 18H56.6109V9.68566H60.2812C61.8427 9.68566 62.8222 10.4866 62.8222 11.7599C62.8222 12.6703 62.1423 13.4309 61.2607 13.5634V13.6095C62.3901 13.6959 63.2198 14.5198 63.2198 15.6204C63.2198 17.0839 62.1192 18 60.3446 18ZM58.351 10.9821V13.1428H59.6532C60.5808 13.1428 61.1109 12.7337 61.1109 12.0307C61.1109 11.3624 60.6442 10.9821 59.8318 10.9821H58.351ZM58.351 16.7036H59.9009C60.9035 16.7036 61.4451 16.2772 61.4451 15.4821C61.4451 14.7042 60.8862 14.2894 59.8606 14.2894H58.351V16.7036ZM66.5213 16.8476C67.2991 16.8476 67.9214 16.3636 67.9214 15.6722V15.2055L66.5904 15.2977C65.8875 15.3438 65.513 15.6204 65.513 16.0871C65.513 16.5538 65.9105 16.8476 66.5213 16.8476ZM65.9739 18.0749C64.7524 18.0749 63.8363 17.3086 63.8363 16.1735C63.8363 15.0211 64.7178 14.37 66.3369 14.2721L67.9214 14.1741V13.7535C67.9214 13.1428 67.5008 12.8086 66.8094 12.8086C66.1986 12.8086 65.7723 13.1312 65.6916 13.5922H64.1532C64.1993 12.3822 65.294 11.5467 66.8785 11.5467C68.5091 11.5467 69.5751 12.3822 69.5751 13.6498V18H67.9502V17.0205H67.9157C67.5699 17.6831 66.7863 18.0749 65.9739 18.0749ZM67.5008 10.7228H66.1698L67.4432 8.93662H69.0162L67.5008 10.7228ZM70.6007 13.523C70.6007 12.3303 71.6493 11.5467 73.2569 11.5467C74.8241 11.5467 75.867 12.3476 75.89 13.5576H74.3343C74.2998 13.0563 73.8792 12.7394 73.2338 12.7394C72.6288 12.7394 72.2255 13.0102 72.2255 13.4193C72.2255 13.7362 72.5021 13.9494 73.0725 14.0819L74.2652 14.3412C75.5386 14.6293 76.0456 15.1191 76.0456 16.064C76.0456 17.2971 74.9105 18.1095 73.2511 18.1095C71.5802 18.1095 70.5315 17.3028 70.4451 16.0813H72.0872C72.1679 16.6172 72.6 16.9168 73.2972 16.9168C73.9656 16.9168 74.3747 16.6575 74.3747 16.2426C74.3747 15.9142 74.1557 15.7414 73.5795 15.6031L72.4099 15.338C71.2172 15.0672 70.6007 14.4507 70.6007 13.523ZM76.9502 18V11.6562H78.6327V18H76.9502ZM77.7915 10.9648C77.2959 10.9648 76.8868 10.5845 76.8868 10.0832C76.8868 9.58195 77.2959 9.20743 77.7915 9.20743C78.2927 9.20743 78.7018 9.58195 78.7018 10.0832C78.7018 10.5845 78.2927 10.9648 77.7915 10.9648ZM85.5354 13.9955H83.9681C83.876 13.3387 83.415 12.872 82.6833 12.872C81.819 12.872 81.2716 13.6095 81.2716 14.8252C81.2716 16.064 81.819 16.7785 82.689 16.7785C83.3977 16.7785 83.8644 16.3924 83.9739 15.6953H85.5411C85.4432 17.1703 84.3369 18.1095 82.6717 18.1095C80.7761 18.1095 79.5661 16.8649 79.5661 14.8252C79.5661 12.8143 80.7761 11.5467 82.6602 11.5467C84.3657 11.5467 85.4547 12.5839 85.5354 13.9955ZM89.2748 18.1095C87.3503 18.1095 86.1461 16.8764 86.1461 14.8252C86.1461 12.7971 87.3676 11.5467 89.2748 11.5467C91.1877 11.5467 92.4035 12.7913 92.4035 14.8252C92.4035 16.8822 91.1993 18.1095 89.2748 18.1095ZM89.2748 16.8131C90.1621 16.8131 90.6922 16.0871 90.6922 14.8252C90.6922 13.5749 90.1564 12.8374 89.2748 12.8374C88.3875 12.8374 87.8516 13.5807 87.8516 14.8252C87.8516 16.0871 88.3875 16.8131 89.2748 16.8131Z" fill="#FF5200"/>
<path d="M66.7914 54.8701V63.1844H65.2415V57.5724H65.1954L62.9367 63.1037H61.842L59.5833 57.5724H59.5373V63.1844H57.9873V54.8701H60.004L62.3663 60.7644H62.4124L64.7748 54.8701H66.7914ZM70.8823 57.9872C70.116 57.9872 69.5513 58.5461 69.4937 59.3585H72.2306C72.2018 58.5288 71.6602 57.9872 70.8823 57.9872ZM72.2536 61.2484H73.8036C73.6192 62.4757 72.4726 63.2939 70.9284 63.2939C68.9982 63.2939 67.817 62.0551 67.817 60.0384C67.817 58.0218 69.004 56.7311 70.865 56.7311C72.6915 56.7311 73.8554 57.9526 73.8554 59.8829V60.4014H69.4764V60.5051C69.4764 61.4213 70.0699 62.0378 70.9572 62.0378C71.591 62.0378 72.0923 61.7382 72.2536 61.2484ZM77.6698 61.8419C78.5456 61.8419 79.1102 61.1389 79.1102 60.0039C79.1102 58.863 78.5456 58.1255 77.6698 58.1255C76.7997 58.1255 76.2466 58.8515 76.2466 59.9981C76.2466 61.1505 76.794 61.8419 77.6698 61.8419ZM77.6525 65.5064C75.9873 65.5064 74.8177 64.7747 74.7312 63.6338H76.3906C76.5001 64.0544 77.0302 64.3195 77.6928 64.3195C78.5456 64.3195 79.1045 63.8816 79.1045 63.1671V62.032H79.0699C78.7645 62.7119 78.0212 63.1441 77.1051 63.1441C75.5609 63.1441 74.5238 61.9456 74.5238 59.9923C74.5238 58.0045 75.5264 56.7657 77.1339 56.7657C78.0443 56.7657 78.7645 57.2209 79.0987 57.9238H79.1275V56.8406H80.7869V63.0403C80.7869 64.5499 79.5597 65.5064 77.6525 65.5064ZM84.3535 62.032C85.1314 62.032 85.7536 61.548 85.7536 60.8566V60.3899L84.4226 60.4821C83.7197 60.5282 83.3452 60.8047 83.3452 61.2715C83.3452 61.7382 83.7427 62.032 84.3535 62.032ZM83.8061 63.2593C82.5846 63.2593 81.6685 62.493 81.6685 61.3579C81.6685 60.2055 82.55 59.5544 84.1691 59.4565L85.7536 59.3585V58.9379C85.7536 58.3272 85.333 57.993 84.6416 57.993C84.0308 57.993 83.6045 58.3156 83.5238 58.7766H81.9854C82.0315 57.5666 83.1262 56.7311 84.7107 56.7311C86.3413 56.7311 87.4073 57.5666 87.4073 58.8342V63.1844H85.7824V62.2049H85.7479C85.4022 62.8675 84.6185 63.2593 83.8061 63.2593ZM88.4329 58.7074C88.4329 57.5147 89.4815 56.7311 91.0891 56.7311C92.6563 56.7311 93.6992 57.532 93.7223 58.742H92.1666C92.132 58.2407 91.7114 57.9238 91.066 57.9238C90.4611 57.9238 90.0577 58.1946 90.0577 58.6037C90.0577 58.9206 90.3343 59.1338 90.9047 59.2663L92.0974 59.5256C93.3708 59.8137 93.8778 60.3035 93.8778 61.2484C93.8778 62.4814 92.7427 63.2939 91.0833 63.2939C89.4124 63.2939 88.3637 62.4872 88.2773 61.2657H89.9194C90.0001 61.8015 90.4322 62.1012 91.1294 62.1012C91.7978 62.1012 92.2069 61.8419 92.2069 61.427C92.2069 61.0986 91.9879 60.9257 91.4118 60.7875L90.2421 60.5224C89.0494 60.2516 88.4329 59.6351 88.4329 58.7074Z" fill="black"/>
<path d="M28.0166 52.3369V27.1115H27.8868L19.9254 32.6066V26.7221L27.9949 21.1189H34.4852V52.3369H28.0166ZM53.7179 53.0291C45.8647 53.0291 41.0836 46.7769 41.0836 36.6738C41.0836 26.5923 45.908 20.4049 53.7179 20.4049C61.5278 20.4049 66.3305 26.5707 66.3305 36.6521C66.3305 46.7336 61.571 53.0291 53.7179 53.0291ZM53.7179 47.7937C57.4389 47.7937 59.6889 43.7914 59.6889 36.6738C59.6889 29.6211 57.4173 25.6404 53.7179 25.6404C50.0401 25.6404 47.7252 29.6427 47.7252 36.6738C47.7252 43.7698 49.9968 47.7937 53.7179 47.7937ZM82.5777 53.0291C74.7246 53.0291 69.9434 46.7769 69.9434 36.6738C69.9434 26.5923 74.7678 20.4049 82.5777 20.4049C90.3876 20.4049 95.1904 26.5707 95.1904 36.6521C95.1904 46.7336 90.4309 53.0291 82.5777 53.0291ZM82.5777 47.7937C86.2988 47.7937 88.5487 43.7914 88.5487 36.6738C88.5487 29.6211 86.2772 25.6404 82.5777 25.6404C78.8999 25.6404 76.5851 29.6427 76.5851 36.6738C76.5851 43.7698 78.8567 47.7937 82.5777 47.7937Z" fill="#FF5200"/>
<path d="M255.095 53.4614C256.014 53.4614 256.646 54.2114 256.646 55.3196C256.646 56.4312 256.017 57.1813 255.102 57.1813C254.517 57.1813 254.061 56.8637 253.858 56.3907H253.848V58.3469H253.402V53.5019H253.824V54.2554H253.835C254.027 53.7925 254.517 53.4614 255.095 53.4614ZM255.017 56.7792C255.72 56.7792 256.189 56.1981 256.189 55.323C256.189 54.4479 255.72 53.8601 255.017 53.8601C254.324 53.8601 253.845 54.4581 253.845 55.3196C253.845 56.188 254.324 56.7792 255.017 56.7792ZM258.737 57.1813C257.737 57.1813 257.085 56.4549 257.085 55.3196C257.085 54.1844 257.737 53.4614 258.737 53.4614C259.737 53.4614 260.393 54.1844 260.393 55.3196C260.393 56.4549 259.737 57.1813 258.737 57.1813ZM258.737 56.7792C259.477 56.7792 259.936 56.2285 259.936 55.3196C259.936 54.4108 259.477 53.8601 258.737 53.8601C258 53.8601 257.541 54.4142 257.541 55.3196C257.541 56.2285 258 56.7792 258.737 56.7792ZM261.018 57.1407V53.5019H261.437V54.1472H261.45C261.575 53.7148 261.92 53.4614 262.372 53.4614C262.491 53.4614 262.599 53.4816 262.656 53.4985V53.9411C262.595 53.9141 262.467 53.8905 262.312 53.8905C261.795 53.8905 261.464 54.2959 261.464 54.8838V57.1407H261.018ZM264.694 57.1407V53.5019H265.113V54.181H265.126C265.281 53.7519 265.67 53.4614 266.187 53.4614C266.714 53.4614 267.099 53.7655 267.238 54.225H267.248C267.42 53.7756 267.853 53.4614 268.4 53.4614C269.11 53.4614 269.576 53.9344 269.576 54.6709V57.1407H269.126V54.7723C269.126 54.2047 268.812 53.8601 268.278 53.8601C267.734 53.8601 267.356 54.279 267.356 54.8669V57.1407H266.91V54.7284C266.91 54.2081 266.569 53.8601 266.069 53.8601C265.528 53.8601 265.14 54.2959 265.14 54.921V57.1407H264.694ZM271.964 51.897L272.887 52.914H272.458L271.809 52.1707H271.792L271.143 52.914H270.714L271.637 51.897H271.964ZM271.796 53.8567C271.143 53.8567 270.684 54.3432 270.643 55.0662H272.907C272.9 54.3432 272.454 53.8567 271.796 53.8567ZM272.883 56.1103H273.326C273.218 56.7319 272.62 57.1813 271.829 57.1813C270.822 57.1813 270.181 56.4751 270.181 55.3298C270.181 54.2013 270.822 53.4614 271.802 53.4614C272.758 53.4614 273.373 54.154 273.373 55.2352V55.4311H270.643V55.4548C270.643 56.2792 271.116 56.786 271.839 56.786C272.387 56.786 272.775 56.5089 272.883 56.1103ZM273.924 54.4817C273.924 53.8803 274.482 53.4614 275.232 53.4614C275.968 53.4614 276.502 53.9006 276.539 54.5257H276.11C276.066 54.1135 275.732 53.8398 275.218 53.8398C274.732 53.8398 274.367 54.0898 274.367 54.4581C274.367 54.7554 274.583 54.9277 275.046 55.0426L275.603 55.1777C276.333 55.3602 276.61 55.6237 276.61 56.1407C276.61 56.7556 276.026 57.1813 275.208 57.1813C274.428 57.1813 273.867 56.7353 273.816 56.117H274.269C274.323 56.5326 274.684 56.8063 275.235 56.8063C275.779 56.8063 276.157 56.5562 276.157 56.1711C276.157 55.8636 275.972 55.6947 275.478 55.573L274.863 55.4176C274.235 55.2588 273.924 54.9615 273.924 54.4817Z" fill="black"/>
<path d="M242.374 47.5488C238.932 47.5488 236.088 45.9856 234.409 43.1254C233.079 41.0967 232.397 38.3861 232.397 35.1934C232.397 27.2447 236.255 22.4555 242.457 22.4555C247.03 22.4555 250.606 25.166 251.271 29.0905H246.332C245.85 27.4941 244.303 26.4298 242.424 26.4298C239.082 26.4298 237.053 29.6392 237.169 35.0603H237.269C238.234 32.7156 240.595 31.1525 243.655 31.1525C248.211 31.1525 251.587 34.5116 251.587 39.0679C251.587 44.0068 247.745 47.5488 242.374 47.5488ZM242.324 43.5412C244.769 43.5412 246.698 41.6288 246.698 39.2176C246.698 36.7399 244.852 34.9273 242.341 34.9273C239.847 34.9273 237.951 36.7399 237.951 39.1677C237.951 41.6122 239.863 43.5412 242.324 43.5412ZM263.41 47.5321C258.82 47.5321 255.212 44.805 254.547 40.8805H259.502C259.984 42.4935 261.564 43.5578 263.493 43.5578C266.802 43.5578 268.815 40.4149 268.681 34.9107C268.665 34.9107 268.632 34.9107 268.632 34.9107H268.598H268.582C267.717 37.2554 265.356 38.8351 262.196 38.8351C257.673 38.8351 254.231 35.4761 254.231 30.9197C254.231 25.9809 258.122 22.4555 263.477 22.4555C266.935 22.4555 269.812 24.002 271.475 26.8456C272.805 28.8909 273.487 31.5849 273.487 34.7943C273.487 42.743 269.729 47.5321 263.41 47.5321ZM263.51 35.0603C266.004 35.0603 267.9 33.2311 267.9 30.8033C267.9 28.3588 265.988 26.4631 263.543 26.4631C261.082 26.4631 259.136 28.3588 259.136 30.77C259.136 33.2311 261.015 35.0603 263.51 35.0603Z" fill="#FF5200"/>
<path d="M277.111 36.1414H275.444L276.07 32.0606H278.145L277.111 36.1414ZM283.772 34.3386C281.69 34.3386 280.053 33.1015 279.751 31.3214H281.999C282.218 32.0531 282.934 32.5358 283.809 32.5358C285.31 32.5358 286.223 31.1102 286.163 28.6134C286.155 28.6134 286.14 28.6134 286.14 28.6134H286.125H286.118C285.725 29.677 284.654 30.3936 283.221 30.3936C281.169 30.3936 279.608 28.8699 279.608 26.8031C279.608 24.5628 281.373 22.9636 283.802 22.9636C285.371 22.9636 286.676 23.6651 287.43 24.955C288.033 25.8828 288.343 27.1048 288.343 28.5606C288.343 32.1662 286.638 34.3386 283.772 34.3386ZM283.817 28.6813C284.948 28.6813 285.808 27.8516 285.808 26.7503C285.808 25.6414 284.941 24.7815 283.832 24.7815C282.716 24.7815 281.833 25.6414 281.833 26.7352C281.833 27.8516 282.685 28.6813 283.817 28.6813ZM293.744 34.3386C291.662 34.3386 290.025 33.1015 289.723 31.3214H291.971C292.19 32.0531 292.906 32.5358 293.781 32.5358C295.282 32.5358 296.195 31.1102 296.135 28.6134C296.127 28.6134 296.112 28.6134 296.112 28.6134H296.097H296.09C295.697 29.677 294.626 30.3936 293.193 30.3936C291.141 30.3936 289.58 28.8699 289.58 26.8031C289.58 24.5628 291.345 22.9636 293.774 22.9636C295.343 22.9636 296.648 23.6651 297.402 24.955C298.005 25.8828 298.315 27.1048 298.315 28.5606C298.315 32.1662 296.61 34.3386 293.744 34.3386ZM293.789 28.6813C294.92 28.6813 295.78 27.8516 295.78 26.7503C295.78 25.6414 294.913 24.7815 293.804 24.7815C292.688 24.7815 291.805 25.6414 291.805 26.7352C291.805 27.8516 292.657 28.6813 293.789 28.6813Z" fill="#FF5200"/>
<circle cx="275.619" cy="41.9913" r="4.7114" fill="#FFD61F"/>
<path d="M273.536 41.6739V42.7254H274.141C274.489 42.7254 274.692 42.5265 274.692 42.1997C274.692 41.8796 274.477 41.6739 274.135 41.6739H273.536ZM273.536 43.226V44.4329H272.845V41.1345H274.208C274.967 41.1345 275.401 41.5345 275.401 42.1859C275.401 42.6088 275.181 42.9745 274.802 43.1231L275.497 44.4329H274.715L274.1 43.226H273.536ZM277.273 44.746H276.951V44.4534C276.233 44.4123 275.796 44.0511 275.794 43.4911H276.448C276.464 43.7288 276.66 43.9026 276.951 43.9346V43.0431L276.708 42.986C276.157 42.858 275.863 42.5402 275.863 42.0648C275.863 41.5048 276.265 41.1436 276.951 41.0888V40.7756H277.273V41.091C277.913 41.1482 278.324 41.5231 278.334 42.0488H277.698C277.691 41.8316 277.517 41.6533 277.273 41.6191V42.4717L277.517 42.5197C278.103 42.6477 278.395 42.9517 278.395 43.4477C278.395 44.0283 277.991 44.3894 277.273 44.4511V44.746ZM277.748 43.5208C277.748 43.2991 277.597 43.1643 277.273 43.1002V43.9368C277.572 43.9186 277.748 43.7631 277.748 43.5208ZM276.523 42.0076C276.523 42.2088 276.672 42.3459 276.951 42.4054V41.6168C276.701 41.6305 276.523 41.7905 276.523 42.0076Z" fill="#FFFFD6"/>
<path d="M124.27 27H123.11V19.5277H124.27V27ZM125.534 27V21.3763H126.605V22.324H126.626C126.968 21.6611 127.532 21.3142 128.402 21.3142C129.645 21.3142 130.355 22.1013 130.355 23.3959V27H129.231V23.6082C129.231 22.7538 128.837 22.2774 128.014 22.2774C127.165 22.2774 126.657 22.8677 126.657 23.7532V27H125.534ZM131.815 20.1128H132.933V21.3763H134.01V22.2618H132.933V25.4051C132.933 25.8918 133.151 26.1197 133.622 26.1197C133.741 26.1197 133.933 26.1041 134.005 26.0938V26.9793C133.881 27.0104 133.617 27.0362 133.374 27.0362C132.25 27.0362 131.815 26.6064 131.815 25.519V22.2618H131.038V21.3763H131.815V20.1128ZM137.164 22.2204C136.356 22.2204 135.771 22.8107 135.709 23.6755H138.562C138.536 22.8004 137.982 22.2204 137.164 22.2204ZM138.557 25.3533H139.629C139.468 26.3631 138.479 27.0673 137.216 27.0673C135.585 27.0673 134.57 25.9695 134.57 24.2089C134.57 22.4482 135.595 21.3038 137.169 21.3038C138.712 21.3038 139.686 22.3758 139.686 24.0794V24.473H135.704V24.5403C135.704 25.5138 136.315 26.1559 137.237 26.1559C137.889 26.1559 138.402 25.8452 138.557 25.3533ZM140.592 27V21.3763H141.664V22.324H141.685C141.861 21.6974 142.379 21.3194 143.041 21.3194C143.207 21.3194 143.347 21.3349 143.435 21.3556V22.4068C143.342 22.3706 143.145 22.3395 142.922 22.3395C142.182 22.3395 141.716 22.8522 141.716 23.6444V27H140.592ZM144.155 27V21.3763H145.227V22.324H145.247C145.589 21.6611 146.154 21.3142 147.024 21.3142C148.266 21.3142 148.976 22.1013 148.976 23.3959V27H147.852V23.6082C147.852 22.7538 147.459 22.2774 146.635 22.2774C145.786 22.2774 145.279 22.8677 145.279 23.7532V27H144.155ZM152.44 22.2204C151.632 22.2204 151.047 22.8107 150.985 23.6755H153.838C153.812 22.8004 153.258 22.2204 152.44 22.2204ZM153.833 25.3533H154.905C154.745 26.3631 153.755 27.0673 152.492 27.0673C150.861 27.0673 149.846 25.9695 149.846 24.2089C149.846 22.4482 150.871 21.3038 152.445 21.3038C153.988 21.3038 154.962 22.3758 154.962 24.0794V24.473H150.98V24.5403C150.98 25.5138 151.591 26.1559 152.513 26.1559C153.165 26.1559 153.678 25.8452 153.833 25.3533ZM156.205 20.1128H157.323V21.3763H158.4V22.2618H157.323V25.4051C157.323 25.8918 157.541 26.1197 158.012 26.1197C158.131 26.1197 158.323 26.1041 158.395 26.0938V26.9793C158.271 27.0104 158.007 27.0362 157.763 27.0362C156.64 27.0362 156.205 26.6064 156.205 25.519V22.2618H155.428V21.3763H156.205V20.1128ZM163.066 27H161.906V19.5277H166.572V20.5271H163.066V22.8936H166.277V23.8723H163.066V27ZM167.509 27V21.3763H168.633V27H167.509ZM168.074 20.5737C167.711 20.5737 167.416 20.2837 167.416 19.9264C167.416 19.5587 167.711 19.2791 168.074 19.2791C168.436 19.2791 168.731 19.5587 168.731 19.9264C168.731 20.2837 168.436 20.5737 168.074 20.5737ZM172.791 27.057C171.973 27.057 171.331 26.6945 170.984 26.0472H170.958V27H169.876V19.1911H170.999V22.3084H171.02C171.362 21.6767 172.004 21.3194 172.801 21.3194C174.22 21.3194 175.152 22.4431 175.152 24.1882C175.152 25.9333 174.22 27.057 172.791 27.057ZM172.506 22.2722C171.6 22.2722 170.994 23.0489 170.994 24.1882C170.994 25.3326 171.6 26.1041 172.506 26.1041C173.412 26.1041 174.003 25.3533 174.003 24.1882C174.003 23.023 173.412 22.2722 172.506 22.2722ZM176.053 27V21.3763H177.125V22.324H177.146C177.322 21.6974 177.84 21.3194 178.503 21.3194C178.668 21.3194 178.808 21.3349 178.896 21.3556V22.4068C178.803 22.3706 178.606 22.3395 178.384 22.3395C177.643 22.3395 177.177 22.8522 177.177 23.6444V27H176.053ZM181.454 26.1611C182.288 26.1611 182.92 25.6277 182.92 24.8872V24.4471L181.553 24.5403C180.786 24.5869 180.388 24.8717 180.388 25.3688C180.388 25.8504 180.807 26.1611 181.454 26.1611ZM181.154 27.057C180.03 27.057 179.254 26.3941 179.254 25.3895C179.254 24.4057 180.015 23.836 181.403 23.748L182.92 23.66V23.225C182.92 22.5829 182.49 22.2308 181.739 22.2308C181.128 22.2308 180.683 22.5466 180.584 23.0334H179.533C179.564 22.0392 180.507 21.3038 181.77 21.3038C183.142 21.3038 184.028 22.0288 184.028 23.1421V27H182.956V26.0627H182.93C182.619 26.6738 181.92 27.057 181.154 27.057ZM191.402 18.9684H190.491L191.687 17.3994H192.852L191.402 18.9684ZM190.946 19.4034C193.095 19.4034 194.447 20.8896 194.447 23.2664C194.447 25.6433 193.095 27.1243 190.946 27.1243C188.792 27.1243 187.446 25.6433 187.446 23.2664C187.446 20.8896 188.792 19.4034 190.946 19.4034ZM190.946 20.4235C189.527 20.4235 188.631 21.5213 188.631 23.2664C188.631 25.0063 189.527 26.1041 190.946 26.1041C192.365 26.1041 193.256 25.0063 193.256 23.2664C193.256 21.5213 192.365 20.4235 190.946 20.4235ZM198.341 21.3194C199.775 21.3194 200.718 22.4431 200.718 24.1882C200.718 25.9281 199.78 27.057 198.367 27.057C197.559 27.057 196.922 26.6997 196.585 26.0783H196.565V28.8642H195.441V21.3763H196.523V22.3084H196.549C196.865 21.7026 197.559 21.3194 198.341 21.3194ZM198.056 26.1041C198.967 26.1041 199.568 25.3533 199.568 24.1882C199.568 23.0282 198.967 22.2722 198.056 22.2722C197.165 22.2722 196.56 23.0438 196.554 24.1882C196.56 25.3378 197.16 26.1041 198.056 26.1041ZM201.95 20.1128H203.069V21.3763H204.146V22.2618H203.069V25.4051C203.069 25.8918 203.286 26.1197 203.757 26.1197C203.876 26.1197 204.068 26.1041 204.141 26.0938V26.9793C204.016 27.0104 203.752 27.0362 203.509 27.0362C202.385 27.0362 201.95 26.6064 201.95 25.519V22.2618H201.173V21.3763H201.95V20.1128ZM205.135 27V21.3763H206.259V27H205.135ZM205.699 20.5737C205.337 20.5737 205.042 20.2837 205.042 19.9264C205.042 19.5587 205.337 19.2791 205.699 19.2791C206.062 19.2791 206.357 19.5587 206.357 19.9264C206.357 20.2837 206.062 20.5737 205.699 20.5737ZM212.26 23.2975H211.188C211.085 22.702 210.619 22.2515 209.847 22.2515C208.941 22.2515 208.34 23.0075 208.34 24.1882C208.34 25.3999 208.951 26.1249 209.852 26.1249C210.582 26.1249 211.064 25.7676 211.199 25.1099H212.271C212.141 26.2854 211.199 27.0673 209.847 27.0673C208.252 27.0673 207.201 25.9695 207.201 24.1882C207.201 22.4379 208.247 21.3038 209.837 21.3038C211.271 21.3038 212.162 22.2152 212.26 23.2975ZM215.051 26.1611C215.885 26.1611 216.517 25.6277 216.517 24.8872V24.4471L215.15 24.5403C214.383 24.5869 213.985 24.8717 213.985 25.3688C213.985 25.8504 214.404 26.1611 215.051 26.1611ZM214.751 27.057C213.627 27.057 212.851 26.3941 212.851 25.3895C212.851 24.4057 213.612 23.836 215 23.748L216.517 23.66V23.225C216.517 22.5829 216.087 22.2308 215.336 22.2308C214.725 22.2308 214.28 22.5466 214.181 23.0334H213.13C213.161 22.0392 214.104 21.3038 215.367 21.3038C216.739 21.3038 217.625 22.0288 217.625 23.1421V27H216.553V26.0627H216.527C216.216 26.6738 215.517 27.057 214.751 27.057Z" fill="black"/>
<path d="M122.779 37.609H123.923C124.006 38.3495 124.726 38.8362 125.71 38.8362C126.652 38.8362 127.33 38.3495 127.33 37.6815C127.33 37.1015 126.921 36.7546 125.953 36.5164L124.985 36.2833C123.612 35.9519 122.975 35.3098 122.975 34.269C122.975 32.9796 124.099 32.0941 125.694 32.0941C127.273 32.0941 128.356 32.9796 128.392 34.269H127.263C127.196 33.5233 126.58 33.0728 125.679 33.0728C124.778 33.0728 124.161 33.5285 124.161 34.1913C124.161 34.7195 124.555 35.0302 125.518 35.2684L126.341 35.4703C127.874 35.8328 128.511 36.449 128.511 37.5417C128.511 38.9398 127.398 39.815 125.627 39.815C123.97 39.815 122.851 38.9605 122.779 37.609ZM131.779 34.9111C130.971 34.9111 130.386 35.5014 130.324 36.3662H133.177C133.151 35.4911 132.597 34.9111 131.779 34.9111ZM133.172 38.044H134.244C134.083 39.0537 133.094 39.758 131.83 39.758C130.199 39.758 129.184 38.6602 129.184 36.8996C129.184 35.1389 130.21 33.9945 131.784 33.9945C133.327 33.9945 134.3 35.0664 134.3 36.7701V37.1636H130.318V37.231C130.318 38.2045 130.929 38.8466 131.851 38.8466C132.504 38.8466 133.016 38.5359 133.172 38.044ZM135.207 39.6907V34.067H136.279V35.0198H136.299C136.558 34.3881 137.164 34.0049 137.899 34.0049C138.681 34.0049 139.246 34.3984 139.474 35.0975H139.5C139.795 34.4191 140.458 34.0049 141.26 34.0049C142.368 34.0049 143.093 34.735 143.093 35.8587V39.6907H141.975V36.128C141.975 35.3927 141.576 34.968 140.877 34.968C140.188 34.968 139.701 35.4807 139.701 36.2005V39.6907H138.598V36.0348C138.598 35.3823 138.179 34.968 137.521 34.968C136.827 34.968 136.33 35.5066 136.33 36.2419V39.6907H135.207ZM150.006 32.0941C152.155 32.0941 153.507 33.5802 153.507 35.9571C153.507 38.334 152.155 39.815 150.006 39.815C147.852 39.815 146.506 38.334 146.506 35.9571C146.506 33.5802 147.852 32.0941 150.006 32.0941ZM150.006 33.1142C148.587 33.1142 147.692 34.212 147.692 35.9571C147.692 37.697 148.587 38.7948 150.006 38.7948C151.425 38.7948 152.316 37.697 152.316 35.9571C152.316 34.212 151.425 33.1142 150.006 33.1142ZM154.366 35.6671C154.366 34.6781 155.252 33.9997 156.547 33.9997C157.779 33.9997 158.67 34.6936 158.696 35.6723H157.639C157.593 35.1752 157.163 34.8645 156.521 34.8645C155.884 34.8645 155.459 35.1596 155.459 35.605C155.459 35.9467 155.739 36.1798 156.334 36.3248L157.266 36.5474C158.4 36.8219 158.82 37.231 158.82 38.0595C158.82 39.0641 157.867 39.758 156.505 39.758C155.195 39.758 154.299 39.0796 154.216 38.0647H155.324C155.413 38.6032 155.847 38.8984 156.562 38.8984C157.261 38.8984 157.701 38.6084 157.701 38.1527C157.701 37.7954 157.479 37.609 156.888 37.4588L155.884 37.2103C154.869 36.9617 154.366 36.4439 154.366 35.6671ZM164.537 35.9882H163.465C163.361 35.3927 162.895 34.9421 162.124 34.9421C161.217 34.9421 160.617 35.6982 160.617 36.8788C160.617 38.0906 161.228 38.8155 162.129 38.8155C162.859 38.8155 163.341 38.4582 163.475 37.8006H164.547C164.418 38.9761 163.475 39.758 162.124 39.758C160.529 39.758 159.478 38.6602 159.478 36.8788C159.478 35.1286 160.524 33.9945 162.113 33.9945C163.548 33.9945 164.438 34.9059 164.537 35.9882ZM165.417 39.6907V34.067H166.541V39.6907H165.417ZM165.981 33.2644C165.619 33.2644 165.324 32.9744 165.324 32.6171C165.324 32.2494 165.619 31.9698 165.981 31.9698C166.344 31.9698 166.639 32.2494 166.639 32.6171C166.639 32.9744 166.344 33.2644 165.981 33.2644ZM167.784 39.6907V31.8818H168.907V39.6907H167.784ZM172.061 38.8518C172.895 38.8518 173.526 38.3184 173.526 37.5779V37.1378L172.159 37.231C171.393 37.2776 170.994 37.5624 170.994 38.0595C170.994 38.5411 171.414 38.8518 172.061 38.8518ZM171.76 39.7476C170.637 39.7476 169.86 39.0848 169.86 38.0802C169.86 37.0963 170.621 36.5267 172.009 36.4387L173.526 36.3507V35.9157C173.526 35.2736 173.097 34.9214 172.346 34.9214C171.735 34.9214 171.289 35.2373 171.191 35.7241H170.14C170.171 34.7298 171.113 33.9945 172.377 33.9945C173.749 33.9945 174.634 34.7195 174.634 35.8328V39.6907H173.563V38.7534H173.537C173.226 39.3644 172.527 39.7476 171.76 39.7476ZM179.507 37.8006H180.579C180.46 38.8725 179.668 39.613 178.508 39.7373L178.264 40.3742C178.938 40.3742 179.3 40.6538 179.3 41.1717C179.3 41.7258 178.829 42.0986 178.13 42.1038C177.84 42.109 177.596 42.0831 177.379 42.0157V41.472C177.488 41.5134 177.773 41.5445 177.99 41.5445C178.384 41.5445 178.586 41.4306 178.586 41.2027C178.586 40.9697 178.378 40.8765 177.855 40.8765H177.571V40.4467L177.855 39.7425C176.431 39.613 175.51 38.5463 175.51 36.8788C175.51 35.1286 176.556 33.9945 178.145 33.9945C179.58 33.9945 180.47 34.9059 180.569 35.9882H179.497C179.393 35.3927 178.927 34.9421 178.156 34.9421C177.25 34.9421 176.649 35.6982 176.649 36.8788C176.649 38.0906 177.26 38.8155 178.161 38.8155C178.891 38.8155 179.373 38.4582 179.507 37.8006ZM184.52 33.1763C183.836 33.1763 183.609 32.4203 183.21 32.4203C182.982 32.4203 182.858 32.674 182.852 33.0935H182.184C182.184 32.2546 182.573 31.7627 183.174 31.7627C183.893 31.7627 184.121 32.5187 184.499 32.5187C184.717 32.5187 184.825 32.2753 184.825 31.8352H185.499C185.499 32.6585 185.095 33.1763 184.52 33.1763ZM183.816 39.758C182.19 39.758 181.154 38.6498 181.154 36.8788C181.154 35.113 182.195 33.9945 183.816 33.9945C185.436 33.9945 186.472 35.1079 186.472 36.8788C186.472 38.6498 185.442 39.758 183.816 39.758ZM183.816 38.8259C184.768 38.8259 185.333 38.1061 185.333 36.8788C185.333 35.6516 184.768 34.9266 183.816 34.9266C182.863 34.9266 182.293 35.6568 182.293 36.8788C182.293 38.1061 182.863 38.8259 183.816 38.8259ZM189.714 34.9111C188.906 34.9111 188.321 35.5014 188.259 36.3662H191.112C191.086 35.4911 190.532 34.9111 189.714 34.9111ZM191.107 38.044H192.179C192.018 39.0537 191.029 39.758 189.766 39.758C188.134 39.758 187.119 38.6602 187.119 36.8996C187.119 35.1389 188.145 33.9945 189.719 33.9945C191.262 33.9945 192.236 35.0664 192.236 36.7701V37.1636H188.253V37.231C188.253 38.2045 188.865 38.8466 189.786 38.8466C190.439 38.8466 190.951 38.5359 191.107 38.044ZM193.049 35.6671C193.049 34.6781 193.934 33.9997 195.229 33.9997C196.461 33.9997 197.352 34.6936 197.378 35.6723H196.321C196.275 35.1752 195.845 34.8645 195.203 34.8645C194.566 34.8645 194.141 35.1596 194.141 35.605C194.141 35.9467 194.421 36.1798 195.016 36.3248L195.948 36.5474C197.083 36.8219 197.502 37.231 197.502 38.0595C197.502 39.0641 196.549 39.758 195.187 39.758C193.877 39.758 192.981 39.0796 192.898 38.0647H194.007C194.095 38.6032 194.53 38.8984 195.244 38.8984C195.943 38.8984 196.383 38.6084 196.383 38.1527C196.383 37.7954 196.161 37.609 195.57 37.4588L194.566 37.2103C193.551 36.9617 193.049 36.4439 193.049 35.6671Z" fill="#FF5200"/>
<path d="M124.27 53.3578H123.11V45.8854H124.27V53.3578ZM125.534 53.3578V47.7341H126.605V48.6817H126.626C126.968 48.0189 127.532 47.672 128.402 47.672C129.645 47.672 130.355 48.4591 130.355 49.7536V53.3578H129.231V49.966C129.231 49.1115 128.837 48.6351 128.014 48.6351C127.165 48.6351 126.657 49.2255 126.657 50.1109V53.3578H125.534ZM131.385 49.3342C131.385 48.3451 132.271 47.6668 133.565 47.6668C134.798 47.6668 135.688 48.3607 135.714 49.3394H134.658C134.611 48.8423 134.181 48.5316 133.539 48.5316C132.902 48.5316 132.478 48.8267 132.478 49.2721C132.478 49.6138 132.757 49.8469 133.353 49.9918L134.285 50.2145C135.419 50.489 135.838 50.8981 135.838 51.7266C135.838 52.7312 134.886 53.4251 133.524 53.4251C132.214 53.4251 131.318 52.7467 131.235 51.7318H132.343C132.431 52.2703 132.866 52.5655 133.581 52.5655C134.28 52.5655 134.72 52.2755 134.72 51.8198C134.72 51.4625 134.497 51.2761 133.907 51.1259L132.902 50.8773C131.887 50.6288 131.385 50.1109 131.385 49.3342ZM137.086 46.4706H138.205V47.7341H139.282V48.6196H138.205V51.7628C138.205 52.2496 138.422 52.4774 138.894 52.4774C139.013 52.4774 139.204 52.4619 139.277 52.4516V53.337C139.153 53.3681 138.888 53.394 138.645 53.394C137.521 53.394 137.086 52.9642 137.086 51.8768V48.6196H136.31V47.7341H137.086V46.4706ZM142.14 52.5189C142.974 52.5189 143.606 51.9855 143.606 51.245V50.8048L142.239 50.8981C141.472 50.9447 141.074 51.2295 141.074 51.7266C141.074 52.2082 141.493 52.5189 142.14 52.5189ZM141.84 53.4147C140.716 53.4147 139.94 52.7519 139.94 51.7473C139.94 50.7634 140.701 50.1938 142.089 50.1058L143.606 50.0177V49.5828C143.606 48.9406 143.176 48.5885 142.425 48.5885C141.814 48.5885 141.369 48.9044 141.27 49.3912H140.219C140.25 48.3969 141.193 47.6616 142.456 47.6616C143.829 47.6616 144.714 48.3866 144.714 49.4999V53.3578H143.642V52.4205H143.616C143.306 53.0315 142.607 53.4147 141.84 53.4147ZM145.89 53.3578V45.5488H147.013V53.3578H145.89ZM150.167 52.5189C151.001 52.5189 151.632 51.9855 151.632 51.245V50.8048L150.265 50.8981C149.499 50.9447 149.1 51.2295 149.1 51.7266C149.1 52.2082 149.52 52.5189 150.167 52.5189ZM149.867 53.4147C148.743 53.4147 147.966 52.7519 147.966 51.7473C147.966 50.7634 148.727 50.1938 150.115 50.1058L151.632 50.0177V49.5828C151.632 48.9406 151.203 48.5885 150.452 48.5885C149.841 48.5885 149.395 48.9044 149.297 49.3912H148.246C148.277 48.3969 149.219 47.6616 150.483 47.6616C151.855 47.6616 152.74 48.3866 152.74 49.4999V53.3578H151.669V52.4205H151.643C151.332 53.0315 150.633 53.4147 149.867 53.4147ZM157.613 51.4677H158.685C158.566 52.5396 157.774 53.2801 156.614 53.4044L156.371 54.0413C157.044 54.0413 157.406 54.3209 157.406 54.8388C157.406 55.3928 156.935 55.7657 156.236 55.7709C155.946 55.776 155.702 55.7501 155.485 55.6828V55.1391C155.594 55.1805 155.879 55.2116 156.096 55.2116C156.49 55.2116 156.692 55.0977 156.692 54.8698C156.692 54.6368 156.484 54.5436 155.961 54.5436H155.677V54.1138L155.961 53.4095C154.537 53.2801 153.616 52.2133 153.616 50.5459C153.616 48.7957 154.662 47.6616 156.251 47.6616C157.686 47.6616 158.576 48.573 158.675 49.6553H157.603C157.499 49.0597 157.033 48.6092 156.262 48.6092C155.356 48.6092 154.755 49.3653 154.755 50.5459C154.755 51.7577 155.366 52.4826 156.267 52.4826C156.997 52.4826 157.479 52.1253 157.613 51.4677ZM161.466 52.5189C162.3 52.5189 162.931 51.9855 162.931 51.245V50.8048L161.564 50.8981C160.798 50.9447 160.399 51.2295 160.399 51.7266C160.399 52.2082 160.819 52.5189 161.466 52.5189ZM161.166 53.4147C160.042 53.4147 159.265 52.7519 159.265 51.7473C159.265 50.7634 160.026 50.1938 161.414 50.1058L162.931 50.0177V49.5828C162.931 48.9406 162.502 48.5885 161.751 48.5885C161.14 48.5885 160.694 48.9044 160.596 49.3912H159.545C159.576 48.3969 160.518 47.6616 161.782 47.6616C163.154 47.6616 164.04 48.3866 164.04 49.4999V53.3578H162.968V52.4205H162.942C162.631 53.0315 161.932 53.4147 161.166 53.4147ZM162.465 46.8434C161.782 46.8434 161.554 46.0874 161.155 46.0874C160.927 46.0874 160.803 46.3411 160.798 46.7606H160.13C160.13 45.9217 160.518 45.4297 161.119 45.4297C161.839 45.4297 162.067 46.1858 162.445 46.1858C162.662 46.1858 162.771 45.9424 162.771 45.5022H163.444C163.444 46.3256 163.04 46.8434 162.465 46.8434ZM167.576 53.4251C165.95 53.4251 164.915 52.3169 164.915 50.5459C164.915 48.7801 165.956 47.6616 167.576 47.6616C169.197 47.6616 170.233 48.7749 170.233 50.5459C170.233 52.3169 169.202 53.4251 167.576 53.4251ZM167.576 52.493C168.529 52.493 169.094 51.7732 169.094 50.5459C169.094 49.3187 168.529 48.5937 167.576 48.5937C166.624 48.5937 166.054 49.3238 166.054 50.5459C166.054 51.7732 166.624 52.493 167.576 52.493ZM180.129 50.2508C180.129 52.2755 178.932 53.482 176.908 53.482C174.769 53.482 173.423 51.9855 173.423 49.5879C173.423 47.2318 174.764 45.7612 176.892 45.7612C178.554 45.7612 179.813 46.745 180.072 48.2364H178.881C178.601 47.3095 177.871 46.7761 176.897 46.7761C175.468 46.7761 174.609 47.8221 174.609 49.5776C174.609 51.3641 175.494 52.4671 176.918 52.4671C178.13 52.4671 178.969 51.6903 178.984 50.5563V50.4268H177.053V49.4895H180.129V50.2508ZM181.149 53.3578V47.7341H182.221V48.6817H182.241C182.417 48.0552 182.935 47.6771 183.598 47.6771C183.764 47.6771 183.904 47.6927 183.992 47.7134V48.7646C183.898 48.7283 183.702 48.6973 183.479 48.6973C182.739 48.6973 182.272 49.2099 182.272 50.0022V53.3578H181.149ZM186.55 52.5189C187.384 52.5189 188.015 51.9855 188.015 51.245V50.8048L186.648 50.8981C185.882 50.9447 185.483 51.2295 185.483 51.7266C185.483 52.2082 185.903 52.5189 186.55 52.5189ZM186.249 53.4147C185.126 53.4147 184.349 52.7519 184.349 51.7473C184.349 50.7634 185.11 50.1938 186.498 50.1058L188.015 50.0177V49.5828C188.015 48.9406 187.585 48.5885 186.835 48.5885C186.224 48.5885 185.778 48.9044 185.68 49.3912H184.629C184.66 48.3969 185.602 47.6616 186.866 47.6616C188.238 47.6616 189.123 48.3866 189.123 49.4999V53.3578H188.052V52.4205H188.026C187.715 53.0315 187.016 53.4147 186.249 53.4147ZM190.589 46.4706H191.707V47.7341H192.785V48.6196H191.707V51.7628C191.707 52.2496 191.925 52.4774 192.396 52.4774C192.515 52.4774 192.707 52.4619 192.779 52.4516V53.337C192.655 53.3681 192.391 53.394 192.148 53.394C191.024 53.394 190.589 52.9642 190.589 51.8768V48.6196H189.812V47.7341H190.589V46.4706ZM198.527 47.7341V53.3578H197.455V52.3946H197.435C197.108 53.0626 196.539 53.4199 195.679 53.4199C194.452 53.4199 193.706 52.6276 193.706 51.3382V47.7341H194.83V51.1259C194.83 51.9907 195.239 52.4516 196.052 52.4516C196.891 52.4516 197.404 51.8664 197.404 50.9757V47.7341H198.527ZM199.718 53.3578V47.7341H200.842V53.3578H199.718ZM200.283 46.9315C199.92 46.9315 199.625 46.6415 199.625 46.2842C199.625 45.9165 199.92 45.6369 200.283 45.6369C200.645 45.6369 200.94 45.9165 200.94 46.2842C200.94 46.6415 200.645 46.9315 200.283 46.9315ZM202.375 46.4706H203.493V47.7341H204.57V48.6196H203.493V51.7628C203.493 52.2496 203.711 52.4774 204.182 52.4774C204.301 52.4774 204.493 52.4619 204.565 52.4516V53.337C204.441 53.3681 204.177 53.394 203.933 53.394C202.81 53.394 202.375 52.9642 202.375 51.8768V48.6196H201.598V47.7341H202.375V46.4706ZM207.429 52.5189C208.263 52.5189 208.894 51.9855 208.894 51.245V50.8048L207.527 50.8981C206.761 50.9447 206.362 51.2295 206.362 51.7266C206.362 52.2082 206.782 52.5189 207.429 52.5189ZM207.128 53.4147C206.005 53.4147 205.228 52.7519 205.228 51.7473C205.228 50.7634 205.989 50.1938 207.377 50.1058L208.894 50.0177V49.5828C208.894 48.9406 208.464 48.5885 207.714 48.5885C207.103 48.5885 206.657 48.9044 206.559 49.3912H205.508C205.539 48.3969 206.481 47.6616 207.745 47.6616C209.117 47.6616 210.002 48.3866 210.002 49.4999V53.3578H208.931V52.4205H208.905C208.594 53.0315 207.895 53.4147 207.128 53.4147Z" fill="#FF5200"/>
<path d="M113.122 24.0402L112.58 23.477C112.372 23.2607 112.087 23.1358 111.786 23.1299C111.486 23.1239 111.196 23.2374 110.98 23.4453C110.872 23.5484 110.786 23.6715 110.727 23.8078C110.667 23.944 110.635 24.0907 110.632 24.2394C110.629 24.3881 110.655 24.5359 110.71 24.6744C110.764 24.813 110.845 24.9394 110.948 25.0467L111.823 25.9572C111.986 26.1297 112.182 26.2679 112.399 26.3639C112.616 26.4598 112.85 26.5115 113.087 26.5159H113.115C113.585 26.5145 114.036 26.3279 114.37 25.9964L117.36 23.0051C117.572 22.7928 117.692 22.5048 117.692 22.2045C117.692 21.9042 117.572 21.6162 117.36 21.4038C117.255 21.2986 117.13 21.2151 116.993 21.1581C116.855 21.1012 116.708 21.0718 116.559 21.0718C116.41 21.0718 116.263 21.1012 116.125 21.1581C115.988 21.2151 115.863 21.2986 115.758 21.4038L113.122 24.0402Z" fill="#FF5200"/>
<path d="M113.122 36.3429L112.58 35.7797C112.372 35.5634 112.087 35.4385 111.786 35.4326C111.486 35.4266 111.196 35.5401 110.98 35.748C110.872 35.8511 110.786 35.9742 110.727 36.1105C110.667 36.2468 110.635 36.3934 110.632 36.5421C110.629 36.6908 110.655 36.8386 110.71 36.9772C110.764 37.1157 110.845 37.2421 110.948 37.3494L111.823 38.2599C111.986 38.4324 112.182 38.5706 112.399 38.6666C112.616 38.7625 112.85 38.8142 113.087 38.8186H113.115C113.585 38.8172 114.036 38.6306 114.37 38.2991L117.36 35.3078C117.572 35.0955 117.692 34.8075 117.692 34.5072C117.692 34.2069 117.572 33.9189 117.36 33.7065C117.255 33.6013 117.13 33.5178 116.993 33.4608C116.855 33.4039 116.708 33.3745 116.559 33.3745C116.41 33.3745 116.263 33.4039 116.125 33.4608C115.988 33.5178 115.863 33.6013 115.758 33.7065L113.122 36.3429Z" fill="#FF5200"/>
<path d="M113.122 50.1834L112.58 49.6202C112.372 49.4039 112.087 49.279 111.786 49.2731C111.486 49.2671 111.196 49.3806 110.98 49.5885C110.872 49.6916 110.786 49.8147 110.727 49.951C110.667 50.0872 110.635 50.2339 110.632 50.3826C110.629 50.5313 110.655 50.6791 110.71 50.8176C110.764 50.9561 110.845 51.0826 110.948 51.1898L111.823 52.1004C111.986 52.2729 112.182 52.4111 112.399 52.5071C112.616 52.603 112.85 52.6547 113.087 52.6591H113.115C113.585 52.6577 114.036 52.4711 114.37 52.1396L117.36 49.1483C117.572 48.936 117.692 48.648 117.692 48.3477C117.692 48.0474 117.572 47.7594 117.36 47.547C117.255 47.4417 117.13 47.3583 116.993 47.3013C116.855 47.2443 116.708 47.215 116.559 47.215C116.41 47.215 116.263 47.2443 116.125 47.3013C115.988 47.3583 115.863 47.4417 115.758 47.547L113.122 50.1834Z" fill="#FF5200"/>
<rect x="93" y="76" width="133" height="17" rx="3" fill="#FF5200"/>
<path d="M123.842 87.0944C123.348 87.0944 122.898 86.9758 122.492 86.7387C122.085 86.4992 121.765 86.1774 121.53 85.7734C121.298 85.3669 121.181 84.9218 121.181 84.4379C121.181 83.954 121.298 83.5113 121.53 83.1097C121.765 82.7056 122.085 82.3863 122.492 82.1516C122.898 81.9169 123.348 81.7996 123.842 81.7996C124.139 81.7996 124.425 81.8444 124.698 81.9339C124.971 82.0234 125.219 82.1504 125.442 82.3149C125.485 82.3512 125.507 82.3899 125.507 82.431C125.507 82.4649 125.495 82.4976 125.471 82.529L124.778 83.4363C124.746 83.4798 124.708 83.5016 124.662 83.5016C124.633 83.5016 124.6 83.4907 124.564 83.469C124.455 83.3988 124.338 83.3431 124.212 83.302C124.088 83.2585 123.965 83.2367 123.842 83.2367C123.643 83.2367 123.456 83.2899 123.279 83.3964C123.105 83.5028 122.965 83.648 122.858 83.8319C122.754 84.0157 122.702 84.219 122.702 84.4415C122.702 84.6665 122.755 84.8722 122.862 85.0585C122.968 85.2448 123.108 85.3911 123.283 85.4976C123.457 85.604 123.643 85.6573 123.842 85.6573C123.989 85.6573 124.115 85.6415 124.219 85.6101C124.323 85.5762 124.44 85.5133 124.571 85.4214C124.605 85.3972 124.64 85.3851 124.676 85.3851C124.72 85.3851 124.757 85.4069 124.789 85.4504L125.467 86.3649C125.496 86.4012 125.511 86.4363 125.511 86.4702C125.511 86.5065 125.492 86.5391 125.453 86.5681C125.228 86.7375 124.977 86.8681 124.702 86.9601C124.428 87.0496 124.142 87.0944 123.842 87.0944ZM127.53 86.8476C127.53 86.9492 127.48 87 127.381 87H126.282C126.233 87 126.196 86.9867 126.169 86.9601C126.143 86.9335 126.129 86.896 126.129 86.8476V81.4802C126.129 81.4319 126.143 81.3944 126.169 81.3677C126.196 81.3411 126.233 81.3278 126.282 81.3278H127.381C127.48 81.3278 127.53 81.3786 127.53 81.4802V86.8476ZM128.631 82.1698C128.532 82.1698 128.482 82.119 128.482 82.0173V81.0339C128.482 80.9323 128.532 80.8815 128.631 80.8815H129.753C129.854 80.8815 129.905 80.9323 129.905 81.0339V82.0173C129.905 82.119 129.854 82.1698 129.753 82.1698H128.631ZM129.898 86.8476C129.898 86.896 129.885 86.9335 129.858 86.9601C129.831 86.9867 129.794 87 129.745 87H128.635C128.587 87 128.549 86.9867 128.522 86.9601C128.496 86.9335 128.482 86.896 128.482 86.8476V82.7431C128.482 82.644 128.533 82.5944 128.635 82.5944H129.745C129.847 82.5944 129.898 82.644 129.898 82.7431V86.8476ZM134.049 82.7032C134.068 82.6645 134.093 82.6367 134.122 82.6198C134.151 82.6028 134.186 82.5944 134.227 82.5944H135.036C135.138 82.5944 135.189 82.644 135.189 82.7431V88.1359C135.189 88.1843 135.175 88.2218 135.149 88.2484C135.122 88.275 135.085 88.2883 135.036 88.2883H133.926C133.824 88.2883 133.773 88.2375 133.773 88.1359V86.9238C133.514 87.0399 133.219 87.098 132.888 87.098C132.469 87.098 132.082 86.9952 131.726 86.7895C131.371 86.5815 131.089 86.302 130.881 85.9512C130.673 85.6004 130.569 85.2169 130.569 84.8008C130.569 84.3871 130.673 84.006 130.881 83.6577C131.091 83.3069 131.374 83.0298 131.73 82.8266C132.086 82.6234 132.472 82.5218 132.888 82.5218C133.287 82.5218 133.631 82.6198 133.918 82.8157L134.049 82.7032ZM132.913 85.7444C133.09 85.7444 133.249 85.7056 133.392 85.6282C133.537 85.5508 133.651 85.4419 133.733 85.3016C133.818 85.1589 133.86 84.998 133.86 84.819C133.86 84.6399 133.819 84.479 133.737 84.3363C133.655 84.1911 133.542 84.0774 133.399 83.9952C133.257 83.9129 133.098 83.8718 132.924 83.8718C132.747 83.8718 132.588 83.9129 132.445 83.9952C132.302 84.075 132.19 84.1875 132.108 84.3327C132.025 84.4778 131.984 84.6399 131.984 84.819C131.984 85.0004 132.024 85.1613 132.104 85.3016C132.184 85.4419 132.294 85.5508 132.434 85.6282C132.577 85.7056 132.737 85.7444 132.913 85.7444ZM139.085 82.7431C139.085 82.644 139.136 82.5944 139.238 82.5944H140.348C140.45 82.5944 140.501 82.644 140.501 82.7431V86.8476C140.501 86.9492 140.45 87 140.348 87H139.506C139.424 87 139.364 86.9625 139.325 86.8875L139.136 86.5754C138.964 86.723 138.757 86.8427 138.516 86.9347C138.276 87.0242 138.052 87.069 137.844 87.069C137.484 87.069 137.168 86.9867 136.897 86.8222C136.626 86.6552 136.417 86.4218 136.269 86.1218C136.122 85.8194 136.048 85.4698 136.048 85.073V82.7431C136.048 82.644 136.099 82.5944 136.2 82.5944H137.311C137.41 82.5944 137.459 82.644 137.459 82.7431V84.9133C137.459 85.0827 137.49 85.2339 137.55 85.3669C137.613 85.4976 137.701 85.5992 137.815 85.6718C137.931 85.7444 138.064 85.7806 138.214 85.7806C138.379 85.7806 138.528 85.7419 138.661 85.6645C138.794 85.5871 138.898 85.4879 138.973 85.3669C139.048 85.2435 139.085 85.1153 139.085 84.9823V82.7431ZM143.481 87.1125C143.031 87.1125 142.629 87.0097 142.276 86.804C141.925 86.596 141.652 86.3177 141.456 85.9694C141.26 85.6185 141.162 85.2363 141.162 84.8226C141.162 84.4065 141.255 84.023 141.441 83.6722C141.63 83.3214 141.893 83.0419 142.229 82.8339C142.568 82.6258 142.952 82.5218 143.383 82.5218C143.852 82.5218 144.256 82.6198 144.595 82.8157C144.936 83.0117 145.196 83.2827 145.375 83.6286C145.554 83.9746 145.644 84.3702 145.644 84.8153C145.644 84.9387 145.638 85.05 145.626 85.1492C145.616 85.246 145.563 85.2944 145.466 85.2944H142.617C142.704 85.4806 142.829 85.6222 142.991 85.719C143.153 85.8133 143.336 85.8605 143.539 85.8605C143.677 85.8605 143.799 85.8423 143.905 85.806C144.014 85.7698 144.123 85.7165 144.232 85.6464C144.263 85.6222 144.296 85.6101 144.33 85.6101C144.371 85.6101 144.407 85.6331 144.439 85.679L144.965 86.4266C144.987 86.4581 144.998 86.4895 144.998 86.521C144.998 86.5669 144.977 86.6056 144.936 86.6371C144.735 86.7871 144.513 86.9044 144.268 86.9891C144.024 87.0714 143.761 87.1125 143.481 87.1125ZM144.247 84.271C144.176 84.0871 144.071 83.9504 143.931 83.8609C143.79 83.769 143.624 83.723 143.43 83.723C143.236 83.723 143.068 83.769 142.926 83.8609C142.785 83.9528 142.678 84.0895 142.603 84.271H144.247ZM150.079 87.1125C149.629 87.1125 149.228 87.0097 148.874 86.804C148.524 86.596 148.25 86.3177 148.054 85.9694C147.858 85.6185 147.76 85.2363 147.76 84.8226C147.76 84.4065 147.853 84.023 148.04 83.6722C148.228 83.3214 148.491 83.0419 148.827 82.8339C149.166 82.6258 149.551 82.5218 149.981 82.5218C150.451 82.5218 150.855 82.6198 151.193 82.8157C151.534 83.0117 151.795 83.2827 151.974 83.6286C152.153 83.9746 152.242 84.3702 152.242 84.8153C152.242 84.9387 152.236 85.05 152.224 85.1492C152.214 85.246 152.161 85.2944 152.064 85.2944H149.215C149.303 85.4806 149.427 85.6222 149.589 85.719C149.751 85.8133 149.934 85.8605 150.137 85.8605C150.275 85.8605 150.397 85.8423 150.504 85.806C150.613 85.7698 150.722 85.7165 150.83 85.6464C150.862 85.6222 150.895 85.6101 150.928 85.6101C150.97 85.6101 151.006 85.6331 151.037 85.679L151.563 86.4266C151.585 86.4581 151.596 86.4895 151.596 86.521C151.596 86.5669 151.576 86.6056 151.534 86.6371C151.334 86.7871 151.111 86.9044 150.867 86.9891C150.622 87.0714 150.36 87.1125 150.079 87.1125ZM150.845 84.271C150.775 84.0871 150.67 83.9504 150.529 83.8609C150.389 83.769 150.222 83.723 150.028 83.723C149.835 83.723 149.667 83.769 149.524 83.8609C149.384 83.9528 149.276 84.0895 149.201 84.271H150.845ZM156.22 87.1125C155.867 87.1125 155.545 87.0544 155.255 86.9383C154.965 86.8222 154.686 86.6468 154.42 86.4121C154.382 86.3758 154.362 86.3395 154.362 86.3032C154.362 86.2718 154.376 86.2367 154.402 86.198L154.936 85.5157C154.97 85.4722 155.006 85.4504 155.045 85.4504C155.078 85.4504 155.113 85.4649 155.15 85.494C155.3 85.598 155.467 85.6839 155.651 85.7516C155.837 85.8194 156.013 85.8532 156.18 85.8532C156.263 85.8532 156.326 85.8435 156.369 85.8242C156.413 85.8024 156.434 85.7661 156.434 85.7153C156.434 85.6621 156.392 85.6065 156.307 85.5484C156.225 85.4879 156.059 85.4141 155.81 85.327C155.445 85.1988 155.144 85.027 154.907 84.8117C154.67 84.594 154.551 84.2927 154.551 83.9081C154.551 83.6637 154.611 83.4363 154.732 83.2258C154.856 83.0153 155.042 82.846 155.291 82.7177C155.54 82.5871 155.847 82.5218 156.209 82.5218C156.456 82.5218 156.71 82.5714 156.972 82.6706C157.233 82.7698 157.465 82.9198 157.668 83.1206C157.7 83.152 157.715 83.1859 157.715 83.2222C157.715 83.2609 157.699 83.2972 157.665 83.331L156.99 84.0315C156.958 84.0653 156.924 84.0823 156.888 84.0823C156.852 84.0823 156.814 84.0665 156.776 84.0351C156.693 83.9698 156.597 83.9153 156.485 83.8718C156.376 83.8282 156.268 83.8065 156.159 83.8065C155.989 83.8065 155.905 83.856 155.905 83.9552C155.905 83.9915 155.925 84.0266 155.966 84.0605C156.007 84.0919 156.074 84.127 156.166 84.1657C156.26 84.202 156.395 84.2492 156.569 84.3073C156.965 84.4379 157.268 84.6097 157.476 84.8226C157.686 85.0355 157.792 85.327 157.792 85.6972C157.792 85.9391 157.73 86.169 157.607 86.3867C157.486 86.602 157.307 86.7774 157.07 86.9129C156.832 87.046 156.549 87.1125 156.22 87.1125ZM161.662 82.7032C161.681 82.6645 161.706 82.6367 161.735 82.6198C161.764 82.6028 161.799 82.5944 161.84 82.5944H162.649C162.751 82.5944 162.802 82.644 162.802 82.7431V86.8476C162.802 86.896 162.788 86.9335 162.762 86.9601C162.735 86.9867 162.698 87 162.649 87H161.807C161.727 87 161.668 86.9625 161.629 86.8875L161.517 86.8149C161.229 87.0036 160.89 87.098 160.501 87.098C160.082 87.098 159.695 86.9952 159.34 86.7895C158.984 86.5815 158.702 86.302 158.494 85.9512C158.286 85.6004 158.182 85.2169 158.182 84.8008C158.182 84.3871 158.286 84.006 158.494 83.6577C158.704 83.3069 158.988 83.0298 159.343 82.8266C159.699 82.6234 160.085 82.5218 160.501 82.5218C160.9 82.5218 161.244 82.6198 161.531 82.8157L161.662 82.7032ZM160.526 85.7444C160.703 85.7444 160.863 85.7056 161.005 85.6282C161.15 85.5508 161.264 85.4419 161.346 85.3016C161.431 85.1589 161.473 84.998 161.473 84.819C161.473 84.6399 161.432 84.479 161.35 84.3363C161.268 84.1911 161.155 84.0774 161.013 83.9952C160.87 83.9129 160.711 83.8718 160.537 83.8718C160.361 83.8718 160.201 83.9129 160.058 83.9952C159.915 84.075 159.803 84.1875 159.721 84.3327C159.638 84.4778 159.597 84.6399 159.597 84.819C159.597 85.0004 159.637 85.1613 159.717 85.3016C159.797 85.4419 159.907 85.5508 160.047 85.6282C160.19 85.7056 160.35 85.7444 160.526 85.7444ZM163.904 82.1698C163.805 82.1698 163.755 82.119 163.755 82.0173V81.0339C163.755 80.9323 163.805 80.8815 163.904 80.8815H165.025C165.127 80.8815 165.178 80.9323 165.178 81.0339V82.0173C165.178 82.119 165.127 82.1698 165.025 82.1698H163.904ZM165.171 86.8476C165.171 86.896 165.157 86.9335 165.131 86.9601C165.104 86.9867 165.066 87 165.018 87H163.908C163.859 87 163.822 86.9867 163.795 86.9601C163.768 86.9335 163.755 86.896 163.755 86.8476V82.7431C163.755 82.644 163.806 82.5944 163.908 82.5944H165.018C165.12 82.5944 165.171 82.644 165.171 82.7431V86.8476ZM168.429 82.5218C168.845 82.5218 169.231 82.6234 169.587 82.8266C169.942 83.0298 170.224 83.3069 170.432 83.6577C170.643 84.006 170.748 84.3871 170.748 84.8008C170.748 85.2169 170.644 85.6004 170.436 85.9512C170.228 86.302 169.946 86.5815 169.59 86.7895C169.235 86.9952 168.848 87.098 168.429 87.098C168.04 87.098 167.701 87.0036 167.413 86.8149L167.3 86.8875C167.262 86.9625 167.202 87 167.123 87H166.281C166.232 87 166.195 86.9867 166.168 86.9601C166.142 86.9335 166.128 86.896 166.128 86.8476V81.4694C166.128 81.3702 166.179 81.3206 166.281 81.3206H167.388C167.489 81.3206 167.54 81.3702 167.54 81.4694V82.696C167.668 82.6379 167.804 82.5944 167.946 82.5653C168.092 82.5363 168.252 82.5218 168.429 82.5218ZM168.404 85.7444C168.58 85.7444 168.739 85.7056 168.879 85.6282C169.022 85.5508 169.133 85.4419 169.213 85.3016C169.293 85.1613 169.333 85.0004 169.333 84.819C169.333 84.6399 169.292 84.4778 169.209 84.3327C169.127 84.1875 169.015 84.075 168.872 83.9952C168.729 83.9129 168.569 83.8718 168.393 83.8718C168.219 83.8718 168.06 83.9129 167.917 83.9952C167.775 84.0774 167.662 84.1911 167.58 84.3363C167.498 84.479 167.456 84.6399 167.456 84.819C167.456 84.998 167.498 85.1589 167.58 85.3016C167.665 85.4419 167.778 85.5508 167.921 85.6282C168.066 85.7056 168.227 85.7444 168.404 85.7444ZM174.602 82.7032C174.621 82.6645 174.645 82.6367 174.674 82.6198C174.703 82.6028 174.739 82.5944 174.78 82.5944H175.589C175.691 82.5944 175.741 82.644 175.741 82.7431V86.8476C175.741 86.896 175.728 86.9335 175.701 86.9601C175.675 86.9867 175.637 87 175.589 87H174.747C174.667 87 174.608 86.9625 174.569 86.8875L174.457 86.8149C174.169 87.0036 173.83 87.098 173.441 87.098C173.022 87.098 172.635 86.9952 172.279 86.7895C171.924 86.5815 171.642 86.302 171.434 85.9512C171.226 85.6004 171.122 85.2169 171.122 84.8008C171.122 84.3871 171.226 84.006 171.434 83.6577C171.644 83.3069 171.927 83.0298 172.283 82.8266C172.639 82.6234 173.024 82.5218 173.441 82.5218C173.84 82.5218 174.183 82.6198 174.471 82.8157L174.602 82.7032ZM173.466 85.7444C173.643 85.7444 173.802 85.7056 173.945 85.6282C174.09 85.5508 174.204 85.4419 174.286 85.3016C174.371 85.1589 174.413 84.998 174.413 84.819C174.413 84.6399 174.372 84.479 174.29 84.3363C174.207 84.1911 174.095 84.0774 173.952 83.9952C173.809 83.9129 173.651 83.8718 173.477 83.8718C173.3 83.8718 173.141 83.9129 172.998 83.9952C172.855 84.075 172.743 84.1875 172.66 84.3327C172.578 84.4778 172.537 84.6399 172.537 84.819C172.537 85.0004 172.577 85.1613 172.657 85.3016C172.736 85.4419 172.847 85.5508 172.987 85.6282C173.13 85.7056 173.289 85.7444 173.466 85.7444ZM183.755 82.4782C184.089 82.4782 184.378 82.5556 184.623 82.7105C184.869 82.8653 185.059 83.0976 185.192 83.4073C185.328 83.7145 185.396 84.0919 185.396 84.5395V86.8476C185.396 86.9492 185.345 87 185.243 87H184.133C184.084 87 184.047 86.9867 184.02 86.9601C183.994 86.9335 183.98 86.896 183.98 86.8476V84.5831C183.98 84.3411 183.927 84.1524 183.821 84.0169C183.714 83.8815 183.558 83.8137 183.352 83.8137C183.217 83.8137 183.097 83.8464 182.993 83.9117C182.889 83.977 182.806 84.0641 182.743 84.173C182.68 84.2794 182.641 84.3944 182.627 84.5177V86.8476C182.627 86.896 182.613 86.9335 182.587 86.9601C182.56 86.9867 182.523 87 182.474 87H181.364C181.262 87 181.211 86.9492 181.211 86.8476V84.5831C181.211 84.3411 181.158 84.1524 181.052 84.0169C180.945 83.8815 180.789 83.8137 180.584 83.8137C180.438 83.8137 180.31 83.8524 180.199 83.9298C180.088 84.0073 180.002 84.1089 179.941 84.2347C179.881 84.3581 179.85 84.4887 179.85 84.6266V86.8476C179.85 86.896 179.837 86.9335 179.811 86.9601C179.784 86.9867 179.746 87 179.698 87H178.588C178.539 87 178.502 86.9867 178.475 86.9601C178.448 86.9335 178.435 86.896 178.435 86.8476V82.7431C178.435 82.644 178.486 82.5944 178.588 82.5944H179.433C179.477 82.5944 179.512 82.6028 179.538 82.6198C179.567 82.6367 179.592 82.6645 179.611 82.7032L179.727 82.8665C180.097 82.6077 180.516 82.4782 180.983 82.4782C181.256 82.4782 181.5 82.529 181.716 82.6306C181.934 82.7323 182.116 82.8847 182.264 83.0879C182.67 82.6815 183.167 82.4782 183.755 82.4782ZM189.447 82.7032C189.466 82.6645 189.49 82.6367 189.519 82.6198C189.548 82.6028 189.583 82.5944 189.624 82.5944H190.434C190.535 82.5944 190.586 82.644 190.586 82.7431V86.8476C190.586 86.896 190.573 86.9335 190.546 86.9601C190.52 86.9867 190.482 87 190.434 87H189.592C189.512 87 189.453 86.9625 189.414 86.8875L189.301 86.8149C189.013 87.0036 188.675 87.098 188.285 87.098C187.867 87.098 187.48 86.9952 187.124 86.7895C186.768 86.5815 186.486 86.302 186.278 85.9512C186.07 85.6004 185.966 85.2169 185.966 84.8008C185.966 84.3871 186.07 84.006 186.278 83.6577C186.489 83.3069 186.772 83.0298 187.128 82.8266C187.483 82.6234 187.869 82.5218 188.285 82.5218C188.684 82.5218 189.028 82.6198 189.316 82.8157L189.447 82.7032ZM188.311 85.7444C188.487 85.7444 188.647 85.7056 188.79 85.6282C188.935 85.5508 189.049 85.4419 189.131 85.3016C189.215 85.1589 189.258 84.998 189.258 84.819C189.258 84.6399 189.217 84.479 189.134 84.3363C189.052 84.1911 188.94 84.0774 188.797 83.9952C188.654 83.9129 188.496 83.8718 188.322 83.8718C188.145 83.8718 187.985 83.9129 187.843 83.9952C187.7 84.075 187.587 84.1875 187.505 84.3327C187.423 84.4778 187.382 84.6399 187.382 84.819C187.382 85.0004 187.422 85.1613 187.501 85.3016C187.581 85.4419 187.691 85.5508 187.832 85.6282C187.974 85.7056 188.134 85.7444 188.311 85.7444ZM191.688 82.1698C191.589 82.1698 191.54 82.119 191.54 82.0173V81.0339C191.54 80.9323 191.589 80.8815 191.688 80.8815H192.81C192.911 80.8815 192.962 80.9323 192.962 81.0339V82.0173C192.962 82.119 192.911 82.1698 192.81 82.1698H191.688ZM192.955 86.8476C192.955 86.896 192.942 86.9335 192.915 86.9601C192.888 86.9867 192.851 87 192.803 87H191.692C191.644 87 191.606 86.9867 191.58 86.9601C191.553 86.9335 191.54 86.896 191.54 86.8476V82.7431C191.54 82.644 191.59 82.5944 191.692 82.5944H192.803C192.904 82.5944 192.955 82.644 192.955 82.7431V86.8476ZM195.488 87.1125C195.134 87.1125 194.813 87.0544 194.522 86.9383C194.232 86.8222 193.954 86.6468 193.688 86.4121C193.649 86.3758 193.63 86.3395 193.63 86.3032C193.63 86.2718 193.643 86.2367 193.67 86.198L194.203 85.5157C194.237 85.4722 194.273 85.4504 194.312 85.4504C194.346 85.4504 194.381 85.4649 194.417 85.494C194.567 85.598 194.734 85.6839 194.918 85.7516C195.104 85.8194 195.281 85.8532 195.448 85.8532C195.53 85.8532 195.593 85.8435 195.636 85.8242C195.68 85.8024 195.702 85.7661 195.702 85.7153C195.702 85.6621 195.659 85.6065 195.575 85.5484C195.493 85.4879 195.327 85.4141 195.078 85.327C194.712 85.1988 194.411 85.027 194.174 84.8117C193.937 84.594 193.818 84.2927 193.818 83.9081C193.818 83.6637 193.879 83.4363 194 83.2258C194.123 83.0153 194.309 82.846 194.559 82.7177C194.808 82.5871 195.114 82.5218 195.477 82.5218C195.724 82.5218 195.978 82.5714 196.239 82.6706C196.5 82.7698 196.732 82.9198 196.936 83.1206C196.967 83.152 196.983 83.1859 196.983 83.2222C196.983 83.2609 196.966 83.2972 196.932 83.331L196.257 84.0315C196.226 84.0653 196.192 84.0823 196.155 84.0823C196.119 84.0823 196.082 84.0665 196.043 84.0351C195.961 83.9698 195.864 83.9153 195.753 83.8718C195.644 83.8282 195.535 83.8065 195.426 83.8065C195.257 83.8065 195.172 83.856 195.172 83.9552C195.172 83.9915 195.193 84.0266 195.234 84.0605C195.275 84.0919 195.341 84.127 195.433 84.1657C195.528 84.202 195.662 84.2492 195.836 84.3073C196.233 84.4379 196.535 84.6097 196.743 84.8226C196.954 85.0355 197.059 85.327 197.059 85.6972C197.059 85.9391 196.997 86.169 196.874 86.3867C196.753 86.602 196.574 86.7774 196.337 86.9129C196.1 87.046 195.817 87.1125 195.488 87.1125Z" fill="#FFFFD6"/>
</svg>
