<svg width="70" height="71" viewBox="0 0 70 71" fill="none" xmlns="http://www.w3.org/2000/svg">
<g clip-path="url(#clip0_2003_31)">
<path d="M65.3429 48.4106C64.771 48.4109 64.2047 48.2985 63.6762 48.0798C63.1478 47.8612 62.6676 47.5406 62.2631 47.1363C58.4498 43.3303 53.2823 41.1927 47.8947 41.1927C42.507 41.1927 37.3395 43.3303 33.5262 47.1363C32.7083 47.9528 31.5995 48.4108 30.4438 48.4097C29.2881 48.4086 28.1802 47.9485 27.3638 47.1305C26.5473 46.3126 26.0893 45.2038 26.0904 44.0481C26.0915 42.8924 26.5516 41.7845 27.3696 40.9681C32.8166 35.5309 40.1984 32.4772 47.8947 32.4772C55.5909 32.4772 62.9727 35.5309 68.4197 40.9681C69.0279 41.577 69.442 42.3525 69.6097 43.1966C69.7773 44.0407 69.6911 44.9155 69.3619 45.7107C69.0327 46.5058 68.4752 47.1855 67.7599 47.664C67.0445 48.1425 66.2035 48.3983 65.3429 48.399V48.4106ZM58.1558 57.409C58.5604 57.0047 58.8813 56.5246 59.1003 55.9961C59.3193 55.4677 59.432 54.9013 59.432 54.3293C59.432 53.7572 59.3193 53.1908 59.1003 52.6624C58.8813 52.1339 58.5604 51.6538 58.1558 51.2495C55.4341 48.5286 51.7431 47.0001 47.8947 47.0001C44.0462 47.0001 40.3553 48.5286 37.6336 51.2495C37.2291 51.6537 36.9083 52.1337 36.6893 52.6619C36.4704 53.1902 36.3576 53.7564 36.3575 54.3282C36.3573 54.9001 36.4698 55.4663 36.6885 55.9947C36.9072 56.523 37.2279 57.0031 37.6321 57.4076C38.4485 58.2244 39.556 58.6834 40.7109 58.6837C41.2827 58.6838 41.849 58.5713 42.3773 58.3526C42.9057 58.1339 43.3858 57.8133 43.7902 57.409C44.8964 56.3543 46.3662 55.7658 47.8947 55.7658C49.4231 55.7658 50.8929 56.3543 51.9991 57.409C52.8156 58.2253 53.9229 58.6839 55.0774 58.6839C56.232 58.6839 57.3392 58.2253 58.1558 57.409V57.409ZM47.8947 61.5773C47.0335 61.5773 46.1917 61.8327 45.4757 62.3111C44.7596 62.7896 44.2016 63.4696 43.872 64.2652C43.5425 65.0608 43.4562 65.9362 43.6243 66.7808C43.7923 67.6255 44.2069 68.4013 44.8159 69.0102C45.4248 69.6191 46.2006 70.0338 47.0452 70.2018C47.8898 70.3698 48.7653 70.2836 49.5609 69.954C50.3565 69.6245 51.0365 69.0664 51.5149 68.3504C51.9934 67.6344 52.2487 66.7926 52.2487 65.9314C52.2487 64.7766 51.79 63.6692 50.9735 62.8526C50.1569 62.0361 49.0494 61.5773 47.8947 61.5773ZM30.4784 60.126C30.4784 58.9712 30.0197 57.8637 29.2031 57.0472C28.3866 56.2306 27.2791 55.7719 26.1243 55.7719H17.3233C15.4783 55.827 13.6656 55.2794 12.1597 54.2119C10.6539 53.1445 9.53691 51.6154 8.97799 49.8562C8.52458 48.0801 8.69324 46.2023 9.45589 44.5355C10.2185 42.8686 11.5292 41.5133 13.1695 40.6952C14.8478 39.7899 16.0991 38.2567 16.6496 36.431C17.2001 34.6053 17.0051 32.6359 16.1071 30.9537C14.6099 27.9977 14.144 24.626 14.7834 21.3748C15.3295 18.366 16.8024 15.6032 18.9962 13.4729C21.19 11.3426 23.9949 9.95143 27.0183 9.49396C29.0053 9.19351 31.0323 9.2924 32.9806 9.78484C34.9289 10.2773 36.7594 11.1534 38.3651 12.3618C39.9437 13.5479 41.2701 15.0367 42.2669 16.7412C43.2637 18.4457 43.9108 20.3317 44.1705 22.2891C44.2978 23.2361 44.7331 24.1149 45.4093 24.79C46.0855 25.4651 46.9649 25.899 47.9121 26.0249C50.1975 26.3233 52.383 27.1458 54.298 28.4284C55.2604 29.0689 56.4377 29.3009 57.5711 29.0733C58.7044 28.8458 59.701 28.1773 60.3415 27.215C60.982 26.2527 61.214 25.0754 60.9865 23.942C60.7589 22.8086 60.0905 21.8121 59.1282 21.1716C56.995 19.7624 54.6499 18.704 52.182 18.0366C50.8057 12.9999 47.7919 8.56462 43.6161 5.43016C41.0959 3.52258 38.2205 2.13696 35.1581 1.35444C32.0958 0.57191 28.9082 0.408203 25.7818 0.872899C20.9627 1.58741 16.4873 3.79014 12.9816 7.17306C9.47584 10.556 7.11497 14.9499 6.22912 19.7405C5.30816 24.4598 5.85624 29.348 7.79949 33.7461C4.81338 35.6371 2.50281 38.4251 1.19914 41.7103C-0.104535 44.9956 -0.334332 48.6093 0.542703 52.0332C1.56841 55.6722 3.77216 58.8681 6.80875 61.1205C9.84535 63.3729 13.5433 64.5544 17.3233 64.4801H26.1243C27.2791 64.4801 28.3866 64.0213 29.2031 63.2048C30.0197 62.3882 30.4784 61.2808 30.4784 60.126Z" fill="#FFFFFF"/>
</g>
<defs>
<clipPath id="clip0_2003_31">
<rect width="69.6651" height="69.6651" fill="white" transform="translate(0 0.622375)"/>
</clipPath>
</defs>
</svg>
