<svg width="372" height="122" viewBox="0 0 372 122" fill="none" xmlns="http://www.w3.org/2000/svg">
<rect x="0.668213" width="370.663" height="121.223" rx="12.975" fill="#FFFFD6"/>
<path d="M24.7472 15.78H28.5937C30.4849 15.78 31.7884 17.0387 31.7884 18.9364C31.7884 20.8277 30.4402 22.0928 28.4978 22.0928H26.6768V25H24.7472V15.78ZM26.6768 17.3071V20.5849H28.0761C29.1815 20.5849 29.8268 19.997 29.8268 18.9428C29.8268 17.8949 29.1879 17.3071 28.0825 17.3071H26.6768ZM32.8427 25V15.3391H34.7084V25H32.8427ZM38.7146 23.7221C39.5772 23.7221 40.2672 23.1854 40.2672 22.4187V21.9011L38.7912 22.0033C38.0117 22.0545 37.5964 22.3612 37.5964 22.8787C37.5964 23.3962 38.0373 23.7221 38.7146 23.7221ZM38.1076 25.0831C36.753 25.0831 35.7371 24.2333 35.7371 22.9745C35.7371 21.6966 36.7147 20.9746 38.5101 20.866L40.2672 20.7574V20.291C40.2672 19.6137 39.8008 19.2431 39.034 19.2431C38.3568 19.2431 37.8839 19.6009 37.7945 20.1121H36.0885C36.1396 18.7703 37.3536 17.8438 39.1107 17.8438C40.9189 17.8438 42.101 18.7703 42.101 20.176V25H40.2992V23.9138H40.2608C39.8775 24.6486 39.0085 25.0831 38.1076 25.0831ZM43.3597 25V17.9652H45.1615V19.2239H45.1999C45.6024 18.3358 46.318 17.863 47.3979 17.863C48.9569 17.863 49.8386 18.8469 49.8386 20.489V25H47.9729V20.8788C47.9729 19.9459 47.5384 19.4156 46.6567 19.4156C45.7622 19.4156 45.2254 20.0546 45.2254 20.9874V25H43.3597ZM54.2857 25.1214C52.1516 25.1214 50.8162 23.7541 50.8162 21.4794C50.8162 19.2303 52.1708 17.8438 54.2857 17.8438C56.407 17.8438 57.7552 19.2239 57.7552 21.4794C57.7552 23.7604 56.4198 25.1214 54.2857 25.1214ZM54.2857 23.6838C55.2697 23.6838 55.8575 22.8787 55.8575 21.4794C55.8575 20.0929 55.2633 19.275 54.2857 19.275C53.3017 19.275 52.7075 20.0993 52.7075 21.4794C52.7075 22.8787 53.3017 23.6838 54.2857 23.6838Z" fill="black"/>
<path d="M65.7803 25.1597C63.0968 25.1597 61.4163 23.3643 61.4163 20.3868C61.4163 17.4157 63.1096 15.6203 65.7803 15.6203C67.9975 15.6203 69.6843 17.0259 69.8313 19.0897H67.9528C67.7739 17.9588 66.9049 17.2176 65.7803 17.2176C64.3236 17.2176 63.3843 18.438 63.3843 20.3804C63.3843 22.3484 64.3108 23.5624 65.7867 23.5624C66.9305 23.5624 67.7547 22.8915 67.9592 21.7989H69.8377C69.6204 23.8563 68.0422 25.1597 65.7803 25.1597ZM74.1058 25.1214C71.9717 25.1214 70.6363 23.7541 70.6363 21.4794C70.6363 19.2303 71.9909 17.8438 74.1058 17.8438C76.2271 17.8438 77.5753 19.2239 77.5753 21.4794C77.5753 23.7604 76.2399 25.1214 74.1058 25.1214ZM74.1058 23.6838C75.0898 23.6838 75.6776 22.8787 75.6776 21.4794C75.6776 20.0929 75.0834 19.275 74.1058 19.275C73.1218 19.275 72.5276 20.0993 72.5276 21.4794C72.5276 22.8787 73.1218 23.6838 74.1058 23.6838ZM78.5784 25V17.9652H80.3803V19.2431H80.4186C80.7189 18.3933 81.4857 17.863 82.4249 17.863C83.4344 17.863 84.1501 18.3805 84.3865 19.3006H84.4248C84.7443 18.4189 85.5877 17.863 86.61 17.863C87.9901 17.863 88.9166 18.8022 88.9166 20.2207V25H87.0509V20.6871C87.0509 19.8629 86.6356 19.4092 85.8752 19.4092C85.1404 19.4092 84.6484 19.9459 84.6484 20.7446V25H82.8466V20.6168C82.8466 19.8629 82.4121 19.4092 81.6901 19.4092C80.9553 19.4092 80.4442 19.9715 80.4442 20.7702V25H78.5784ZM94.2199 17.8821C96.0025 17.8821 97.1079 19.2431 97.1079 21.4794C97.1079 23.7157 96.0089 25.0831 94.2454 25.0831C93.2295 25.0831 92.4436 24.6166 92.0602 23.8179H92.0219V27.3002H90.1562V17.9652H91.9963V19.1664H92.0347C92.4052 18.3741 93.2295 17.8821 94.2199 17.8821ZM93.6001 23.5751C94.5649 23.5751 95.1974 22.7573 95.1974 21.4794C95.1974 20.2143 94.5649 19.39 93.6001 19.39C92.648 19.39 92.0155 20.2271 92.0155 21.4858C92.0155 22.7509 92.648 23.5751 93.6001 23.5751ZM98.1558 25V15.3391H100.021V25H98.1558ZM104.475 19.2367C103.625 19.2367 102.999 19.8565 102.935 20.7574H105.97C105.938 19.8373 105.338 19.2367 104.475 19.2367ZM105.996 22.8531H107.714C107.51 24.2141 106.238 25.1214 104.526 25.1214C102.386 25.1214 101.076 23.7477 101.076 21.5114C101.076 19.275 102.392 17.8438 104.456 17.8438C106.481 17.8438 107.772 19.1984 107.772 21.3388V21.9139H102.916V22.0289C102.916 23.0448 103.574 23.7285 104.558 23.7285C105.261 23.7285 105.817 23.3962 105.996 22.8531ZM109.273 16.3998H111.139V17.9652H112.443V19.3773H111.139V22.7956C111.139 23.3387 111.408 23.6007 111.976 23.6007C112.142 23.6007 112.328 23.5879 112.443 23.5688V24.9489C112.251 24.9872 111.919 25.0256 111.542 25.0256C109.912 25.0256 109.273 24.4761 109.273 23.1023V19.3773H108.321V17.9652H109.273V16.3998ZM116.621 25.1214C114.487 25.1214 113.152 23.7541 113.152 21.4794C113.152 19.2303 114.506 17.8438 116.621 17.8438C118.743 17.8438 120.091 19.2239 120.091 21.4794C120.091 23.7604 118.755 25.1214 116.621 25.1214ZM116.621 23.6838C117.605 23.6838 118.193 22.8787 118.193 21.4794C118.193 20.0929 117.599 19.275 116.621 19.275C115.637 19.275 115.043 20.0993 115.043 21.4794C115.043 22.8787 115.637 23.6838 116.621 23.6838Z" fill="#FF5200"/>
<path d="M87.068 63.6527V73.3439H85.2614V66.8025H85.2077L82.575 73.2499H81.299L78.6663 66.8025H78.6125V73.3439H76.8059V63.6527H79.1565L81.9101 70.5232H81.9639L84.7174 63.6527H87.068ZM91.8364 67.2861C90.9432 67.2861 90.285 67.9375 90.2179 68.8845H93.408C93.3744 67.9174 92.7431 67.2861 91.8364 67.2861ZM93.4349 71.0873H95.2415C95.0266 72.5179 93.6901 73.4715 91.8902 73.4715C89.6403 73.4715 88.2635 72.0276 88.2635 69.677C88.2635 67.3264 89.647 65.822 91.8163 65.822C93.9453 65.822 95.3019 67.2458 95.3019 69.4956V70.1001H90.1977V70.221C90.1977 71.2888 90.8895 72.0074 91.9238 72.0074C92.6625 72.0074 93.2468 71.6582 93.4349 71.0873ZM99.7479 71.7791C100.769 71.7791 101.427 70.9597 101.427 69.6367C101.427 68.3069 100.769 67.4472 99.7479 67.4472C98.7338 67.4472 98.0891 68.2935 98.0891 69.63C98.0891 70.9732 98.7271 71.7791 99.7479 71.7791ZM99.7278 76.0505C97.7869 76.0505 96.4235 75.1976 96.3228 73.8678H98.257C98.3846 74.3581 99.0025 74.667 99.7748 74.667C100.769 74.667 101.42 74.1566 101.42 73.3238V72.0007H101.38C101.024 72.7932 100.158 73.2969 99.0898 73.2969C97.2899 73.2969 96.081 71.9 96.081 69.6232C96.081 67.3062 97.2496 65.8623 99.1234 65.8623C100.184 65.8623 101.024 66.3928 101.414 67.2122H101.447V65.9496H103.381V73.176C103.381 74.9356 101.951 76.0505 99.7278 76.0505ZM107.539 72.0007C108.445 72.0007 109.171 71.4366 109.171 70.6306V70.0866L107.619 70.1941C106.8 70.2478 106.363 70.5702 106.363 71.1142C106.363 71.6582 106.827 72.0007 107.539 72.0007ZM106.901 73.4312C105.477 73.4312 104.409 72.538 104.409 71.2149C104.409 69.8717 105.436 69.1128 107.324 68.9986L109.171 68.8845V68.3942C109.171 67.6823 108.68 67.2928 107.874 67.2928C107.162 67.2928 106.665 67.6689 106.571 68.2062H104.778C104.832 66.7958 106.108 65.822 107.955 65.822C109.856 65.822 111.098 66.7958 111.098 68.2733V73.3439H109.204V72.2022H109.164C108.761 72.9746 107.848 73.4312 106.901 73.4312ZM112.294 68.1256C112.294 66.7353 113.516 65.822 115.39 65.822C117.216 65.822 118.432 66.7555 118.459 68.1659H116.646C116.605 67.5816 116.115 67.2122 115.363 67.2122C114.658 67.2122 114.187 67.5278 114.187 68.0047C114.187 68.3741 114.51 68.6226 115.175 68.777L116.565 69.0792C118.049 69.415 118.64 69.9859 118.64 71.0873C118.64 72.5246 117.317 73.4715 115.383 73.4715C113.435 73.4715 112.213 72.5313 112.112 71.1075H114.026C114.12 71.7321 114.624 72.0813 115.437 72.0813C116.216 72.0813 116.693 71.7791 116.693 71.2955C116.693 70.9127 116.437 70.7112 115.766 70.5501L114.402 70.2411C113.012 69.9255 112.294 69.2068 112.294 68.1256Z" fill="black"/>
<path d="M32.0039 58.9708V35.8296H31.8848L24.5813 40.8707V35.4724L31.9841 30.3321H37.9381V58.9708H32.0039ZM55.5817 59.6059C48.3774 59.6059 43.9913 53.8702 43.9913 44.6018C43.9913 35.3533 48.4171 29.6772 55.5817 29.6772C62.7463 29.6772 67.1523 35.3335 67.1523 44.582C67.1523 53.8305 62.786 59.6059 55.5817 59.6059ZM55.5817 54.803C58.9953 54.803 61.0594 51.1314 61.0594 44.6018C61.0594 38.1318 58.9755 34.48 55.5817 34.48C52.2078 34.48 50.0842 38.1517 50.0842 44.6018C50.0842 51.1115 52.1681 54.803 55.5817 54.803ZM82.0571 59.6059C74.8528 59.6059 70.4667 53.8702 70.4667 44.6018C70.4667 35.3533 74.8924 29.6772 82.0571 29.6772C89.2217 29.6772 93.6276 35.3335 93.6276 44.582C93.6276 53.8305 89.2614 59.6059 82.0571 59.6059ZM82.0571 54.803C85.4707 54.803 87.5347 51.1314 87.5347 44.6018C87.5347 38.1318 85.4508 34.48 82.0571 34.48C78.6831 34.48 76.5596 38.1517 76.5596 44.6018C76.5596 51.1115 78.6435 54.803 82.0571 54.803ZM108.532 59.6059C101.328 59.6059 96.942 53.8702 96.942 44.6018C96.942 35.3533 101.368 29.6772 108.532 29.6772C115.697 29.6772 120.103 35.3335 120.103 44.582C120.103 53.8305 115.737 59.6059 108.532 59.6059ZM108.532 54.803C111.946 54.803 114.01 51.1314 114.01 44.6018C114.01 38.1318 111.926 34.48 108.532 34.48C105.159 34.48 103.035 38.1517 103.035 44.6018C103.035 51.1115 105.119 54.803 108.532 54.803Z" fill="#FF5200"/>
<path d="M298.009 64.0029C299.08 64.0029 299.816 64.8771 299.816 66.1689C299.816 67.4645 299.084 68.3388 298.017 68.3388C297.335 68.3388 296.804 67.9686 296.567 67.4173H296.556V69.6975H296.036V64.0501H296.528V64.9283H296.54C296.764 64.3888 297.335 64.0029 298.009 64.0029ZM297.918 67.8702C298.737 67.8702 299.285 67.1928 299.285 66.1728C299.285 65.1528 298.737 64.4676 297.918 64.4676C297.111 64.4676 296.552 65.1646 296.552 66.1689C296.552 67.181 297.111 67.8702 297.918 67.8702ZM302.254 68.3388C301.089 68.3388 300.328 67.4921 300.328 66.1689C300.328 64.8456 301.089 64.0029 302.254 64.0029C303.42 64.0029 304.184 64.8456 304.184 66.1689C304.184 67.4921 303.42 68.3388 302.254 68.3388ZM302.254 67.8702C303.117 67.8702 303.652 67.2282 303.652 66.1689C303.652 65.1095 303.117 64.4676 302.254 64.4676C301.396 64.4676 300.86 65.1134 300.86 66.1689C300.86 67.2282 301.396 67.8702 302.254 67.8702ZM304.913 68.2916V64.0501H305.401V64.8023H305.417C305.562 64.2982 305.964 64.0029 306.492 64.0029C306.63 64.0029 306.756 64.0265 306.823 64.0462V64.5621C306.752 64.5306 306.602 64.503 306.421 64.503C305.818 64.503 305.432 64.9756 305.432 65.6608V68.2916H304.913ZM309.197 68.2916V64.0501H309.686V64.8417H309.701C309.883 64.3415 310.335 64.0029 310.938 64.0029C311.552 64.0029 312.001 64.3573 312.163 64.8929H312.175C312.375 64.3691 312.88 64.0029 313.517 64.0029C314.345 64.0029 314.888 64.5542 314.888 65.4127V68.2916H314.364V65.5309C314.364 64.8693 313.998 64.4676 313.376 64.4676C312.742 64.4676 312.301 64.9559 312.301 65.6412V68.2916H311.781V65.4797C311.781 64.8732 311.383 64.4676 310.8 64.4676C310.17 64.4676 309.717 64.9756 309.717 65.7042V68.2916H309.197ZM317.672 62.1795L318.747 63.3649H318.247L317.491 62.4985H317.471L316.715 63.3649H316.215L317.29 62.1795H317.672ZM317.475 64.4636C316.715 64.4636 316.18 65.0307 316.132 65.8735H318.771C318.763 65.0307 318.243 64.4636 317.475 64.4636ZM318.743 67.0904H319.259C319.133 67.815 318.436 68.3388 317.515 68.3388C316.341 68.3388 315.593 67.5157 315.593 66.1807C315.593 64.8653 316.341 64.0029 317.483 64.0029C318.598 64.0029 319.315 64.8102 319.315 66.0704V66.2988H316.132V66.3264C316.132 67.2873 316.684 67.8781 317.527 67.8781C318.165 67.8781 318.617 67.5551 318.743 67.0904ZM319.956 65.1922C319.956 64.4912 320.606 64.0029 321.481 64.0029C322.339 64.0029 322.961 64.5148 323.005 65.2434H322.504C322.453 64.7629 322.063 64.4439 321.465 64.4439C320.898 64.4439 320.472 64.7354 320.472 65.1646C320.472 65.5112 320.724 65.712 321.264 65.8459L321.914 66.0035C322.764 66.2161 323.087 66.5233 323.087 67.1259C323.087 67.8426 322.406 68.3388 321.453 68.3388C320.543 68.3388 319.89 67.819 319.83 67.0983H320.358C320.421 67.5827 320.843 67.9017 321.484 67.9017C322.119 67.9017 322.56 67.6103 322.56 67.1613C322.56 66.8029 322.343 66.606 321.768 66.4642L321.051 66.2831C320.319 66.098 319.956 65.7514 319.956 65.1922Z" fill="black"/>
<path d="M282.154 55.6203C276.805 55.6203 272.599 52.4414 271.823 47.8671H277.599C278.162 49.7472 280.003 50.9877 282.251 50.9877C286.109 50.9877 288.454 47.3243 288.299 40.9086C288.28 40.9086 288.241 40.9086 288.241 40.9086H288.202H288.183C287.175 43.6416 284.422 45.483 280.74 45.483C275.467 45.483 271.455 41.5676 271.455 36.2567C271.455 30.4999 275.991 26.3907 282.232 26.3907C286.264 26.3907 289.617 28.1933 291.555 31.5078C293.106 33.8919 293.901 37.032 293.901 40.7729C293.901 50.038 289.52 55.6203 282.154 55.6203ZM282.271 41.083C285.178 41.083 287.388 38.9509 287.388 36.121C287.388 33.2717 285.159 31.062 282.31 31.062C279.441 31.062 277.173 33.2717 277.173 36.0822C277.173 38.9509 279.363 41.083 282.271 41.083ZM307.779 55.6203C302.429 55.6203 298.223 52.4414 297.448 47.8671H303.224C303.786 49.7472 305.627 50.9877 307.876 50.9877C311.733 50.9877 314.078 47.3243 313.923 40.9086C313.904 40.9086 313.865 40.9086 313.865 40.9086H313.826H313.807C312.799 43.6416 310.047 45.483 306.364 45.483C301.092 45.483 297.079 41.5676 297.079 36.2567C297.079 30.4999 301.615 26.3907 307.856 26.3907C311.888 26.3907 315.241 28.1933 317.18 31.5078C318.73 33.8919 319.525 37.032 319.525 40.7729C319.525 50.038 315.144 55.6203 307.779 55.6203ZM307.895 41.083C310.803 41.083 313.012 38.9509 313.012 36.121C313.012 33.2717 310.783 31.062 307.934 31.062C305.065 31.062 302.797 33.2717 302.797 36.0822C302.797 38.9509 304.988 41.083 307.895 41.083Z" fill="#FF5200"/>
<path d="M323.671 43.4896H321.728L322.458 38.733H324.876L323.671 43.4896ZM331.435 41.3883C329.008 41.3883 327.1 39.9464 326.749 37.8714H329.369C329.624 38.7242 330.459 39.2869 331.479 39.2869C333.229 39.2869 334.292 37.6252 334.222 34.7149C334.213 34.7149 334.196 34.7149 334.196 34.7149H334.178H334.169C333.712 35.9547 332.464 36.7899 330.793 36.7899C328.402 36.7899 326.582 35.0139 326.582 32.6048C326.582 29.9935 328.639 28.1295 331.47 28.1295C333.299 28.1295 334.82 28.9472 335.699 30.4507C336.403 31.5321 336.763 32.9565 336.763 34.6534C336.763 38.8561 334.776 41.3883 331.435 41.3883ZM331.488 34.7941C332.807 34.7941 333.809 33.8269 333.809 32.5433C333.809 31.2508 332.798 30.2485 331.505 30.2485C330.204 30.2485 329.175 31.2508 329.175 32.5257C329.175 33.8269 330.169 34.7941 331.488 34.7941ZM343.058 41.3883C340.632 41.3883 338.724 39.9464 338.372 37.8714H340.992C341.247 38.7242 342.082 39.2869 343.102 39.2869C344.852 39.2869 345.916 37.6252 345.846 34.7149C345.837 34.7149 345.819 34.7149 345.819 34.7149H345.802H345.793C345.336 35.9547 344.087 36.7899 342.417 36.7899C340.025 36.7899 338.205 35.0139 338.205 32.6048C338.205 29.9935 340.262 28.1295 343.094 28.1295C344.922 28.1295 346.443 28.9472 347.323 30.4507C348.026 31.5321 348.387 32.9565 348.387 34.6534C348.387 38.8561 346.399 41.3883 343.058 41.3883ZM343.111 34.7941C344.43 34.7941 345.432 33.8269 345.432 32.5433C345.432 31.2508 344.421 30.2485 343.129 30.2485C341.827 30.2485 340.799 31.2508 340.799 32.5257C340.799 33.8269 341.792 34.7941 343.111 34.7941Z" fill="#FF5200"/>
<circle cx="321.933" cy="49.6268" r="5.49164" fill="#FFD61F"/>
<path d="M319.504 48.4289V49.6545H320.21C320.615 49.6545 320.852 49.4227 320.852 49.0417C320.852 48.6687 320.601 48.4289 320.202 48.4289H319.504ZM319.504 50.2379V51.6447H318.699V47.8001H320.287C321.172 47.8001 321.678 48.2663 321.678 49.0257C321.678 49.5186 321.422 49.9449 320.98 50.1181L321.79 51.6447H320.879L320.162 50.2379H319.504ZM323.86 52.0097H323.484V51.6687C322.648 51.6207 322.139 51.1998 322.136 50.547H322.898C322.917 50.8241 323.146 51.0266 323.484 51.0639V50.0248L323.202 49.9582C322.56 49.809 322.216 49.4387 322.216 48.8845C322.216 48.2317 322.685 47.8107 323.484 47.7468V47.3818H323.86V47.7495C324.606 47.8161 325.086 48.253 325.096 48.8658H324.355C324.347 48.6127 324.145 48.4049 323.86 48.3649V49.3587L324.145 49.4147C324.827 49.5639 325.168 49.9182 325.168 50.4964C325.168 51.1731 324.697 51.5941 323.86 51.666V52.0097ZM324.414 50.5816C324.414 50.3232 324.238 50.166 323.86 50.0914V51.0666C324.209 51.0452 324.414 50.8641 324.414 50.5816ZM322.986 48.8179C322.986 49.0523 323.159 49.2122 323.484 49.2815V48.3623C323.194 48.3782 322.986 48.5648 322.986 48.8179Z" fill="#FFFFD6"/>
<path d="M145.519 33H144.167V24.2902H145.519V33ZM146.991 33V26.445H148.241V27.5496H148.265C148.663 26.777 149.321 26.3726 150.335 26.3726C151.784 26.3726 152.611 27.29 152.611 28.799V33H151.301V29.0465C151.301 28.0506 150.842 27.4953 149.883 27.4953C148.893 27.4953 148.301 28.1834 148.301 29.2155V33H146.991ZM154.313 24.9723H155.617V26.445H156.872V27.4772H155.617V31.1409C155.617 31.7083 155.87 31.9739 156.419 31.9739C156.558 31.9739 156.782 31.9558 156.866 31.9437V32.9759C156.721 33.0121 156.413 33.0423 156.13 33.0423C154.82 33.0423 154.313 32.5413 154.313 31.2737V27.4772H153.408V26.445H154.313V24.9723ZM160.548 27.4289C159.606 27.4289 158.924 28.117 158.852 29.125H162.178C162.147 28.1049 161.502 27.4289 160.548 27.4289ZM162.172 31.0806H163.421C163.234 32.2576 162.081 33.0785 160.608 33.0785C158.707 33.0785 157.524 31.7989 157.524 29.7466C157.524 27.6944 158.719 26.3605 160.554 26.3605C162.353 26.3605 163.487 27.6099 163.487 29.5958V30.0545H158.846V30.1329C158.846 31.2677 159.558 32.0161 160.632 32.0161C161.393 32.0161 161.991 31.654 162.172 31.0806ZM164.544 33V26.445H165.793V27.5496H165.817C166.023 26.8192 166.626 26.3786 167.399 26.3786C167.592 26.3786 167.755 26.3967 167.857 26.4209V27.6462C167.749 27.6039 167.519 27.5677 167.26 27.5677C166.397 27.5677 165.854 28.1652 165.854 29.0887V33H164.544ZM168.696 33V26.445H169.946V27.5496H169.97C170.368 26.777 171.026 26.3726 172.04 26.3726C173.489 26.3726 174.316 27.29 174.316 28.799V33H173.006V29.0465C173.006 28.0506 172.547 27.4953 171.588 27.4953C170.598 27.4953 170.006 28.1834 170.006 29.2155V33H168.696ZM178.354 27.4289C177.412 27.4289 176.73 28.117 176.658 29.125H179.984C179.953 28.1049 179.308 27.4289 178.354 27.4289ZM179.978 31.0806H181.227C181.04 32.2576 179.887 33.0785 178.414 33.0785C176.513 33.0785 175.33 31.7989 175.33 29.7466C175.33 27.6944 176.525 26.3605 178.36 26.3605C180.159 26.3605 181.293 27.6099 181.293 29.5958V30.0545H176.652V30.1329C176.652 31.2677 177.364 32.0161 178.438 32.0161C179.199 32.0161 179.796 31.654 179.978 31.0806ZM182.742 24.9723H184.046V26.445H185.301V27.4772H184.046V31.1409C184.046 31.7083 184.299 31.9739 184.849 31.9739C184.987 31.9739 185.211 31.9558 185.295 31.9437V32.9759C185.15 33.0121 184.842 33.0423 184.559 33.0423C183.249 33.0423 182.742 32.5413 182.742 31.2737V27.4772H181.837V26.445H182.742V24.9723ZM190.74 33H189.388V24.2902H194.826V25.4551H190.74V28.2135H194.482V29.3543H190.74V33ZM195.918 33V26.445H197.228V33H195.918ZM196.576 25.5094C196.154 25.5094 195.81 25.1714 195.81 24.755C195.81 24.3264 196.154 24.0005 196.576 24.0005C196.999 24.0005 197.343 24.3264 197.343 24.755C197.343 25.1714 196.999 25.5094 196.576 25.5094ZM202.075 33.0664C201.121 33.0664 200.373 32.6439 199.968 31.8894H199.938V33H198.677V23.8979H199.987V27.5315H200.011C200.409 26.7951 201.158 26.3786 202.087 26.3786C203.741 26.3786 204.827 27.6884 204.827 29.7225C204.827 31.7566 203.741 33.0664 202.075 33.0664ZM201.743 27.4892C200.687 27.4892 199.981 28.3946 199.981 29.7225C199.981 31.0564 200.687 31.9558 201.743 31.9558C202.799 31.9558 203.487 31.0806 203.487 29.7225C203.487 28.3644 202.799 27.4892 201.743 27.4892ZM205.878 33V26.445H207.127V27.5496H207.151C207.356 26.8192 207.96 26.3786 208.733 26.3786C208.926 26.3786 209.089 26.3967 209.191 26.4209V27.6462C209.083 27.6039 208.853 27.5677 208.594 27.5677C207.731 27.5677 207.187 28.1652 207.187 29.0887V33H205.878ZM212.173 32.0222C213.145 32.0222 213.881 31.4005 213.881 30.5374V30.0243L212.288 30.1329C211.394 30.1873 210.93 30.5192 210.93 31.0987C210.93 31.66 211.419 32.0222 212.173 32.0222ZM211.823 33.0664C210.513 33.0664 209.608 32.2938 209.608 31.1228C209.608 29.976 210.495 29.3121 212.113 29.2095L213.881 29.1068V28.5998C213.881 27.8514 213.38 27.4409 212.505 27.4409C211.793 27.4409 211.274 27.8091 211.159 28.3765H209.934C209.97 27.2176 211.068 26.3605 212.541 26.3605C214.141 26.3605 215.173 27.2055 215.173 28.5033V33H213.923V31.9075H213.893C213.531 32.6197 212.716 33.0664 211.823 33.0664ZM223.768 23.6383H222.706L224.1 21.8094H225.458L223.768 23.6383ZM223.237 24.1453C225.742 24.1453 227.317 25.8776 227.317 28.6481C227.317 31.4186 225.742 33.1449 223.237 33.1449C220.726 33.1449 219.157 31.4186 219.157 28.6481C219.157 25.8776 220.726 24.1453 223.237 24.1453ZM223.237 25.3344C221.583 25.3344 220.539 26.614 220.539 28.6481C220.539 30.6762 221.583 31.9558 223.237 31.9558C224.891 31.9558 225.929 30.6762 225.929 28.6481C225.929 26.614 224.891 25.3344 223.237 25.3344ZM231.856 26.3786C233.528 26.3786 234.627 27.6884 234.627 29.7225C234.627 31.7506 233.534 33.0664 231.886 33.0664C230.945 33.0664 230.202 32.6499 229.81 31.9256H229.786V35.1729H228.476V26.445H229.738V27.5315H229.768C230.136 26.8253 230.945 26.3786 231.856 26.3786ZM231.524 31.9558C232.586 31.9558 233.287 31.0806 233.287 29.7225C233.287 28.3705 232.586 27.4892 231.524 27.4892C230.486 27.4892 229.78 28.3886 229.774 29.7225C229.78 31.0625 230.48 31.9558 231.524 31.9558ZM236.063 24.9723H237.367V26.445H238.622V27.4772H237.367V31.1409C237.367 31.7083 237.62 31.9739 238.17 31.9739C238.308 31.9739 238.532 31.9558 238.616 31.9437V32.9759C238.471 33.0121 238.164 33.0423 237.88 33.0423C236.57 33.0423 236.063 32.5413 236.063 31.2737V27.4772H235.158V26.445H236.063V24.9723ZM239.775 33V26.445H241.085V33H239.775ZM240.433 25.5094C240.011 25.5094 239.667 25.1714 239.667 24.755C239.667 24.3264 240.011 24.0005 240.433 24.0005C240.856 24.0005 241.2 24.3264 241.2 24.755C241.2 25.1714 240.856 25.5094 240.433 25.5094ZM248.081 28.6843H246.831C246.71 27.9902 246.167 27.4651 245.268 27.4651C244.212 27.4651 243.511 28.3463 243.511 29.7225C243.511 31.1349 244.224 31.9799 245.274 31.9799C246.125 31.9799 246.686 31.5635 246.843 30.7969H248.093C247.942 32.167 246.843 33.0785 245.268 33.0785C243.409 33.0785 242.184 31.7989 242.184 29.7225C242.184 27.6824 243.403 26.3605 245.256 26.3605C246.928 26.3605 247.966 27.4228 248.081 28.6843ZM251.334 32.0222C252.306 32.0222 253.042 31.4005 253.042 30.5374V30.0243L251.449 30.1329C250.555 30.1873 250.091 30.5192 250.091 31.0987C250.091 31.66 250.579 32.0222 251.334 32.0222ZM250.984 33.0664C249.674 33.0664 248.769 32.2938 248.769 31.1228C248.769 29.976 249.656 29.3121 251.274 29.2095L253.042 29.1068V28.5998C253.042 27.8514 252.541 27.4409 251.666 27.4409C250.954 27.4409 250.435 27.8091 250.32 28.3765H249.095C249.131 27.2176 250.229 26.3605 251.702 26.3605C253.302 26.3605 254.334 27.2055 254.334 28.5033V33H253.084V31.9075H253.054C252.692 32.6197 251.877 33.0664 250.984 33.0664Z" fill="black"/>
<path d="M143.78 45.3659H145.114C145.211 46.2291 146.05 46.7964 147.197 46.7964C148.295 46.7964 149.086 46.2291 149.086 45.4504C149.086 44.7744 148.609 44.37 147.48 44.0924L146.352 43.8207C144.752 43.4344 144.01 42.686 144.01 41.4728C144.01 39.9698 145.319 38.9377 147.178 38.9377C149.019 38.9377 150.281 39.9698 150.323 41.4728H149.007C148.929 40.6036 148.211 40.0785 147.16 40.0785C146.11 40.0785 145.392 40.6096 145.392 41.3822C145.392 41.9979 145.851 42.36 146.973 42.6377L147.933 42.8731C149.72 43.2956 150.462 44.0139 150.462 45.2875C150.462 46.9172 149.164 47.9372 147.1 47.9372C145.169 47.9372 143.865 46.9413 143.78 45.3659ZM154.271 42.2212C153.329 42.2212 152.647 42.9093 152.575 43.9173H155.9C155.87 42.8972 155.224 42.2212 154.271 42.2212ZM155.894 45.8729H157.144C156.957 47.0499 155.804 47.8708 154.331 47.8708C152.43 47.8708 151.247 46.5912 151.247 44.539C151.247 42.4868 152.442 41.1529 154.277 41.1529C156.075 41.1529 157.21 42.4023 157.21 44.3881V44.8468H152.569V44.9253C152.569 46.0601 153.281 46.8085 154.355 46.8085C155.116 46.8085 155.713 46.4464 155.894 45.8729ZM158.266 47.7924V41.2374H159.516V42.348H159.54C159.842 41.6116 160.548 41.1649 161.405 41.1649C162.317 41.1649 162.974 41.6237 163.24 42.4385H163.27C163.614 41.6478 164.387 41.1649 165.322 41.1649C166.614 41.1649 167.459 42.016 167.459 43.3258V47.7924H166.155V43.6397C166.155 42.7826 165.691 42.2876 164.876 42.2876C164.073 42.2876 163.506 42.8852 163.506 43.7242V47.7924H162.22V43.531C162.22 42.7705 161.731 42.2876 160.964 42.2876C160.156 42.2876 159.576 42.9153 159.576 43.7724V47.7924H158.266ZM175.517 38.9377C178.022 38.9377 179.597 40.67 179.597 43.4405C179.597 46.211 178.022 47.9372 175.517 47.9372C173.006 47.9372 171.437 46.211 171.437 43.4405C171.437 40.67 173.006 38.9377 175.517 38.9377ZM175.517 40.1268C173.863 40.1268 172.819 41.4064 172.819 43.4405C172.819 45.4685 173.863 46.7481 175.517 46.7481C177.171 46.7481 178.209 45.4685 178.209 43.4405C178.209 41.4064 177.171 40.1268 175.517 40.1268ZM180.599 43.1025C180.599 41.9496 181.631 41.1589 183.14 41.1589C184.577 41.1589 185.615 41.9677 185.645 43.1085H184.414C184.36 42.5291 183.859 42.1669 183.11 42.1669C182.368 42.1669 181.873 42.5109 181.873 43.03C181.873 43.4284 182.199 43.7 182.893 43.869L183.979 44.1286C185.301 44.4485 185.79 44.9253 185.79 45.891C185.79 47.062 184.68 47.8708 183.092 47.8708C181.565 47.8708 180.521 47.0801 180.424 45.8971H181.716C181.818 46.5248 182.326 46.8689 183.158 46.8689C183.973 46.8689 184.486 46.5309 184.486 45.9997C184.486 45.5832 184.227 45.3659 183.539 45.1909L182.368 44.9012C181.185 44.6114 180.599 44.0078 180.599 43.1025ZM192.454 43.4767H191.204C191.084 42.7826 190.54 42.2574 189.641 42.2574C188.585 42.2574 187.885 43.1387 187.885 44.5149C187.885 45.9273 188.597 46.7723 189.647 46.7723C190.498 46.7723 191.059 46.3558 191.216 45.5893H192.466C192.315 46.9594 191.216 47.8708 189.641 47.8708C187.782 47.8708 186.557 46.5912 186.557 44.5149C186.557 42.4747 187.776 41.1529 189.629 41.1529C191.301 41.1529 192.339 42.2152 192.454 43.4767ZM193.48 47.7924V41.2374H194.79V47.7924H193.48ZM194.138 40.3018C193.715 40.3018 193.371 39.9638 193.371 39.5473C193.371 39.1188 193.715 38.7928 194.138 38.7928C194.56 38.7928 194.904 39.1188 194.904 39.5473C194.904 39.9638 194.56 40.3018 194.138 40.3018ZM196.238 47.7924V38.6902H197.548V47.7924H196.238ZM201.224 46.8145C202.196 46.8145 202.932 46.1928 202.932 45.3297V44.8167L201.339 44.9253C200.445 44.9796 199.981 45.3116 199.981 45.891C199.981 46.4524 200.469 46.8145 201.224 46.8145ZM200.874 47.8588C199.564 47.8588 198.659 47.0862 198.659 45.9152C198.659 44.7684 199.546 44.1044 201.164 44.0018L202.932 43.8992V43.3922C202.932 42.6437 202.431 42.2333 201.556 42.2333C200.844 42.2333 200.325 42.6015 200.21 43.1689H198.985C199.021 42.01 200.119 41.1529 201.592 41.1529C203.192 41.1529 204.224 41.9979 204.224 43.2956V47.7924H202.974V46.6999H202.944C202.582 47.4121 201.767 47.8588 200.874 47.8588ZM209.904 45.5893H211.153C211.014 46.8387 210.091 47.7018 208.739 47.8467L208.455 48.5891C209.24 48.5891 209.662 48.915 209.662 49.5186C209.662 50.1645 209.113 50.5991 208.298 50.6051C207.96 50.6111 207.676 50.5809 207.423 50.5025V49.8687C207.55 49.917 207.882 49.9532 208.135 49.9532C208.594 49.9532 208.829 49.8204 208.829 49.5548C208.829 49.2832 208.588 49.1746 207.978 49.1746H207.646V48.6736L207.978 47.8527C206.318 47.7018 205.244 46.4584 205.244 44.5149C205.244 42.4747 206.463 41.1529 208.316 41.1529C209.988 41.1529 211.026 42.2152 211.141 43.4767H209.891C209.771 42.7826 209.228 42.2574 208.328 42.2574C207.272 42.2574 206.572 43.1387 206.572 44.5149C206.572 45.9273 207.284 46.7723 208.334 46.7723C209.185 46.7723 209.747 46.3558 209.904 45.5893ZM215.746 40.1992C214.95 40.1992 214.684 39.318 214.219 39.318C213.954 39.318 213.809 39.6137 213.803 40.1026H213.024C213.024 39.1248 213.477 38.5514 214.177 38.5514C215.016 38.5514 215.282 39.4326 215.722 39.4326C215.976 39.4326 216.102 39.1489 216.102 38.6359H216.887C216.887 39.5956 216.416 40.1992 215.746 40.1992ZM214.925 47.8708C213.03 47.8708 211.823 46.5791 211.823 44.5149C211.823 42.4566 213.036 41.1529 214.925 41.1529C216.815 41.1529 218.022 42.4506 218.022 44.5149C218.022 46.5791 216.821 47.8708 214.925 47.8708ZM214.925 46.7844C216.036 46.7844 216.694 45.9454 216.694 44.5149C216.694 43.0844 216.036 42.2393 214.925 42.2393C213.815 42.2393 213.151 43.0904 213.151 44.5149C213.151 45.9454 213.815 46.7844 214.925 46.7844ZM221.8 42.2212C220.859 42.2212 220.177 42.9093 220.104 43.9173H223.43C223.4 42.8972 222.754 42.2212 221.8 42.2212ZM223.424 45.8729H224.673C224.486 47.0499 223.333 47.8708 221.861 47.8708C219.959 47.8708 218.776 46.5912 218.776 44.539C218.776 42.4868 219.971 41.1529 221.806 41.1529C223.605 41.1529 224.74 42.4023 224.74 44.3881V44.8468H220.098V44.9253C220.098 46.0601 220.81 46.8085 221.885 46.8085C222.645 46.8085 223.243 46.4464 223.424 45.8729ZM225.687 43.1025C225.687 41.9496 226.72 41.1589 228.229 41.1589C229.665 41.1589 230.703 41.9677 230.733 43.1085H229.502C229.448 42.5291 228.947 42.1669 228.198 42.1669C227.456 42.1669 226.961 42.5109 226.961 43.03C226.961 43.4284 227.287 43.7 227.981 43.869L229.068 44.1286C230.389 44.4485 230.878 44.9253 230.878 45.891C230.878 47.062 229.768 47.8708 228.18 47.8708C226.653 47.8708 225.609 47.0801 225.512 45.8971H226.804C226.907 46.5248 227.414 46.8689 228.247 46.8689C229.061 46.8689 229.575 46.5309 229.575 45.9997C229.575 45.5832 229.315 45.3659 228.627 45.1909L227.456 44.9012C226.273 44.6114 225.687 44.0078 225.687 43.1025Z" fill="#FF5200"/>
<path d="M145.519 63.7228H144.167V55.013H145.519V63.7228ZM146.991 63.7228V57.1679H148.241V58.2724H148.265C148.663 57.4998 149.321 57.0954 150.335 57.0954C151.784 57.0954 152.611 58.0129 152.611 59.5219V63.7228H151.301V59.7693C151.301 58.7734 150.842 58.2181 149.883 58.2181C148.893 58.2181 148.301 58.9062 148.301 59.9383V63.7228H146.991ZM153.812 59.0329C153.812 57.8801 154.844 57.0894 156.353 57.0894C157.79 57.0894 158.828 57.8982 158.858 59.039H157.627C157.572 58.4595 157.071 58.0974 156.323 58.0974C155.58 58.0974 155.085 58.4414 155.085 58.9605C155.085 59.3589 155.411 59.6305 156.106 59.7995L157.192 60.059C158.514 60.3789 159.003 60.8558 159.003 61.8215C159.003 62.9925 157.892 63.8013 156.305 63.8013C154.778 63.8013 153.733 63.0106 153.637 61.8276H154.929C155.031 62.4553 155.538 62.7993 156.371 62.7993C157.186 62.7993 157.699 62.4613 157.699 61.9302C157.699 61.5137 157.439 61.2964 156.751 61.1214L155.58 60.8316C154.397 60.5419 153.812 59.9383 153.812 59.0329ZM160.457 55.6951H161.761V57.1679H163.017V58.2H161.761V61.8638C161.761 62.4312 162.015 62.6967 162.564 62.6967C162.703 62.6967 162.926 62.6786 163.011 62.6666V63.6987C162.866 63.7349 162.558 63.7651 162.274 63.7651C160.964 63.7651 160.457 63.2641 160.457 61.9966V58.2H159.552V57.1679H160.457V55.6951ZM166.348 62.745C167.32 62.745 168.057 62.1233 168.057 61.2602V60.7471L166.463 60.8558C165.57 60.9101 165.105 61.2421 165.105 61.8215C165.105 62.3829 165.594 62.745 166.348 62.745ZM165.998 63.7892C164.689 63.7892 163.783 63.0166 163.783 61.8457C163.783 60.6989 164.671 60.0349 166.288 59.9323L168.057 59.8297V59.3227C168.057 58.5742 167.556 58.1638 166.68 58.1638C165.968 58.1638 165.449 58.532 165.334 59.0993H164.109C164.145 57.9404 165.244 57.0833 166.717 57.0833C168.316 57.0833 169.348 57.9284 169.348 59.2261V63.7228H168.099V62.6303H168.069C167.707 63.3426 166.892 63.7892 165.998 63.7892ZM170.718 63.7228V54.6207H172.028V63.7228H170.718ZM175.704 62.745C176.676 62.745 177.412 62.1233 177.412 61.2602V60.7471L175.819 60.8558C174.925 60.9101 174.461 61.2421 174.461 61.8215C174.461 62.3829 174.95 62.745 175.704 62.745ZM175.354 63.7892C174.044 63.7892 173.139 63.0166 173.139 61.8457C173.139 60.6989 174.026 60.0349 175.644 59.9323L177.412 59.8297V59.3227C177.412 58.5742 176.911 58.1638 176.036 58.1638C175.324 58.1638 174.805 58.532 174.69 59.0993H173.465C173.501 57.9404 174.6 57.0833 176.072 57.0833C177.672 57.0833 178.704 57.9284 178.704 59.2261V63.7228H177.455V62.6303H177.424C177.062 63.3426 176.247 63.7892 175.354 63.7892ZM184.384 61.5197H185.633C185.494 62.7692 184.571 63.6323 183.219 63.7772L182.935 64.5196C183.72 64.5196 184.142 64.8455 184.142 65.4491C184.142 66.0949 183.593 66.5295 182.778 66.5356C182.44 66.5416 182.157 66.5114 181.903 66.433V65.7992C182.03 65.8475 182.362 65.8837 182.615 65.8837C183.074 65.8837 183.309 65.7509 183.309 65.4853C183.309 65.2137 183.068 65.1051 182.458 65.1051H182.126V64.6041L182.458 63.7832C180.798 63.6323 179.724 62.3889 179.724 60.4453C179.724 58.4052 180.943 57.0833 182.796 57.0833C184.468 57.0833 185.506 58.1457 185.621 59.4072H184.372C184.251 58.713 183.708 58.1879 182.808 58.1879C181.752 58.1879 181.052 59.0692 181.052 60.4453C181.052 61.8577 181.764 62.7028 182.814 62.7028C183.665 62.7028 184.227 62.2863 184.384 61.5197ZM188.874 62.745C189.846 62.745 190.583 62.1233 190.583 61.2602V60.7471L188.989 60.8558C188.096 60.9101 187.631 61.2421 187.631 61.8215C187.631 62.3829 188.12 62.745 188.874 62.745ZM188.524 63.7892C187.215 63.7892 186.309 63.0166 186.309 61.8457C186.309 60.6989 187.196 60.0349 188.814 59.9323L190.583 59.8297V59.3227C190.583 58.5742 190.082 58.1638 189.206 58.1638C188.494 58.1638 187.975 58.532 187.86 59.0993H186.635C186.671 57.9404 187.77 57.0833 189.243 57.0833C190.842 57.0833 191.874 57.9284 191.874 59.2261V63.7228H190.625V62.6303H190.595C190.233 63.3426 189.418 63.7892 188.524 63.7892ZM190.039 56.1297C189.243 56.1297 188.977 55.2484 188.512 55.2484C188.247 55.2484 188.102 55.5442 188.096 56.0331H187.317C187.317 55.0553 187.77 54.4819 188.47 54.4819C189.309 54.4819 189.575 55.3631 190.015 55.3631C190.269 55.3631 190.396 55.0794 190.396 54.5664H191.18C191.18 55.5261 190.709 56.1297 190.039 56.1297ZM195.997 63.8013C194.102 63.8013 192.894 62.5096 192.894 60.4453C192.894 58.3871 194.108 57.0833 195.997 57.0833C197.886 57.0833 199.093 58.3811 199.093 60.4453C199.093 62.5096 197.892 63.8013 195.997 63.8013ZM195.997 62.7148C197.107 62.7148 197.765 61.8759 197.765 60.4453C197.765 59.0148 197.107 58.1698 195.997 58.1698C194.886 58.1698 194.222 59.0209 194.222 60.4453C194.222 61.8759 194.886 62.7148 195.997 62.7148ZM210.628 60.1013C210.628 62.4613 209.234 63.8677 206.874 63.8677C204.381 63.8677 202.811 62.1233 202.811 59.3287C202.811 56.5824 204.375 54.8682 206.855 54.8682C208.793 54.8682 210.26 56.015 210.561 57.7533H209.173C208.847 56.6729 207.996 56.0512 206.861 56.0512C205.196 56.0512 204.194 57.2705 204.194 59.3166C204.194 61.399 205.226 62.6847 206.886 62.6847C208.298 62.6847 209.276 61.7793 209.294 60.4574V60.3065H207.043V59.214H210.628V60.1013ZM211.817 63.7228V57.1679H213.066V58.2724H213.091C213.296 57.5421 213.899 57.1015 214.672 57.1015C214.865 57.1015 215.028 57.1196 215.131 57.1437V58.369C215.022 58.3267 214.793 58.2905 214.533 58.2905C213.67 58.2905 213.127 58.8881 213.127 59.8116V63.7228H211.817ZM218.112 62.745C219.084 62.745 219.821 62.1233 219.821 61.2602V60.7471L218.227 60.8558C217.334 60.9101 216.869 61.2421 216.869 61.8215C216.869 62.3829 217.358 62.745 218.112 62.745ZM217.762 63.7892C216.453 63.7892 215.547 63.0166 215.547 61.8457C215.547 60.6989 216.434 60.0349 218.052 59.9323L219.821 59.8297V59.3227C219.821 58.5742 219.32 58.1638 218.444 58.1638C217.732 58.1638 217.213 58.532 217.098 59.0993H215.873C215.909 57.9404 217.008 57.0833 218.481 57.0833C220.08 57.0833 221.112 57.9284 221.112 59.2261V63.7228H219.863V62.6303H219.833C219.47 63.3426 218.656 63.7892 217.762 63.7892ZM222.82 55.6951H224.124V57.1679H225.38V58.2H224.124V61.8638C224.124 62.4312 224.378 62.6967 224.927 62.6967C225.066 62.6967 225.289 62.6786 225.374 62.6666V63.6987C225.229 63.7349 224.921 63.7651 224.637 63.7651C223.327 63.7651 222.82 63.2641 222.82 61.9966V58.2H221.915V57.1679H222.82V55.6951ZM232.073 57.1679V63.7228H230.824V62.6002H230.8C230.42 63.3788 229.756 63.7953 228.754 63.7953C227.323 63.7953 226.454 62.8718 226.454 61.3688V57.1679H227.764V61.1214C227.764 62.1294 228.241 62.6666 229.188 62.6666C230.166 62.6666 230.764 61.9845 230.764 60.9463V57.1679H232.073ZM233.462 63.7228V57.1679H234.771V63.7228H233.462ZM234.12 56.2323C233.697 56.2323 233.353 55.8943 233.353 55.4778C233.353 55.0492 233.697 54.7233 234.12 54.7233C234.542 54.7233 234.886 55.0492 234.886 55.4778C234.886 55.8943 234.542 56.2323 234.12 56.2323ZM236.558 55.6951H237.862V57.1679H239.117V58.2H237.862V61.8638C237.862 62.4312 238.115 62.6967 238.665 62.6967C238.803 62.6967 239.027 62.6786 239.111 62.6666V63.6987C238.966 63.7349 238.659 63.7651 238.375 63.7651C237.065 63.7651 236.558 63.2641 236.558 61.9966V58.2H235.653V57.1679H236.558V55.6951ZM242.449 62.745C243.421 62.745 244.157 62.1233 244.157 61.2602V60.7471L242.564 60.8558C241.67 60.9101 241.206 61.2421 241.206 61.8215C241.206 62.3829 241.695 62.745 242.449 62.745ZM242.099 63.7892C240.789 63.7892 239.884 63.0166 239.884 61.8457C239.884 60.6989 240.771 60.0349 242.389 59.9323L244.157 59.8297V59.3227C244.157 58.5742 243.656 58.1638 242.781 58.1638C242.069 58.1638 241.55 58.532 241.435 59.0993H240.21C240.246 57.9404 241.345 57.0833 242.817 57.0833C244.417 57.0833 245.449 57.9284 245.449 59.2261V63.7228H244.2V62.6303H244.169C243.807 63.3426 242.992 63.7892 242.099 63.7892Z" fill="#FF5200"/>
<path d="M132.524 29.2062L131.893 28.5497C131.65 28.2975 131.317 28.1519 130.967 28.145C130.618 28.1381 130.279 28.2703 130.027 28.5127V28.5127C129.902 28.6328 129.802 28.7764 129.732 28.9352C129.663 29.094 129.625 29.265 129.622 29.4383C129.618 29.6116 129.649 29.7839 129.712 29.9454C129.775 30.1068 129.87 30.2543 129.99 30.3792L131.01 31.4406C131.2 31.6416 131.428 31.8028 131.681 31.9146C131.934 32.0264 132.207 32.0866 132.483 32.0918H132.516C133.064 32.0902 133.589 31.8727 133.978 31.4863L137.464 27.9996C137.712 27.7521 137.851 27.4164 137.851 27.0664C137.851 26.7163 137.712 26.3806 137.464 26.1331V26.1331C137.341 26.0104 137.196 25.9131 137.036 25.8467C136.875 25.7803 136.704 25.7462 136.53 25.7462C136.357 25.7462 136.185 25.7803 136.025 25.8467C135.865 25.9131 135.719 26.0104 135.597 26.1331L132.524 29.2062Z" fill="#FF5200"/>
<path d="M132.524 43.5462L131.893 42.8897C131.65 42.6376 131.317 42.492 130.967 42.4851C130.618 42.4782 130.279 42.6104 130.027 42.8528V42.8528C129.902 42.9729 129.802 43.1165 129.732 43.2753C129.663 43.4341 129.625 43.6051 129.622 43.7784C129.618 43.9517 129.649 44.124 129.712 44.2855C129.775 44.4469 129.87 44.5943 129.99 44.7193L131.01 45.7806C131.2 45.9817 131.428 46.1429 131.681 46.2547C131.934 46.3665 132.207 46.4267 132.483 46.4319H132.516C133.064 46.4303 133.589 46.2127 133.978 45.8264L137.464 42.3397C137.712 42.0922 137.851 41.7565 137.851 41.4064C137.851 41.0564 137.712 40.7207 137.464 40.4732V40.4732C137.341 40.3505 137.196 40.2532 137.036 40.1868C136.875 40.1204 136.704 40.0862 136.53 40.0862C136.357 40.0862 136.185 40.1204 136.025 40.1868C135.865 40.2532 135.719 40.3505 135.597 40.4732L132.524 43.5462Z" fill="#FF5200"/>
<path d="M132.524 59.6789L131.893 59.0224C131.65 58.7702 131.317 58.6247 130.967 58.6177C130.618 58.6108 130.279 58.743 130.027 58.9854V58.9854C129.902 59.1055 129.802 59.2491 129.732 59.4079C129.663 59.5667 129.625 59.7377 129.622 59.911C129.618 60.0844 129.649 60.2567 129.712 60.4181C129.775 60.5795 129.87 60.727 129.99 60.852L131.01 61.9133C131.2 62.1143 131.428 62.2755 131.681 62.3873C131.934 62.4991 132.207 62.5594 132.483 62.5645H132.516C133.064 62.5629 133.589 62.3454 133.978 61.959L137.464 58.4723C137.712 58.2248 137.851 57.8891 137.851 57.5391C137.851 57.189 137.712 56.8533 137.464 56.6058V56.6058C137.341 56.4831 137.196 56.3858 137.036 56.3194C136.875 56.253 136.704 56.2189 136.53 56.2189C136.357 56.2189 136.185 56.253 136.025 56.3194C135.865 56.3858 135.719 56.4831 135.597 56.6058L132.524 59.6789Z" fill="#FF5200"/>
<rect x="108" y="88.5862" width="155.026" height="19.8153" rx="3.49682" fill="#FF5200"/>
<path d="M144.312 101.359C143.737 101.359 143.212 101.22 142.739 100.944C142.265 100.665 141.891 100.29 141.618 99.8189C141.347 99.3451 141.212 98.8263 141.212 98.2623C141.212 97.6983 141.347 97.1822 141.618 96.7141C141.891 96.2431 142.265 95.8709 142.739 95.5973C143.212 95.3238 143.737 95.187 144.312 95.187C144.659 95.187 144.992 95.2392 145.31 95.3435C145.629 95.4479 145.918 95.5959 146.178 95.7877C146.228 95.83 146.254 95.8751 146.254 95.923C146.254 95.9625 146.24 96.0006 146.211 96.0373L145.403 97.0948C145.367 97.1455 145.322 97.1709 145.268 97.1709C145.234 97.1709 145.196 97.1582 145.154 97.1328C145.027 97.0511 144.89 96.9862 144.744 96.9383C144.6 96.8875 144.456 96.8621 144.312 96.8621C144.081 96.8621 143.862 96.9242 143.656 97.0482C143.453 97.1723 143.29 97.3415 143.166 97.5558C143.045 97.7702 142.984 98.007 142.984 98.2665C142.984 98.5287 143.046 98.7684 143.17 98.9856C143.294 99.2027 143.458 99.3733 143.661 99.4974C143.864 99.6215 144.081 99.6835 144.312 99.6835C144.484 99.6835 144.631 99.6652 144.752 99.6286C144.873 99.5891 145.01 99.5158 145.162 99.4086C145.202 99.3804 145.243 99.3663 145.285 99.3663C145.336 99.3663 145.379 99.3917 145.416 99.4424L146.207 100.508C146.241 100.551 146.258 100.592 146.258 100.631C146.258 100.673 146.235 100.711 146.19 100.745C145.928 100.943 145.636 101.095 145.315 101.202C144.996 101.306 144.662 101.359 144.312 101.359ZM148.611 101.071C148.611 101.189 148.554 101.249 148.438 101.249H147.156C147.1 101.249 147.056 101.233 147.025 101.202C146.994 101.171 146.979 101.127 146.979 101.071V94.8148C146.979 94.7584 146.994 94.7147 147.025 94.6836C147.056 94.6526 147.1 94.6371 147.156 94.6371H148.438C148.554 94.6371 148.611 94.6963 148.611 94.8148V101.071ZM149.895 95.6185C149.779 95.6185 149.722 95.5593 149.722 95.4408V94.2945C149.722 94.176 149.779 94.1168 149.895 94.1168H151.202C151.321 94.1168 151.38 94.176 151.38 94.2945V95.4408C151.38 95.5593 151.321 95.6185 151.202 95.6185H149.895ZM151.371 101.071C151.371 101.127 151.356 101.171 151.325 101.202C151.294 101.233 151.25 101.249 151.194 101.249H149.899C149.843 101.249 149.799 101.233 149.768 101.202C149.737 101.171 149.722 101.127 149.722 101.071V96.2868C149.722 96.1712 149.781 96.1134 149.899 96.1134H151.194C151.312 96.1134 151.371 96.1712 151.371 96.2868V101.071ZM156.21 96.2403C156.233 96.1952 156.261 96.1628 156.295 96.143C156.329 96.1233 156.369 96.1134 156.417 96.1134H157.361C157.479 96.1134 157.538 96.1712 157.538 96.2868V102.573C157.538 102.629 157.523 102.673 157.492 102.704C157.461 102.735 157.417 102.75 157.361 102.75H156.066C155.948 102.75 155.889 102.691 155.889 102.573V101.16C155.587 101.295 155.243 101.363 154.857 101.363C154.369 101.363 153.917 101.243 153.503 101.003C153.088 100.761 152.76 100.435 152.517 100.026C152.275 99.6173 152.154 99.1703 152.154 98.6853C152.154 98.203 152.275 97.7589 152.517 97.3528C152.763 96.9439 153.093 96.621 153.507 96.3841C153.922 96.1472 154.371 96.0288 154.857 96.0288C155.322 96.0288 155.722 96.143 156.058 96.3714L156.21 96.2403ZM154.886 99.7851C155.092 99.7851 155.278 99.7399 155.444 99.6497C155.614 99.5595 155.746 99.4326 155.842 99.269C155.941 99.1026 155.99 98.9151 155.99 98.7064C155.99 98.4977 155.942 98.3102 155.846 98.1438C155.75 97.9746 155.619 97.8421 155.453 97.7462C155.287 97.6503 155.102 97.6024 154.899 97.6024C154.693 97.6024 154.507 97.6503 154.34 97.7462C154.174 97.8393 154.043 97.9704 153.947 98.1396C153.851 98.3088 153.803 98.4977 153.803 98.7064C153.803 98.9179 153.85 99.1054 153.943 99.269C154.036 99.4326 154.164 99.5595 154.328 99.6497C154.494 99.7399 154.68 99.7851 154.886 99.7851ZM162.08 96.2868C162.08 96.1712 162.14 96.1134 162.258 96.1134H163.552C163.671 96.1134 163.73 96.1712 163.73 96.2868V101.071C163.73 101.189 163.671 101.249 163.552 101.249H162.571C162.475 101.249 162.405 101.205 162.36 101.118L162.14 100.754C161.939 100.926 161.698 101.065 161.416 101.173C161.137 101.277 160.876 101.329 160.634 101.329C160.214 101.329 159.846 101.233 159.53 101.041C159.214 100.847 158.97 100.575 158.798 100.225C158.626 99.8725 158.54 99.465 158.54 99.0025V96.2868C158.54 96.1712 158.599 96.1134 158.717 96.1134H160.012C160.128 96.1134 160.185 96.1712 160.185 96.2868V98.8164C160.185 99.0138 160.221 99.19 160.291 99.3451C160.364 99.4974 160.467 99.6159 160.6 99.7005C160.735 99.7851 160.89 99.8274 161.065 99.8274C161.257 99.8274 161.43 99.7822 161.585 99.692C161.741 99.6018 161.862 99.4861 161.949 99.3451C162.037 99.2013 162.08 99.0519 162.08 98.8968V96.2868ZM167.204 101.38C166.679 101.38 166.211 101.26 165.799 101.02C165.391 100.778 165.072 100.453 164.843 100.047C164.615 99.6384 164.501 99.1929 164.501 98.7106C164.501 98.2256 164.609 97.7786 164.827 97.3697C165.047 96.9608 165.352 96.6351 165.744 96.3926C166.139 96.1501 166.588 96.0288 167.09 96.0288C167.637 96.0288 168.108 96.143 168.502 96.3714C168.9 96.5999 169.203 96.9157 169.412 97.319C169.621 97.7222 169.725 98.1833 169.725 98.7022C169.725 98.846 169.718 98.9757 169.704 99.0913C169.692 99.2041 169.63 99.2605 169.518 99.2605H166.197C166.299 99.4777 166.444 99.6427 166.633 99.7555C166.822 99.8654 167.035 99.9204 167.271 99.9204C167.432 99.9204 167.575 99.8993 167.699 99.857C167.826 99.8147 167.953 99.7526 168.079 99.6709C168.116 99.6427 168.154 99.6286 168.194 99.6286C168.242 99.6286 168.284 99.6553 168.321 99.7089L168.934 100.58C168.959 100.617 168.972 100.654 168.972 100.69C168.972 100.744 168.948 100.789 168.9 100.826C168.666 101 168.407 101.137 168.122 101.236C167.837 101.332 167.531 101.38 167.204 101.38ZM168.096 98.0677C168.015 97.8534 167.892 97.694 167.728 97.5897C167.565 97.4825 167.37 97.4289 167.145 97.4289C166.919 97.4289 166.723 97.4825 166.557 97.5897C166.393 97.6968 166.268 97.8562 166.18 98.0677H168.096ZM174.895 101.38C174.37 101.38 173.902 101.26 173.491 101.02C173.082 100.778 172.763 100.453 172.535 100.047C172.306 99.6384 172.192 99.1929 172.192 98.7106C172.192 98.2256 172.301 97.7786 172.518 97.3697C172.738 96.9608 173.044 96.6351 173.436 96.3926C173.83 96.1501 174.279 96.0288 174.781 96.0288C175.328 96.0288 175.799 96.143 176.194 96.3714C176.591 96.5999 176.894 96.9157 177.103 97.319C177.312 97.7222 177.416 98.1833 177.416 98.7022C177.416 98.846 177.409 98.9757 177.395 99.0913C177.384 99.2041 177.322 99.2605 177.209 99.2605H173.888C173.99 99.4777 174.135 99.6427 174.324 99.7555C174.513 99.8654 174.726 99.9204 174.963 99.9204C175.123 99.9204 175.266 99.8993 175.39 99.857C175.517 99.8147 175.644 99.7526 175.771 99.6709C175.807 99.6427 175.845 99.6286 175.885 99.6286C175.933 99.6286 175.975 99.6553 176.012 99.7089L176.625 100.58C176.65 100.617 176.663 100.654 176.663 100.69C176.663 100.744 176.639 100.789 176.591 100.826C176.357 101 176.098 101.137 175.813 101.236C175.528 101.332 175.222 101.38 174.895 101.38ZM175.787 98.0677C175.706 97.8534 175.583 97.694 175.419 97.5897C175.256 97.4825 175.061 97.4289 174.836 97.4289C174.61 97.4289 174.414 97.4825 174.248 97.5897C174.084 97.6968 173.959 97.8562 173.871 98.0677H175.787ZM182.053 101.38C181.641 101.38 181.266 101.312 180.928 101.177C180.59 101.041 180.265 100.837 179.955 100.563C179.91 100.521 179.887 100.479 179.887 100.436C179.887 100.4 179.903 100.359 179.934 100.314L180.556 99.5186C180.595 99.4678 180.637 99.4424 180.683 99.4424C180.722 99.4424 180.763 99.4594 180.805 99.4932C180.98 99.6145 181.175 99.7146 181.389 99.7935C181.606 99.8725 181.812 99.912 182.007 99.912C182.102 99.912 182.176 99.9007 182.227 99.8781C182.277 99.8527 182.303 99.8104 182.303 99.7512C182.303 99.6892 182.253 99.6243 182.155 99.5566C182.059 99.4861 181.866 99.4001 181.575 99.2986C181.149 99.1492 180.798 98.9489 180.522 98.6979C180.245 98.4441 180.107 98.0931 180.107 97.6447C180.107 97.3598 180.178 97.0948 180.319 96.8494C180.463 96.6041 180.68 96.4067 180.97 96.2572C181.261 96.1049 181.617 96.0288 182.04 96.0288C182.328 96.0288 182.624 96.0866 182.929 96.2022C183.233 96.3179 183.504 96.4927 183.741 96.7268C183.778 96.7634 183.796 96.8029 183.796 96.8452C183.796 96.8903 183.776 96.9326 183.737 96.9721L182.95 97.7885C182.913 97.828 182.874 97.8477 182.831 97.8477C182.789 97.8477 182.745 97.8294 182.7 97.7927C182.604 97.7166 182.492 97.6531 182.362 97.6024C182.235 97.5516 182.108 97.5262 181.981 97.5262C181.784 97.5262 181.685 97.584 181.685 97.6997C181.685 97.742 181.709 97.7829 181.757 97.8223C181.805 97.859 181.882 97.8999 181.99 97.945C182.1 97.9873 182.256 98.0423 182.459 98.11C182.922 98.2623 183.274 98.4625 183.517 98.7106C183.762 98.9588 183.885 99.2986 183.885 99.7301C183.885 100.012 183.813 100.28 183.669 100.534C183.528 100.785 183.319 100.989 183.043 101.147C182.767 101.302 182.437 101.38 182.053 101.38ZM188.396 96.2403C188.419 96.1952 188.447 96.1628 188.481 96.143C188.515 96.1233 188.555 96.1134 188.603 96.1134H189.547C189.665 96.1134 189.724 96.1712 189.724 96.2868V101.071C189.724 101.127 189.709 101.171 189.678 101.202C189.647 101.233 189.603 101.249 189.547 101.249H188.565C188.472 101.249 188.403 101.205 188.358 101.118L188.227 101.033C187.891 101.253 187.497 101.363 187.042 101.363C186.555 101.363 186.103 101.243 185.689 101.003C185.274 100.761 184.946 100.435 184.703 100.026C184.461 99.6173 184.34 99.1703 184.34 98.6853C184.34 98.203 184.461 97.7589 184.703 97.3528C184.949 96.9439 185.279 96.621 185.693 96.3841C186.108 96.1472 186.557 96.0288 187.042 96.0288C187.508 96.0288 187.908 96.143 188.244 96.3714L188.396 96.2403ZM187.072 99.7851C187.278 99.7851 187.464 99.7399 187.63 99.6497C187.8 99.5595 187.932 99.4326 188.028 99.269C188.127 99.1026 188.176 98.9151 188.176 98.7064C188.176 98.4977 188.128 98.3102 188.032 98.1438C187.936 97.9746 187.805 97.8421 187.639 97.7462C187.473 97.6503 187.288 97.6024 187.085 97.6024C186.879 97.6024 186.693 97.6503 186.526 97.7462C186.36 97.8393 186.229 97.9704 186.133 98.1396C186.037 98.3088 185.989 98.4977 185.989 98.7064C185.989 98.9179 186.036 99.1054 186.129 99.269C186.222 99.4326 186.35 99.5595 186.514 99.6497C186.68 99.7399 186.866 99.7851 187.072 99.7851ZM191.009 95.6185C190.894 95.6185 190.836 95.5593 190.836 95.4408V94.2945C190.836 94.176 190.894 94.1168 191.009 94.1168H192.316C192.435 94.1168 192.494 94.176 192.494 94.2945V95.4408C192.494 95.5593 192.435 95.6185 192.316 95.6185H191.009ZM192.486 101.071C192.486 101.127 192.47 101.171 192.439 101.202C192.408 101.233 192.364 101.249 192.308 101.249H191.013C190.957 101.249 190.913 101.233 190.882 101.202C190.851 101.171 190.836 101.127 190.836 101.071V96.2868C190.836 96.1712 190.895 96.1134 191.013 96.1134H192.308C192.426 96.1134 192.486 96.1712 192.486 96.2868V101.071ZM196.284 96.0288C196.769 96.0288 197.219 96.1472 197.633 96.3841C198.048 96.621 198.376 96.9439 198.619 97.3528C198.864 97.7589 198.987 98.203 198.987 98.6853C198.987 99.1703 198.865 99.6173 198.623 100.026C198.38 100.435 198.052 100.761 197.637 101.003C197.223 101.243 196.772 101.363 196.284 101.363C195.83 101.363 195.435 101.253 195.099 101.033L194.968 101.118C194.923 101.205 194.854 101.249 194.761 101.249H193.78C193.723 101.249 193.679 101.233 193.648 101.202C193.617 101.171 193.602 101.127 193.602 101.071V94.8021C193.602 94.6865 193.661 94.6287 193.78 94.6287H195.07C195.188 94.6287 195.247 94.6865 195.247 94.8021V96.2318C195.397 96.1642 195.555 96.1134 195.721 96.0796C195.89 96.0457 196.078 96.0288 196.284 96.0288ZM196.254 99.7851C196.46 99.7851 196.645 99.7399 196.808 99.6497C196.975 99.5595 197.104 99.4326 197.197 99.269C197.29 99.1054 197.337 98.9179 197.337 98.7064C197.337 98.4977 197.289 98.3088 197.193 98.1396C197.097 97.9704 196.966 97.8393 196.8 97.7462C196.633 97.6503 196.447 97.6024 196.241 97.6024C196.038 97.6024 195.854 97.6503 195.687 97.7462C195.521 97.8421 195.39 97.9746 195.294 98.1438C195.198 98.3102 195.15 98.4977 195.15 98.7064C195.15 98.9151 195.198 99.1026 195.294 99.269C195.393 99.4326 195.525 99.5595 195.691 99.6497C195.861 99.7399 196.048 99.7851 196.254 99.7851ZM203.479 96.2403C203.501 96.1952 203.529 96.1628 203.563 96.143C203.597 96.1233 203.638 96.1134 203.686 96.1134H204.629C204.748 96.1134 204.807 96.1712 204.807 96.2868V101.071C204.807 101.127 204.791 101.171 204.76 101.202C204.729 101.233 204.686 101.249 204.629 101.249H203.648C203.555 101.249 203.486 101.205 203.441 101.118L203.31 101.033C202.974 101.253 202.579 101.363 202.125 101.363C201.637 101.363 201.186 101.243 200.772 101.003C200.357 100.761 200.028 100.435 199.786 100.026C199.543 99.6173 199.422 99.1703 199.422 98.6853C199.422 98.203 199.543 97.7589 199.786 97.3528C200.031 96.9439 200.361 96.621 200.776 96.3841C201.19 96.1472 201.64 96.0288 202.125 96.0288C202.59 96.0288 202.991 96.143 203.326 96.3714L203.479 96.2403ZM202.155 99.7851C202.361 99.7851 202.547 99.7399 202.713 99.6497C202.882 99.5595 203.015 99.4326 203.111 99.269C203.209 99.1026 203.259 98.9151 203.259 98.7064C203.259 98.4977 203.211 98.3102 203.115 98.1438C203.019 97.9746 202.888 97.8421 202.722 97.7462C202.555 97.6503 202.37 97.6024 202.167 97.6024C201.962 97.6024 201.775 97.6503 201.609 97.7462C201.443 97.8393 201.312 97.9704 201.216 98.1396C201.12 98.3088 201.072 98.4977 201.072 98.7064C201.072 98.9179 201.118 99.1054 201.211 99.269C201.304 99.4326 201.433 99.5595 201.596 99.6497C201.763 99.7399 201.949 99.7851 202.155 99.7851ZM214.148 95.978C214.537 95.978 214.874 96.0683 215.159 96.2488C215.447 96.4292 215.668 96.7 215.823 97.0609C215.981 97.4191 216.06 97.859 216.06 98.3807V101.071C216.06 101.189 216.001 101.249 215.882 101.249H214.588C214.532 101.249 214.488 101.233 214.457 101.202C214.426 101.171 214.41 101.127 214.41 101.071V98.4315C214.41 98.1495 214.348 97.9295 214.224 97.7716C214.1 97.6137 213.918 97.5347 213.679 97.5347C213.521 97.5347 213.381 97.5728 213.26 97.6489C213.139 97.725 213.041 97.8266 212.968 97.9535C212.895 98.0775 212.849 98.2115 212.833 98.3553V101.071C212.833 101.127 212.817 101.171 212.786 101.202C212.755 101.233 212.711 101.249 212.655 101.249H211.36C211.242 101.249 211.183 101.189 211.183 101.071V98.4315C211.183 98.1495 211.121 97.9295 210.997 97.7716C210.873 97.6137 210.691 97.5347 210.451 97.5347C210.282 97.5347 210.132 97.5798 210.003 97.6701C209.873 97.7603 209.773 97.8787 209.702 98.0254C209.632 98.1692 209.597 98.3215 209.597 98.4822V101.071C209.597 101.127 209.581 101.171 209.55 101.202C209.519 101.233 209.475 101.249 209.419 101.249H208.125C208.068 101.249 208.024 101.233 207.993 101.202C207.962 101.171 207.947 101.127 207.947 101.071V96.2868C207.947 96.1712 208.006 96.1134 208.125 96.1134H209.11C209.161 96.1134 209.202 96.1233 209.233 96.143C209.267 96.1628 209.295 96.1952 209.317 96.2403L209.453 96.4307C209.884 96.1289 210.372 95.978 210.916 95.978C211.235 95.978 211.52 96.0373 211.771 96.1557C212.025 96.2741 212.238 96.4518 212.41 96.6887C212.883 96.2149 213.463 95.978 214.148 95.978ZM220.782 96.2403C220.804 96.1952 220.833 96.1628 220.866 96.143C220.9 96.1233 220.941 96.1134 220.989 96.1134H221.932C222.051 96.1134 222.11 96.1712 222.11 96.2868V101.071C222.11 101.127 222.095 101.171 222.064 101.202C222.033 101.233 221.989 101.249 221.932 101.249H220.951C220.858 101.249 220.789 101.205 220.744 101.118L220.613 101.033C220.277 101.253 219.882 101.363 219.428 101.363C218.94 101.363 218.489 101.243 218.075 101.003C217.66 100.761 217.332 100.435 217.089 100.026C216.847 99.6173 216.725 99.1703 216.725 98.6853C216.725 98.203 216.847 97.7589 217.089 97.3528C217.334 96.9439 217.664 96.621 218.079 96.3841C218.493 96.1472 218.943 96.0288 219.428 96.0288C219.894 96.0288 220.294 96.143 220.63 96.3714L220.782 96.2403ZM219.458 99.7851C219.664 99.7851 219.85 99.7399 220.016 99.6497C220.185 99.5595 220.318 99.4326 220.414 99.269C220.513 99.1026 220.562 98.9151 220.562 98.7064C220.562 98.4977 220.514 98.3102 220.418 98.1438C220.322 97.9746 220.191 97.8421 220.025 97.7462C219.858 97.6503 219.674 97.6024 219.471 97.6024C219.265 97.6024 219.079 97.6503 218.912 97.7462C218.746 97.8393 218.615 97.9704 218.519 98.1396C218.423 98.3088 218.375 98.4977 218.375 98.7064C218.375 98.9179 218.421 99.1054 218.515 99.269C218.608 99.4326 218.736 99.5595 218.899 99.6497C219.066 99.7399 219.252 99.7851 219.458 99.7851ZM223.395 95.6185C223.279 95.6185 223.222 95.5593 223.222 95.4408V94.2945C223.222 94.176 223.279 94.1168 223.395 94.1168H224.702C224.821 94.1168 224.88 94.176 224.88 94.2945V95.4408C224.88 95.5593 224.821 95.6185 224.702 95.6185H223.395ZM224.871 101.071C224.871 101.127 224.856 101.171 224.825 101.202C224.794 101.233 224.75 101.249 224.694 101.249H223.399C223.343 101.249 223.299 101.233 223.268 101.202C223.237 101.171 223.222 101.127 223.222 101.071V96.2868C223.222 96.1712 223.281 96.1134 223.399 96.1134H224.694C224.812 96.1134 224.871 96.1712 224.871 96.2868V101.071ZM227.823 101.38C227.412 101.38 227.037 101.312 226.698 101.177C226.36 101.041 226.036 100.837 225.725 100.563C225.68 100.521 225.658 100.479 225.658 100.436C225.658 100.4 225.673 100.359 225.704 100.314L226.326 99.5186C226.365 99.4678 226.408 99.4424 226.453 99.4424C226.492 99.4424 226.533 99.4594 226.576 99.4932C226.75 99.6145 226.945 99.7146 227.159 99.7935C227.376 99.8725 227.582 99.912 227.777 99.912C227.873 99.912 227.946 99.9007 227.997 99.8781C228.048 99.8527 228.073 99.8104 228.073 99.7512C228.073 99.6892 228.024 99.6243 227.925 99.5566C227.829 99.4861 227.636 99.4001 227.345 99.2986C226.92 99.1492 226.569 98.9489 226.292 98.6979C226.016 98.4441 225.878 98.0931 225.878 97.6447C225.878 97.3598 225.948 97.0948 226.089 96.8494C226.233 96.6041 226.45 96.4067 226.741 96.2572C227.031 96.1049 227.388 96.0288 227.811 96.0288C228.098 96.0288 228.394 96.0866 228.699 96.2022C229.004 96.3179 229.274 96.4927 229.511 96.7268C229.548 96.7634 229.566 96.8029 229.566 96.8452C229.566 96.8903 229.546 96.9326 229.507 96.9721L228.72 97.7885C228.684 97.828 228.644 97.8477 228.602 97.8477C228.559 97.8477 228.516 97.8294 228.471 97.7927C228.375 97.7166 228.262 97.6531 228.132 97.6024C228.005 97.5516 227.878 97.5262 227.752 97.5262C227.554 97.5262 227.455 97.584 227.455 97.6997C227.455 97.742 227.479 97.7829 227.527 97.8223C227.575 97.859 227.653 97.8999 227.76 97.945C227.87 97.9873 228.026 98.0423 228.23 98.11C228.692 98.2623 229.045 98.4625 229.287 98.7106C229.532 98.9588 229.655 99.2986 229.655 99.7301C229.655 100.012 229.583 100.28 229.439 100.534C229.298 100.785 229.09 100.989 228.813 101.147C228.537 101.302 228.207 101.38 227.823 101.38Z" fill="#FFFFD6"/>
</svg>
