<svg width="24" height="24" viewBox="0 0 24 24" fill="none" xmlns="http://www.w3.org/2000/svg">
<path d="M14.9848 7.01481V3.00736C14.9848 2.74164 15.0903 2.48682 15.2782 2.29893C15.466 2.11104 15.7208 2.00549 15.9864 2.00549C16.2521 2.00549 16.5068 2.11104 16.6947 2.29893C16.8825 2.48682 16.9881 2.74164 16.9881 3.00736V5.62523C17.6191 4.99205 21.6958 0.890417 22.2898 0.302322C22.4787 0.119825 22.7317 0.0188423 22.9943 0.0211249C23.2569 0.0234076 23.5082 0.128773 23.6939 0.314526C23.8796 0.50028 23.9849 0.75156 23.9872 1.01425C23.9895 1.27693 23.8885 1.53 23.7061 1.71896C23.1131 2.30605 19.0554 6.38664 18.4294 7.01481H20.9946C21.2603 7.01481 21.5151 7.12037 21.7029 7.30825C21.8907 7.49614 21.9963 7.75096 21.9963 8.01667C21.9963 8.28239 21.8907 8.53722 21.7029 8.7251C21.5151 8.91299 21.2603 9.01854 20.9946 9.01854H16.9881C16.4568 9.01854 15.9472 8.80743 15.5715 8.43166C15.1958 8.05589 14.9848 7.54623 14.9848 7.01481ZM20.6491 14.8845C20.0707 14.3341 19.3026 14.0276 18.5043 14.0287C17.706 14.0298 16.9388 14.3384 16.362 14.8905L14.4529 16.4995C12.8946 15.8545 11.4791 14.9079 10.2875 13.7142C9.09597 12.5205 8.1519 11.1032 7.50952 9.54352L9.11215 7.63998C9.66259 7.0619 9.97011 6.29449 9.97123 5.49618C9.97235 4.69788 9.66698 3.92961 9.11816 3.34999C9.11816 3.34999 7.26312 0.942513 7.23207 0.911456C6.66058 0.336133 5.88574 0.00879805 5.07496 0.000174774C4.26418 -0.0084485 3.48255 0.302333 2.89897 0.86537L1.74708 1.86723C-5.9846 10.0925 13.9671 30.0577 22.1806 22.2051L23.0941 21.1531C23.6742 20.571 24 19.7825 24 18.9605C24 18.1386 23.6742 17.3501 23.0941 16.768C23.061 16.7409 20.6491 14.8855 20.6491 14.8855V14.8845Z" fill="black"/>
</svg>
