<svg width="71" height="71" viewBox="0 0 71 71" fill="none" xmlns="http://www.w3.org/2000/svg">
<g clip-path="url(#clip0_2003_41)">
<path d="M61.903 34.1639V29.6328C61.903 22.7042 59.1506 16.0593 54.2514 11.16C49.3521 6.26075 42.7072 3.50836 35.7786 3.50836C28.85 3.50836 22.2051 6.26075 17.3058 11.16C12.4066 16.0593 9.65418 22.7042 9.65418 29.6328V34.1639C7.05219 35.4199 4.85587 37.3823 3.31603 39.827C1.7762 42.2718 0.954942 45.1003 0.946045 47.9895L0.946045 49.0461C0.950655 53.1387 2.57849 57.0624 5.47242 59.9564C8.36635 62.8503 12.29 64.4781 16.3827 64.4827H16.911C18.8356 64.4827 20.6814 63.7182 22.0423 62.3573C23.4032 60.9964 24.1677 59.1506 24.1677 57.226V39.8097C24.1674 38.1373 23.5895 36.5163 22.5316 35.221C21.4737 33.9256 20.0009 33.0354 18.3623 32.7009V29.6328C18.3623 25.0137 20.1972 20.5838 23.4634 17.3176C26.7296 14.0514 31.1595 12.2165 35.7786 12.2165C40.3977 12.2165 44.8276 14.0514 48.0938 17.3176C51.36 20.5838 53.1949 25.0137 53.1949 29.6328V32.7009C51.5563 33.0354 50.0835 33.9256 49.0256 35.221C47.9678 36.5163 47.3898 38.1373 47.3895 39.8097V55.7746H43.0354C41.8806 55.7746 40.7731 56.2333 39.9566 57.0499C39.14 57.8664 38.6813 58.9739 38.6813 60.1287C38.6813 61.2835 39.14 62.3909 39.9566 63.2075C40.7731 64.024 41.8806 64.4827 43.0354 64.4827H55.1745C59.2672 64.4781 63.1909 62.8503 66.0848 59.9564C68.9787 57.0624 70.6065 53.1387 70.6112 49.0461V47.9895C70.6023 45.1003 69.781 42.2718 68.2412 39.827C66.7013 37.3823 64.505 35.4199 61.903 34.1639ZM15.4596 55.7108C13.8492 55.4859 12.3744 54.6861 11.3075 53.4591C10.2405 52.2321 9.65327 50.6606 9.65418 49.0345V47.9779C9.65327 46.3519 10.2405 44.7804 11.3075 43.5533C12.3744 42.3263 13.8492 41.5266 15.4596 41.3017V55.7108ZM61.903 49.0345C61.9039 50.6606 61.3167 52.2321 60.2497 53.4591C59.1828 54.6861 57.708 55.4859 56.0976 55.7108V41.3249C57.708 41.5498 59.1828 42.3495 60.2497 43.5766C61.3167 44.8036 61.9039 46.3751 61.903 48.0011V49.0345Z" fill="#FFFFFF"/>
</g>
<defs>
<clipPath id="clip0_2003_41">
<rect width="69.6651" height="69.6651" fill="white" transform="translate(0.946045 0.622375)"/>
</clipPath>
</defs>
</svg>
