<svg width="44" height="43" viewBox="0 0 44 43" fill="none" xmlns="http://www.w3.org/2000/svg">
<path d="M43.7887 22.8822C42.934 33.7046 33.6179 42.2284 22.2511 42.2284C13.6497 42.2284 6.22227 37.3482 2.74759 30.2831L7.56449 23.2631C7.60695 23.5548 7.65728 23.8425 7.71704 24.1265C8.63387 28.5327 11.625 32.2091 15.6571 34.1557C15.6587 34.1572 15.6603 34.158 15.6611 34.1588C17.6465 35.1153 19.8843 35.6542 22.2511 35.6542C25.5724 35.6542 28.639 34.5939 31.1112 32.8023C34.3083 30.4862 36.5115 26.9464 36.9848 22.899C36.9888 22.8639 36.9927 22.8303 36.9958 22.7952L42.7626 22.8685L43.788 22.8815L43.7887 22.8822Z" fill="#1E1D1C"/>
<path d="M43.8438 20.6738L38.8586 20.8936H38.8476L37.0768 20.9723C37.0281 18.5211 36.3487 16.221 35.1881 14.2172C35.1771 14.1966 35.1645 14.1759 35.1535 14.1561L39.1503 8.19567C41.9771 11.637 43.7109 15.9615 43.8438 20.6738Z" fill="#1E1D1C"/>
<path d="M38.5142 6.6361C38.4034 6.78877 38.2925 6.94145 38.1808 7.09336C36.837 8.94072 35.4759 10.7759 34.1054 12.6057C31.5586 16.005 28.9803 19.3829 26.4209 22.7723C25.8256 23.5586 25.232 24.3464 24.6399 25.1349C20.7972 27.9945 16.2249 23.2326 19.455 19.7165C23.7506 16.7233 28.0045 13.6736 32.2812 10.653C34.1322 9.34455 35.9886 8.04299 37.853 6.75366C38.0204 6.63762 38.1879 6.52083 38.3562 6.40556C38.4812 6.388 38.5339 6.46434 38.515 6.6361H38.5142Z" fill="#FB5800"/>
<path d="M36.3165 5.34218L30.3681 9.20791C29.7925 8.84225 29.1887 8.51324 28.5612 8.22697C26.4146 6.98725 23.6499 5.48417 18.6734 5.988C11.3341 6.73152 2.48498 14.0118 0.879344 24.3242C0.727588 23.3235 0.64975 22.2998 0.64975 21.2585C0.64975 16.5684 2.23573 12.237 4.91624 8.74301C4.9186 8.73996 4.91938 8.73843 4.92174 8.73614C7.83342 5.07042 11.809 2.47877 15.9457 1.19554C15.9504 1.19325 15.9552 1.19248 15.9599 1.19096C16.4804 1.03676 17.0088 0.902402 17.5451 0.787133C19.0595 0.460409 20.6345 0.287887 22.2503 0.287887C25.5638 0.287887 28.7027 1.01233 31.5083 2.30625C33.2523 3.11008 34.8681 4.13453 36.3165 5.34218Z" fill="#1E1D1C"/>
</svg>
