<svg width="318" height="104" viewBox="0 0 318 104" fill="none" xmlns="http://www.w3.org/2000/svg">
<rect width="318" height="104" rx="11.1315" fill="#FFFFD6"/>
<path d="M20.5325 11.5966H23.2039C24.5174 11.5966 25.4227 12.4708 25.4227 13.7888C25.4227 15.1023 24.4863 15.9809 23.1373 15.9809H21.8726V18H20.5325V11.5966ZM21.8726 12.6572V14.9337H22.8445C23.6122 14.9337 24.0603 14.5254 24.0603 13.7932C24.0603 13.0655 23.6166 12.6572 22.8489 12.6572H21.8726ZM26.1549 18V11.2905H27.4506V18H26.1549ZM30.2329 17.1125C30.832 17.1125 31.3113 16.7397 31.3113 16.2072V15.8478L30.2862 15.9188C29.7448 15.9543 29.4564 16.1673 29.4564 16.5267C29.4564 16.8862 29.7626 17.1125 30.2329 17.1125ZM29.8114 18.0577C28.8706 18.0577 28.1651 17.4675 28.1651 16.5933C28.1651 15.7058 28.844 15.2044 30.0909 15.1289L31.3113 15.0535V14.7295C31.3113 14.2592 30.9873 14.0018 30.4548 14.0018C29.9844 14.0018 29.6561 14.2503 29.5939 14.6053H28.4091C28.4446 13.6734 29.2878 13.03 30.5081 13.03C31.7639 13.03 32.5848 13.6734 32.5848 14.6497V18H31.3335V17.2456H31.3068C31.0406 17.7559 30.4371 18.0577 29.8114 18.0577ZM33.459 18V13.1143H34.7104V13.9885H34.737C35.0166 13.3717 35.5136 13.0433 36.2636 13.0433C37.3463 13.0433 37.9587 13.7267 37.9587 14.8671V18H36.6629V15.1378C36.6629 14.4899 36.3612 14.1216 35.7488 14.1216C35.1275 14.1216 34.7548 14.5654 34.7548 15.2132V18H33.459ZM41.0472 18.0843C39.5651 18.0843 38.6376 17.1347 38.6376 15.5549C38.6376 13.9929 39.5784 13.03 41.0472 13.03C42.5205 13.03 43.4568 13.9885 43.4568 15.5549C43.4568 17.1391 42.5293 18.0843 41.0472 18.0843ZM41.0472 17.0859C41.7306 17.0859 42.1388 16.5267 42.1388 15.5549C42.1388 14.592 41.7262 14.024 41.0472 14.024C40.3638 14.024 39.9511 14.5964 39.9511 15.5549C39.9511 16.5267 40.3638 17.0859 41.0472 17.0859Z" fill="black"/>
<path d="M47.5393 18H46.1992V11.5966H47.5393V18ZM48.5111 18V13.1143H49.7625V13.9885H49.7892C50.0687 13.3717 50.5657 13.0433 51.3157 13.0433C52.3984 13.0433 53.0108 13.7267 53.0108 14.8671V18H51.715V15.1378C51.715 14.4899 51.4133 14.1216 50.8009 14.1216C50.1797 14.1216 49.8069 14.5654 49.8069 15.2132V18H48.5111ZM54.2178 12.0271H55.5136V13.1143H56.4188V14.095H55.5136V16.4691C55.5136 16.8462 55.6999 17.0282 56.0949 17.0282C56.2103 17.0282 56.3389 17.0193 56.4188 17.006V17.9645C56.2857 17.9911 56.0549 18.0178 55.7931 18.0178C54.6616 18.0178 54.2178 17.6361 54.2178 16.6821V14.095H53.5566V13.1143H54.2178V12.0271ZM59.2722 13.9973C58.682 13.9973 58.2471 14.4278 58.2027 15.0535H60.3105C60.2884 14.4145 59.8712 13.9973 59.2722 13.9973ZM60.3283 16.509H61.522C61.38 17.4542 60.4969 18.0843 59.3077 18.0843C57.8211 18.0843 56.9114 17.1302 56.9114 15.5771C56.9114 14.024 57.8255 13.03 59.2588 13.03C60.6655 13.03 61.5619 13.9707 61.5619 15.4573V15.8567H58.1894V15.9365C58.1894 16.6421 58.6465 17.1169 59.3298 17.1169C59.818 17.1169 60.204 16.8862 60.3283 16.509ZM62.2586 18V13.1143H63.51V13.9885H63.5366C63.7008 13.385 64.1224 13.0566 64.6993 13.0566C64.8501 13.0566 64.9833 13.0743 65.0764 13.1054V14.2503C64.9655 14.2059 64.788 14.1748 64.5972 14.1748C63.9404 14.1748 63.5544 14.5831 63.5544 15.2665V18H62.2586ZM65.6311 18V13.1143H66.8825V14.0018H66.9092C67.1177 13.4116 67.6502 13.0433 68.3025 13.0433C69.0037 13.0433 69.5007 13.4027 69.6649 14.0417H69.6915C69.9134 13.4293 70.4991 13.0433 71.2091 13.0433C72.1676 13.0433 72.8111 13.6956 72.8111 14.6807V18H71.5153V15.0047C71.5153 14.4322 71.2269 14.1172 70.6988 14.1172C70.1885 14.1172 69.8468 14.4899 69.8468 15.0446V18H68.5954V14.9559C68.5954 14.4322 68.2937 14.1172 67.7922 14.1172C67.2819 14.1172 66.9269 14.5077 66.9269 15.0624V18H65.6311ZM75.8508 13.9973C75.2606 13.9973 74.8257 14.4278 74.7813 15.0535H76.8892C76.867 14.4145 76.4498 13.9973 75.8508 13.9973ZM76.9069 16.509H78.1006C77.9586 17.4542 77.0755 18.0843 75.8863 18.0843C74.3997 18.0843 73.49 17.1302 73.49 15.5771C73.49 14.024 74.4041 13.03 75.8375 13.03C77.2442 13.03 78.1405 13.9707 78.1405 15.4573V15.8567H74.768V15.9365C74.768 16.6421 75.2251 17.1169 75.9085 17.1169C76.3966 17.1169 76.7827 16.8862 76.9069 16.509ZM80.6566 18.0577C79.4407 18.0577 78.6553 17.0903 78.6553 15.5505C78.6553 14.0195 79.4452 13.0566 80.6611 13.0566C81.3666 13.0566 81.9124 13.4072 82.1565 13.9485H82.1831V11.2905H83.4789V18H82.2009V17.1657H82.1787C81.9391 17.7027 81.3755 18.0577 80.6566 18.0577ZM81.0871 14.1038C80.4126 14.1038 79.9821 14.6674 79.9821 15.5549C79.9821 16.4513 80.4126 17.0104 81.0871 17.0104C81.7571 17.0104 82.192 16.4424 82.192 15.5594C82.192 14.6763 81.7571 14.1038 81.0871 14.1038ZM84.4063 18V13.1143H85.7021V18H84.4063ZM85.0542 12.5818C84.6726 12.5818 84.3575 12.2889 84.3575 11.9028C84.3575 11.5168 84.6726 11.2283 85.0542 11.2283C85.4403 11.2283 85.7553 11.5168 85.7553 11.9028C85.7553 12.2889 85.4403 12.5818 85.0542 12.5818ZM88.4711 17.1125C89.0702 17.1125 89.5494 16.7397 89.5494 16.2072V15.8478L88.5244 15.9188C87.983 15.9543 87.6945 16.1673 87.6945 16.5267C87.6945 16.8862 88.0007 17.1125 88.4711 17.1125ZM88.0495 18.0577C87.1088 18.0577 86.4032 17.4675 86.4032 16.5933C86.4032 15.7058 87.0822 15.2044 88.3291 15.1289L89.5494 15.0535V14.7295C89.5494 14.2592 89.2255 14.0018 88.693 14.0018C88.2226 14.0018 87.8942 14.2503 87.8321 14.6053H86.6473C86.6828 13.6734 87.5259 13.03 88.7462 13.03C90.0021 13.03 90.823 13.6734 90.823 14.6497V18H89.5716V17.2456H89.545C89.2787 17.7559 88.6752 18.0577 88.0495 18.0577ZM89.2255 12.3954H88.2004L89.1811 11.0198H90.3926L89.2255 12.3954ZM91.6972 18V13.1143H92.9486V13.9885H92.9752C93.1394 13.385 93.561 13.0566 94.1378 13.0566C94.2887 13.0566 94.4218 13.0743 94.515 13.1054V14.2503C94.4041 14.2059 94.2266 14.1748 94.0358 14.1748C93.379 14.1748 92.993 14.5831 92.993 15.2665V18H91.6972ZM95.0919 18V13.1143H96.3877V18H95.0919ZM95.7398 12.5818C95.3582 12.5818 95.0431 12.2889 95.0431 11.9028C95.0431 11.5168 95.3582 11.2283 95.7398 11.2283C96.1259 11.2283 96.4409 11.5168 96.4409 11.9028C96.4409 12.2889 96.1259 12.5818 95.7398 12.5818ZM99.5161 18.0843C98.034 18.0843 97.1066 17.1347 97.1066 15.5549C97.1066 13.9929 98.0473 13.03 99.5161 13.03C100.989 13.03 101.926 13.9885 101.926 15.5549C101.926 17.1391 100.998 18.0843 99.5161 18.0843ZM99.5161 17.0859C100.2 17.0859 100.608 16.5267 100.608 15.5549C100.608 14.592 100.195 14.024 99.5161 14.024C98.8328 14.024 98.4201 14.5964 98.4201 15.5549C98.4201 16.5267 98.8328 17.0859 99.5161 17.0859Z" fill="#FF5200"/>
<path d="M73.4955 55.0768V63.3911H71.9456V57.7791H71.8995L69.6408 63.3104H68.5461L66.2875 57.7791H66.2414V63.3911H64.6914V55.0768H66.7081L69.0704 60.9711H69.1165L71.4789 55.0768H73.4955ZM77.5864 58.1939C76.8201 58.1939 76.2554 58.7528 76.1978 59.5653H78.9347C78.9059 58.7355 78.3643 58.1939 77.5864 58.1939ZM78.9577 61.4551H80.5077C80.3233 62.6824 79.1767 63.5006 77.6325 63.5006C75.7023 63.5006 74.5211 62.2618 74.5211 60.2451C74.5211 58.2285 75.7081 56.9379 77.5691 56.9379C79.3956 56.9379 80.5595 58.1594 80.5595 60.0896V60.6081H76.1805V60.7119C76.1805 61.628 76.774 62.2445 77.6613 62.2445C78.2951 62.2445 78.7964 61.9449 78.9577 61.4551ZM84.3739 62.0486C85.2497 62.0486 85.8143 61.3457 85.8143 60.2106C85.8143 59.0697 85.2497 58.3322 84.3739 58.3322C83.5038 58.3322 82.9507 59.0582 82.9507 60.2048C82.9507 61.3572 83.4981 62.0486 84.3739 62.0486ZM84.3566 65.7131C82.6914 65.7131 81.5218 64.9814 81.4353 63.8405H83.0947C83.2042 64.2612 83.7343 64.5262 84.3969 64.5262C85.2497 64.5262 85.8086 64.0883 85.8086 63.3738V62.2387H85.774C85.4686 62.9186 84.7253 63.3508 83.8092 63.3508C82.265 63.3508 81.2279 62.1523 81.2279 60.1991C81.2279 58.2112 82.2305 56.9724 83.838 56.9724C84.7484 56.9724 85.4686 57.4276 85.8028 58.1306H85.8316V57.0473H87.491V63.2471C87.491 64.7567 86.2638 65.7131 84.3566 65.7131ZM91.0576 62.2387C91.8355 62.2387 92.4577 61.7548 92.4577 61.0633V60.5966L91.1267 60.6888C90.4238 60.7349 90.0493 61.0115 90.0493 61.4782C90.0493 61.9449 90.4468 62.2387 91.0576 62.2387ZM90.5102 63.466C89.2887 63.466 88.3726 62.6997 88.3726 61.5646C88.3726 60.4122 89.2541 59.7612 90.8732 59.6632L92.4577 59.5653V59.1446C92.4577 58.5339 92.0371 58.1997 91.3457 58.1997C90.7349 58.1997 90.3086 58.5224 90.2279 58.9833H88.6895C88.7356 57.7733 89.8303 56.9379 91.4148 56.9379C93.0454 56.9379 94.1114 57.7733 94.1114 59.0409V63.3911H92.4865V62.4116H92.452C92.1063 63.0742 91.3226 63.466 90.5102 63.466ZM95.137 58.9142C95.137 57.7215 96.1856 56.9379 97.7932 56.9379C99.3604 56.9379 100.403 57.7387 100.426 58.9487H98.8707C98.8361 58.4475 98.4155 58.1306 97.7701 58.1306C97.1652 58.1306 96.7618 58.4014 96.7618 58.8104C96.7618 59.1274 97.0384 59.3405 97.6088 59.4731L98.8015 59.7323C100.075 60.0204 100.582 60.5102 100.582 61.4551C100.582 62.6882 99.4468 63.5006 97.7874 63.5006C96.1165 63.5006 95.0678 62.6939 94.9814 61.4724H96.6235C96.7042 62.0083 97.1363 62.3079 97.8335 62.3079C98.5019 62.3079 98.911 62.0486 98.911 61.6338C98.911 61.3053 98.692 61.1325 98.1159 60.9942L96.9462 60.7291C95.7535 60.4583 95.137 59.8418 95.137 58.9142Z" fill="black"/>
<path d="M28.8002 39.0985V34.3823H32.5862C35.5717 34.3823 37.5837 32.6083 37.5837 30.0338C37.5837 27.5026 35.788 25.8368 32.5429 25.8368C29.5142 25.8368 27.5022 27.6324 27.3291 30.3583H21.3148C21.5528 24.582 26.0527 20.8177 32.8242 20.8177C39.3144 20.8177 43.7494 24.1493 43.7494 29.1468C43.7494 32.9761 41.1317 35.7452 37.3024 36.4375V36.5673C41.9538 36.9567 44.9609 39.7692 44.9609 44.096C44.9609 49.6992 39.8769 53.4203 32.6727 53.4203C25.62 53.4203 21.012 49.5478 20.7091 43.7931H26.9613C27.156 46.4324 29.3195 48.1632 32.7593 48.1632C36.026 48.1632 38.3192 46.3243 38.3192 43.6849C38.3192 40.8292 36.1775 39.0985 32.6511 39.0985H28.8002ZM61.1216 53.4203C54.415 53.4203 49.5906 49.4396 49.3959 43.7931H55.4318C55.7996 46.4324 58.1361 48.2497 61.1648 48.2497C64.583 48.2497 66.9411 45.87 66.9411 42.4734C66.9411 39.012 64.583 36.5889 61.2081 36.5889C58.85 36.5889 56.8164 37.6706 55.7347 39.4663H49.8935L51.4295 21.51H71.2896V26.7022H56.5568L55.8428 35.2476H55.9726C57.2491 33.1491 59.737 31.8294 62.9172 31.8294C68.8882 31.8294 73.1717 36.2212 73.1717 42.3003C73.1717 48.9204 68.2824 53.4203 61.1216 53.4203ZM89.0295 53.4203C81.1763 53.4203 76.3952 47.168 76.3952 37.0649C76.3952 26.9834 81.2196 20.7961 89.0295 20.7961C96.8394 20.7961 101.642 26.9618 101.642 37.0433C101.642 47.1247 96.8827 53.4203 89.0295 53.4203ZM89.0295 48.1848C92.7506 48.1848 95.0005 44.1825 95.0005 37.0649C95.0005 30.0122 92.7289 26.0315 89.0295 26.0315C85.3517 26.0315 83.0369 30.0338 83.0369 37.0649C83.0369 44.1609 85.3085 48.1848 89.0295 48.1848Z" fill="#FF5200"/>
<path d="M255.095 54.4614C256.014 54.4614 256.646 55.2114 256.646 56.3196C256.646 57.4312 256.017 58.1813 255.102 58.1813C254.517 58.1813 254.061 57.8637 253.858 57.3907H253.848V59.3469H253.402V54.5019H253.824V55.2554H253.835C254.027 54.7925 254.517 54.4614 255.095 54.4614ZM255.017 57.7792C255.72 57.7792 256.189 57.1981 256.189 56.323C256.189 55.4479 255.72 54.8601 255.017 54.8601C254.324 54.8601 253.845 55.4581 253.845 56.3196C253.845 57.188 254.324 57.7792 255.017 57.7792ZM258.737 58.1813C257.737 58.1813 257.085 57.4549 257.085 56.3196C257.085 55.1844 257.737 54.4614 258.737 54.4614C259.737 54.4614 260.393 55.1844 260.393 56.3196C260.393 57.4549 259.737 58.1813 258.737 58.1813ZM258.737 57.7792C259.477 57.7792 259.936 57.2285 259.936 56.3196C259.936 55.4108 259.477 54.8601 258.737 54.8601C258 54.8601 257.541 55.4142 257.541 56.3196C257.541 57.2285 258 57.7792 258.737 57.7792ZM261.018 58.1407V54.5019H261.437V55.1472H261.45C261.575 54.7148 261.92 54.4614 262.372 54.4614C262.491 54.4614 262.599 54.4816 262.656 54.4985V54.9411C262.595 54.9141 262.467 54.8905 262.312 54.8905C261.795 54.8905 261.464 55.2959 261.464 55.8838V58.1407H261.018ZM264.694 58.1407V54.5019H265.113V55.181H265.126C265.281 54.7519 265.67 54.4614 266.187 54.4614C266.714 54.4614 267.099 54.7655 267.238 55.225H267.248C267.42 54.7756 267.853 54.4614 268.4 54.4614C269.11 54.4614 269.576 54.9344 269.576 55.6709V58.1407H269.126V55.7723C269.126 55.2047 268.812 54.8601 268.278 54.8601C267.734 54.8601 267.356 55.279 267.356 55.8669V58.1407H266.91V55.7284C266.91 55.2081 266.569 54.8601 266.069 54.8601C265.528 54.8601 265.14 55.2959 265.14 55.921V58.1407H264.694ZM271.964 52.897L272.887 53.914H272.458L271.809 53.1707H271.792L271.143 53.914H270.714L271.637 52.897H271.964ZM271.796 54.8567C271.143 54.8567 270.684 55.3432 270.643 56.0662H272.907C272.9 55.3432 272.454 54.8567 271.796 54.8567ZM272.883 57.1103H273.326C273.218 57.7319 272.62 58.1813 271.829 58.1813C270.822 58.1813 270.181 57.4751 270.181 56.3298C270.181 55.2013 270.822 54.4614 271.802 54.4614C272.758 54.4614 273.373 55.154 273.373 56.2352V56.4311H270.643V56.4548C270.643 57.2792 271.116 57.786 271.839 57.786C272.387 57.786 272.775 57.5089 272.883 57.1103ZM273.924 55.4817C273.924 54.8803 274.482 54.4614 275.232 54.4614C275.968 54.4614 276.502 54.9006 276.539 55.5257H276.11C276.066 55.1135 275.732 54.8398 275.218 54.8398C274.732 54.8398 274.367 55.0898 274.367 55.4581C274.367 55.7554 274.583 55.9277 275.046 56.0426L275.603 56.1777C276.333 56.3602 276.61 56.6237 276.61 57.1407C276.61 57.7556 276.026 58.1813 275.208 58.1813C274.428 58.1813 273.867 57.7353 273.816 57.117H274.269C274.323 57.5326 274.684 57.8063 275.235 57.8063C275.779 57.8063 276.157 57.5562 276.157 57.1711C276.157 56.8636 275.972 56.6947 275.478 56.573L274.863 56.4176C274.235 56.2588 273.924 55.9615 273.924 55.4817Z" fill="black"/>
<path d="M233.943 48L244.27 28.095V27.9952H232.064V24.0042H249.225V28.0451L239.215 48H233.943ZM260.982 48.5321C256.393 48.5321 252.784 45.805 252.119 41.8805H257.074C257.557 43.4935 259.136 44.5578 261.065 44.5578C264.375 44.5578 266.387 41.4149 266.254 35.9107C266.237 35.9107 266.204 35.9107 266.204 35.9107H266.17H266.154C265.289 38.2554 262.928 39.8351 259.768 39.8351C255.245 39.8351 251.803 36.4761 251.803 31.9197C251.803 26.9809 255.694 23.4555 261.049 23.4555C264.508 23.4555 267.384 25.002 269.047 27.8456C270.378 29.8909 271.059 32.5849 271.059 35.7943C271.059 43.743 267.301 48.5321 260.982 48.5321ZM261.082 36.0603C263.576 36.0603 265.472 34.2311 265.472 31.8033C265.472 29.3588 263.56 27.4631 261.115 27.4631C258.654 27.4631 256.709 29.3588 256.709 31.77C256.709 34.2311 258.588 36.0603 261.082 36.0603Z" fill="#FF5200"/>
<path d="M277.111 37.1414H275.444L276.07 33.0606H278.145L277.111 37.1414ZM283.772 35.3386C281.69 35.3386 280.053 34.1015 279.751 32.3214H281.999C282.218 33.0531 282.934 33.5358 283.809 33.5358C285.31 33.5358 286.223 32.1102 286.163 29.6134C286.155 29.6134 286.14 29.6134 286.14 29.6134H286.125H286.118C285.725 30.677 284.654 31.3936 283.221 31.3936C281.169 31.3936 279.608 29.8699 279.608 27.8031C279.608 25.5628 281.373 23.9636 283.802 23.9636C285.371 23.9636 286.676 24.6651 287.43 25.955C288.033 26.8828 288.343 28.1048 288.343 29.5606C288.343 33.1662 286.638 35.3386 283.772 35.3386ZM283.817 29.6813C284.948 29.6813 285.808 28.8516 285.808 27.7503C285.808 26.6414 284.941 25.7815 283.832 25.7815C282.716 25.7815 281.833 26.6414 281.833 27.7352C281.833 28.8516 282.685 29.6813 283.817 29.6813ZM293.744 35.3386C291.662 35.3386 290.025 34.1015 289.723 32.3214H291.971C292.19 33.0531 292.906 33.5358 293.781 33.5358C295.282 33.5358 296.195 32.1102 296.135 29.6134C296.127 29.6134 296.112 29.6134 296.112 29.6134H296.097H296.09C295.697 30.677 294.626 31.3936 293.193 31.3936C291.141 31.3936 289.58 29.8699 289.58 27.8031C289.58 25.5628 291.345 23.9636 293.774 23.9636C295.343 23.9636 296.648 24.6651 297.402 25.955C298.005 26.8828 298.315 28.1048 298.315 29.5606C298.315 33.1662 296.61 35.3386 293.744 35.3386ZM293.789 29.6813C294.92 29.6813 295.78 28.8516 295.78 27.7503C295.78 26.6414 294.913 25.7815 293.804 25.7815C292.688 25.7815 291.805 26.6414 291.805 27.7352C291.805 28.8516 292.657 29.6813 293.789 29.6813Z" fill="#FF5200"/>
<circle cx="275.619" cy="42.9912" r="4.7114" fill="#FFD61F"/>
<path d="M273.536 42.6739V43.7254H274.141C274.489 43.7254 274.692 43.5265 274.692 43.1997C274.692 42.8796 274.477 42.6739 274.135 42.6739H273.536ZM273.536 44.226V45.4329H272.845V42.1345H274.208C274.967 42.1345 275.401 42.5345 275.401 43.1859C275.401 43.6088 275.181 43.9745 274.802 44.1231L275.497 45.4329H274.715L274.1 44.226H273.536ZM277.273 45.746H276.951V45.4534C276.233 45.4123 275.796 45.0511 275.794 44.4911H276.448C276.464 44.7288 276.66 44.9026 276.951 44.9346V44.0431L276.708 43.986C276.157 43.858 275.863 43.5402 275.863 43.0648C275.863 42.5048 276.265 42.1436 276.951 42.0888V41.7756H277.273V42.091C277.913 42.1482 278.324 42.5231 278.334 43.0488H277.698C277.691 42.8316 277.517 42.6533 277.273 42.6191V43.4717L277.517 43.5197C278.103 43.6477 278.395 43.9517 278.395 44.4477C278.395 45.0283 277.991 45.3894 277.273 45.4511V45.746ZM277.748 44.5208C277.748 44.2991 277.597 44.1643 277.273 44.1002V44.9368C277.572 44.9186 277.748 44.7631 277.748 44.5208ZM276.523 43.0076C276.523 43.2088 276.672 43.3459 276.951 43.4054V42.6168C276.701 42.6305 276.523 42.7905 276.523 43.0076Z" fill="#FFFFD6"/>
<path d="M124.27 28H123.11V20.5277H124.27V28ZM125.534 28V22.3763H126.605V23.324H126.626C126.968 22.6611 127.532 22.3142 128.402 22.3142C129.645 22.3142 130.355 23.1013 130.355 24.3959V28H129.231V24.6082C129.231 23.7538 128.837 23.2774 128.014 23.2774C127.165 23.2774 126.657 23.8677 126.657 24.7532V28H125.534ZM131.815 21.1128H132.933V22.3763H134.01V23.2618H132.933V26.4051C132.933 26.8918 133.151 27.1197 133.622 27.1197C133.741 27.1197 133.933 27.1041 134.005 27.0938V27.9793C133.881 28.0104 133.617 28.0362 133.374 28.0362C132.25 28.0362 131.815 27.6064 131.815 26.519V23.2618H131.038V22.3763H131.815V21.1128ZM137.164 23.2204C136.356 23.2204 135.771 23.8107 135.709 24.6755H138.562C138.536 23.8004 137.982 23.2204 137.164 23.2204ZM138.557 26.3533H139.629C139.468 27.3631 138.479 28.0673 137.216 28.0673C135.585 28.0673 134.57 26.9695 134.57 25.2089C134.57 23.4482 135.595 22.3038 137.169 22.3038C138.712 22.3038 139.686 23.3758 139.686 25.0794V25.473H135.704V25.5403C135.704 26.5138 136.315 27.1559 137.237 27.1559C137.889 27.1559 138.402 26.8452 138.557 26.3533ZM140.592 28V22.3763H141.664V23.324H141.685C141.861 22.6974 142.379 22.3194 143.041 22.3194C143.207 22.3194 143.347 22.3349 143.435 22.3556V23.4068C143.342 23.3706 143.145 23.3395 142.922 23.3395C142.182 23.3395 141.716 23.8522 141.716 24.6444V28H140.592ZM144.155 28V22.3763H145.227V23.324H145.247C145.589 22.6611 146.154 22.3142 147.024 22.3142C148.266 22.3142 148.976 23.1013 148.976 24.3959V28H147.852V24.6082C147.852 23.7538 147.459 23.2774 146.635 23.2774C145.786 23.2774 145.279 23.8677 145.279 24.7532V28H144.155ZM152.44 23.2204C151.632 23.2204 151.047 23.8107 150.985 24.6755H153.838C153.812 23.8004 153.258 23.2204 152.44 23.2204ZM153.833 26.3533H154.905C154.745 27.3631 153.755 28.0673 152.492 28.0673C150.861 28.0673 149.846 26.9695 149.846 25.2089C149.846 23.4482 150.871 22.3038 152.445 22.3038C153.988 22.3038 154.962 23.3758 154.962 25.0794V25.473H150.98V25.5403C150.98 26.5138 151.591 27.1559 152.513 27.1559C153.165 27.1559 153.678 26.8452 153.833 26.3533ZM156.205 21.1128H157.323V22.3763H158.4V23.2618H157.323V26.4051C157.323 26.8918 157.541 27.1197 158.012 27.1197C158.131 27.1197 158.323 27.1041 158.395 27.0938V27.9793C158.271 28.0104 158.007 28.0362 157.763 28.0362C156.64 28.0362 156.205 27.6064 156.205 26.519V23.2618H155.428V22.3763H156.205V21.1128ZM163.066 28H161.906V20.5277H166.572V21.5271H163.066V23.8936H166.277V24.8723H163.066V28ZM167.509 28V22.3763H168.633V28H167.509ZM168.074 21.5737C167.711 21.5737 167.416 21.2837 167.416 20.9264C167.416 20.5587 167.711 20.2791 168.074 20.2791C168.436 20.2791 168.731 20.5587 168.731 20.9264C168.731 21.2837 168.436 21.5737 168.074 21.5737ZM172.791 28.057C171.973 28.057 171.331 27.6945 170.984 27.0472H170.958V28H169.876V20.1911H170.999V23.3084H171.02C171.362 22.6767 172.004 22.3194 172.801 22.3194C174.22 22.3194 175.152 23.4431 175.152 25.1882C175.152 26.9333 174.22 28.057 172.791 28.057ZM172.506 23.2722C171.6 23.2722 170.994 24.0489 170.994 25.1882C170.994 26.3326 171.6 27.1041 172.506 27.1041C173.412 27.1041 174.003 26.3533 174.003 25.1882C174.003 24.023 173.412 23.2722 172.506 23.2722ZM176.053 28V22.3763H177.125V23.324H177.146C177.322 22.6974 177.84 22.3194 178.503 22.3194C178.668 22.3194 178.808 22.3349 178.896 22.3556V23.4068C178.803 23.3706 178.606 23.3395 178.384 23.3395C177.643 23.3395 177.177 23.8522 177.177 24.6444V28H176.053ZM181.454 27.1611C182.288 27.1611 182.92 26.6277 182.92 25.8872V25.4471L181.553 25.5403C180.786 25.5869 180.388 25.8717 180.388 26.3688C180.388 26.8504 180.807 27.1611 181.454 27.1611ZM181.154 28.057C180.03 28.057 179.254 27.3941 179.254 26.3895C179.254 25.4057 180.015 24.836 181.403 24.748L182.92 24.66V24.225C182.92 23.5829 182.49 23.2308 181.739 23.2308C181.128 23.2308 180.683 23.5466 180.584 24.0334H179.533C179.564 23.0392 180.507 22.3038 181.77 22.3038C183.142 22.3038 184.028 23.0288 184.028 24.1421V28H182.956V27.0627H182.93C182.619 27.6738 181.92 28.057 181.154 28.057ZM191.402 19.9684H190.491L191.687 18.3994H192.852L191.402 19.9684ZM190.946 20.4034C193.095 20.4034 194.447 21.8896 194.447 24.2664C194.447 26.6433 193.095 28.1243 190.946 28.1243C188.792 28.1243 187.446 26.6433 187.446 24.2664C187.446 21.8896 188.792 20.4034 190.946 20.4034ZM190.946 21.4235C189.527 21.4235 188.631 22.5213 188.631 24.2664C188.631 26.0063 189.527 27.1041 190.946 27.1041C192.365 27.1041 193.256 26.0063 193.256 24.2664C193.256 22.5213 192.365 21.4235 190.946 21.4235ZM198.341 22.3194C199.775 22.3194 200.718 23.4431 200.718 25.1882C200.718 26.9281 199.78 28.057 198.367 28.057C197.559 28.057 196.922 27.6997 196.585 27.0783H196.565V29.8642H195.441V22.3763H196.523V23.3084H196.549C196.865 22.7026 197.559 22.3194 198.341 22.3194ZM198.056 27.1041C198.967 27.1041 199.568 26.3533 199.568 25.1882C199.568 24.0282 198.967 23.2722 198.056 23.2722C197.165 23.2722 196.56 24.0438 196.554 25.1882C196.56 26.3378 197.16 27.1041 198.056 27.1041ZM201.95 21.1128H203.069V22.3763H204.146V23.2618H203.069V26.4051C203.069 26.8918 203.286 27.1197 203.757 27.1197C203.876 27.1197 204.068 27.1041 204.141 27.0938V27.9793C204.016 28.0104 203.752 28.0362 203.509 28.0362C202.385 28.0362 201.95 27.6064 201.95 26.519V23.2618H201.173V22.3763H201.95V21.1128ZM205.135 28V22.3763H206.259V28H205.135ZM205.699 21.5737C205.337 21.5737 205.042 21.2837 205.042 20.9264C205.042 20.5587 205.337 20.2791 205.699 20.2791C206.062 20.2791 206.357 20.5587 206.357 20.9264C206.357 21.2837 206.062 21.5737 205.699 21.5737ZM212.26 24.2975H211.188C211.085 23.702 210.619 23.2515 209.847 23.2515C208.941 23.2515 208.34 24.0075 208.34 25.1882C208.34 26.3999 208.951 27.1249 209.852 27.1249C210.582 27.1249 211.064 26.7676 211.199 26.1099H212.271C212.141 27.2854 211.199 28.0673 209.847 28.0673C208.252 28.0673 207.201 26.9695 207.201 25.1882C207.201 23.4379 208.247 22.3038 209.837 22.3038C211.271 22.3038 212.162 23.2152 212.26 24.2975ZM215.051 27.1611C215.885 27.1611 216.517 26.6277 216.517 25.8872V25.4471L215.15 25.5403C214.383 25.5869 213.985 25.8717 213.985 26.3688C213.985 26.8504 214.404 27.1611 215.051 27.1611ZM214.751 28.057C213.627 28.057 212.851 27.3941 212.851 26.3895C212.851 25.4057 213.612 24.836 215 24.748L216.517 24.66V24.225C216.517 23.5829 216.087 23.2308 215.336 23.2308C214.725 23.2308 214.28 23.5466 214.181 24.0334H213.13C213.161 23.0392 214.104 22.3038 215.367 22.3038C216.739 22.3038 217.625 23.0288 217.625 24.1421V28H216.553V27.0627H216.527C216.216 27.6738 215.517 28.057 214.751 28.057Z" fill="black"/>
<path d="M122.779 38.609H123.923C124.006 39.3495 124.726 39.8362 125.71 39.8362C126.652 39.8362 127.33 39.3495 127.33 38.6815C127.33 38.1015 126.921 37.7546 125.953 37.5164L124.985 37.2833C123.612 36.9519 122.975 36.3098 122.975 35.269C122.975 33.9796 124.099 33.0941 125.694 33.0941C127.273 33.0941 128.356 33.9796 128.392 35.269H127.263C127.196 34.5233 126.58 34.0728 125.679 34.0728C124.778 34.0728 124.161 34.5285 124.161 35.1913C124.161 35.7195 124.555 36.0302 125.518 36.2684L126.341 36.4703C127.874 36.8328 128.511 37.449 128.511 38.5417C128.511 39.9398 127.398 40.815 125.627 40.815C123.97 40.815 122.851 39.9605 122.779 38.609ZM131.779 35.9111C130.971 35.9111 130.386 36.5014 130.324 37.3662H133.177C133.151 36.4911 132.597 35.9111 131.779 35.9111ZM133.172 39.044H134.244C134.083 40.0537 133.094 40.758 131.83 40.758C130.199 40.758 129.184 39.6602 129.184 37.8996C129.184 36.1389 130.21 34.9945 131.784 34.9945C133.327 34.9945 134.3 36.0664 134.3 37.7701V38.1636H130.318V38.231C130.318 39.2045 130.929 39.8466 131.851 39.8466C132.504 39.8466 133.016 39.5359 133.172 39.044ZM135.207 40.6907V35.067H136.279V36.0198H136.299C136.558 35.3881 137.164 35.0049 137.899 35.0049C138.681 35.0049 139.246 35.3984 139.474 36.0975H139.5C139.795 35.4191 140.458 35.0049 141.26 35.0049C142.368 35.0049 143.093 35.735 143.093 36.8587V40.6907H141.975V37.128C141.975 36.3927 141.576 35.968 140.877 35.968C140.188 35.968 139.701 36.4807 139.701 37.2005V40.6907H138.598V37.0348C138.598 36.3823 138.179 35.968 137.521 35.968C136.827 35.968 136.33 36.5066 136.33 37.2419V40.6907H135.207ZM150.006 33.0941C152.155 33.0941 153.507 34.5802 153.507 36.9571C153.507 39.334 152.155 40.815 150.006 40.815C147.852 40.815 146.506 39.334 146.506 36.9571C146.506 34.5802 147.852 33.0941 150.006 33.0941ZM150.006 34.1142C148.587 34.1142 147.692 35.212 147.692 36.9571C147.692 38.697 148.587 39.7948 150.006 39.7948C151.425 39.7948 152.316 38.697 152.316 36.9571C152.316 35.212 151.425 34.1142 150.006 34.1142ZM154.366 36.6671C154.366 35.6781 155.252 34.9997 156.547 34.9997C157.779 34.9997 158.67 35.6936 158.696 36.6723H157.639C157.593 36.1752 157.163 35.8645 156.521 35.8645C155.884 35.8645 155.459 36.1596 155.459 36.605C155.459 36.9467 155.739 37.1798 156.334 37.3248L157.266 37.5474C158.4 37.8219 158.82 38.231 158.82 39.0595C158.82 40.0641 157.867 40.758 156.505 40.758C155.195 40.758 154.299 40.0796 154.216 39.0647H155.324C155.413 39.6032 155.847 39.8984 156.562 39.8984C157.261 39.8984 157.701 39.6084 157.701 39.1527C157.701 38.7954 157.479 38.609 156.888 38.4588L155.884 38.2103C154.869 37.9617 154.366 37.4439 154.366 36.6671ZM164.537 36.9882H163.465C163.361 36.3927 162.895 35.9421 162.124 35.9421C161.217 35.9421 160.617 36.6982 160.617 37.8788C160.617 39.0906 161.228 39.8155 162.129 39.8155C162.859 39.8155 163.341 39.4582 163.475 38.8006H164.547C164.418 39.9761 163.475 40.758 162.124 40.758C160.529 40.758 159.478 39.6602 159.478 37.8788C159.478 36.1286 160.524 34.9945 162.113 34.9945C163.548 34.9945 164.438 35.9059 164.537 36.9882ZM165.417 40.6907V35.067H166.541V40.6907H165.417ZM165.981 34.2644C165.619 34.2644 165.324 33.9744 165.324 33.6171C165.324 33.2494 165.619 32.9698 165.981 32.9698C166.344 32.9698 166.639 33.2494 166.639 33.6171C166.639 33.9744 166.344 34.2644 165.981 34.2644ZM167.784 40.6907V32.8818H168.907V40.6907H167.784ZM172.061 39.8518C172.895 39.8518 173.526 39.3184 173.526 38.5779V38.1378L172.159 38.231C171.393 38.2776 170.994 38.5624 170.994 39.0595C170.994 39.5411 171.414 39.8518 172.061 39.8518ZM171.76 40.7476C170.637 40.7476 169.86 40.0848 169.86 39.0802C169.86 38.0963 170.621 37.5267 172.009 37.4387L173.526 37.3507V36.9157C173.526 36.2736 173.097 35.9214 172.346 35.9214C171.735 35.9214 171.289 36.2373 171.191 36.7241H170.14C170.171 35.7298 171.113 34.9945 172.377 34.9945C173.749 34.9945 174.634 35.7195 174.634 36.8328V40.6907H173.563V39.7534H173.537C173.226 40.3644 172.527 40.7476 171.76 40.7476ZM179.507 38.8006H180.579C180.46 39.8725 179.668 40.613 178.508 40.7373L178.264 41.3742C178.938 41.3742 179.3 41.6538 179.3 42.1717C179.3 42.7258 178.829 43.0986 178.13 43.1038C177.84 43.109 177.596 43.0831 177.379 43.0157V42.472C177.488 42.5134 177.773 42.5445 177.99 42.5445C178.384 42.5445 178.586 42.4306 178.586 42.2027C178.586 41.9697 178.378 41.8765 177.855 41.8765H177.571V41.4467L177.855 40.7425C176.431 40.613 175.51 39.5463 175.51 37.8788C175.51 36.1286 176.556 34.9945 178.145 34.9945C179.58 34.9945 180.47 35.9059 180.569 36.9882H179.497C179.393 36.3927 178.927 35.9421 178.156 35.9421C177.25 35.9421 176.649 36.6982 176.649 37.8788C176.649 39.0906 177.26 39.8155 178.161 39.8155C178.891 39.8155 179.373 39.4582 179.507 38.8006ZM184.52 34.1763C183.836 34.1763 183.609 33.4203 183.21 33.4203C182.982 33.4203 182.858 33.674 182.852 34.0935H182.184C182.184 33.2546 182.573 32.7627 183.174 32.7627C183.893 32.7627 184.121 33.5187 184.499 33.5187C184.717 33.5187 184.825 33.2753 184.825 32.8352H185.499C185.499 33.6585 185.095 34.1763 184.52 34.1763ZM183.816 40.758C182.19 40.758 181.154 39.6498 181.154 37.8788C181.154 36.113 182.195 34.9945 183.816 34.9945C185.436 34.9945 186.472 36.1079 186.472 37.8788C186.472 39.6498 185.442 40.758 183.816 40.758ZM183.816 39.8259C184.768 39.8259 185.333 39.1061 185.333 37.8788C185.333 36.6516 184.768 35.9266 183.816 35.9266C182.863 35.9266 182.293 36.6568 182.293 37.8788C182.293 39.1061 182.863 39.8259 183.816 39.8259ZM189.714 35.9111C188.906 35.9111 188.321 36.5014 188.259 37.3662H191.112C191.086 36.4911 190.532 35.9111 189.714 35.9111ZM191.107 39.044H192.179C192.018 40.0537 191.029 40.758 189.766 40.758C188.134 40.758 187.119 39.6602 187.119 37.8996C187.119 36.1389 188.145 34.9945 189.719 34.9945C191.262 34.9945 192.236 36.0664 192.236 37.7701V38.1636H188.253V38.231C188.253 39.2045 188.865 39.8466 189.786 39.8466C190.439 39.8466 190.951 39.5359 191.107 39.044ZM193.049 36.6671C193.049 35.6781 193.934 34.9997 195.229 34.9997C196.461 34.9997 197.352 35.6936 197.378 36.6723H196.321C196.275 36.1752 195.845 35.8645 195.203 35.8645C194.566 35.8645 194.141 36.1596 194.141 36.605C194.141 36.9467 194.421 37.1798 195.016 37.3248L195.948 37.5474C197.083 37.8219 197.502 38.231 197.502 39.0595C197.502 40.0641 196.549 40.758 195.187 40.758C193.877 40.758 192.981 40.0796 192.898 39.0647H194.007C194.095 39.6032 194.53 39.8984 195.244 39.8984C195.943 39.8984 196.383 39.6084 196.383 39.1527C196.383 38.7954 196.161 38.609 195.57 38.4588L194.566 38.2103C193.551 37.9617 193.049 37.4439 193.049 36.6671Z" fill="#FF5200"/>
<path d="M124.27 54.3578H123.11V46.8855H124.27V54.3578ZM125.534 54.3578V48.7341H126.605V49.6818H126.626C126.968 49.0189 127.532 48.672 128.402 48.672C129.645 48.672 130.355 49.4591 130.355 50.7537V54.3578H129.231V50.966C129.231 50.1116 128.837 49.6352 128.014 49.6352C127.165 49.6352 126.657 50.2255 126.657 51.111V54.3578H125.534ZM131.385 50.3342C131.385 49.3452 132.271 48.6668 133.565 48.6668C134.798 48.6668 135.688 49.3607 135.714 50.3394H134.658C134.611 49.8423 134.181 49.5316 133.539 49.5316C132.902 49.5316 132.478 49.8268 132.478 50.2721C132.478 50.6139 132.757 50.8469 133.353 50.9919L134.285 51.2145C135.419 51.489 135.838 51.8981 135.838 52.7266C135.838 53.7312 134.886 54.4251 133.524 54.4251C132.214 54.4251 131.318 53.7467 131.235 52.7318H132.343C132.431 53.2703 132.866 53.5655 133.581 53.5655C134.28 53.5655 134.72 53.2755 134.72 52.8198C134.72 52.4625 134.497 52.2761 133.907 52.1259L132.902 51.8774C131.887 51.6288 131.385 51.111 131.385 50.3342ZM137.086 47.4706H138.205V48.7341H139.282V49.6196H138.205V52.7629C138.205 53.2496 138.422 53.4775 138.894 53.4775C139.013 53.4775 139.204 53.4619 139.277 53.4516V54.3371C139.153 54.3681 138.888 54.394 138.645 54.394C137.521 54.394 137.086 53.9642 137.086 52.8768V49.6196H136.31V48.7341H137.086V47.4706ZM142.14 53.5189C142.974 53.5189 143.606 52.9855 143.606 52.245V51.8049L142.239 51.8981C141.472 51.9447 141.074 52.2295 141.074 52.7266C141.074 53.2082 141.493 53.5189 142.14 53.5189ZM141.84 54.4147C140.716 54.4147 139.94 53.7519 139.94 52.7473C139.94 51.7634 140.701 51.1938 142.089 51.1058L143.606 51.0178V50.5828C143.606 49.9407 143.176 49.5885 142.425 49.5885C141.814 49.5885 141.369 49.9044 141.27 50.3912H140.219C140.25 49.397 141.193 48.6616 142.456 48.6616C143.829 48.6616 144.714 49.3866 144.714 50.4999V54.3578H143.642V53.4205H143.616C143.306 54.0316 142.607 54.4147 141.84 54.4147ZM145.89 54.3578V46.5489H147.013V54.3578H145.89ZM150.167 53.5189C151.001 53.5189 151.632 52.9855 151.632 52.245V51.8049L150.265 51.8981C149.499 51.9447 149.1 52.2295 149.1 52.7266C149.1 53.2082 149.52 53.5189 150.167 53.5189ZM149.867 54.4147C148.743 54.4147 147.966 53.7519 147.966 52.7473C147.966 51.7634 148.727 51.1938 150.115 51.1058L151.632 51.0178V50.5828C151.632 49.9407 151.203 49.5885 150.452 49.5885C149.841 49.5885 149.395 49.9044 149.297 50.3912H148.246C148.277 49.397 149.219 48.6616 150.483 48.6616C151.855 48.6616 152.74 49.3866 152.74 50.4999V54.3578H151.669V53.4205H151.643C151.332 54.0316 150.633 54.4147 149.867 54.4147ZM157.613 52.4677H158.685C158.566 53.5396 157.774 54.2801 156.614 54.4044L156.371 55.0413C157.044 55.0413 157.406 55.321 157.406 55.8388C157.406 56.3929 156.935 56.7657 156.236 56.7709C155.946 56.7761 155.702 56.7502 155.485 56.6829V56.1391C155.594 56.1806 155.879 56.2116 156.096 56.2116C156.49 56.2116 156.692 56.0977 156.692 55.8699C156.692 55.6368 156.484 55.5436 155.961 55.5436H155.677V55.1138L155.961 54.4096C154.537 54.2801 153.616 53.2134 153.616 51.546C153.616 49.7957 154.662 48.6616 156.251 48.6616C157.686 48.6616 158.576 49.573 158.675 50.6553H157.603C157.499 50.0598 157.033 49.6093 156.262 49.6093C155.356 49.6093 154.755 50.3653 154.755 51.546C154.755 52.7577 155.366 53.4827 156.267 53.4827C156.997 53.4827 157.479 53.1253 157.613 52.4677ZM161.466 53.5189C162.3 53.5189 162.931 52.9855 162.931 52.245V51.8049L161.564 51.8981C160.798 51.9447 160.399 52.2295 160.399 52.7266C160.399 53.2082 160.819 53.5189 161.466 53.5189ZM161.166 54.4147C160.042 54.4147 159.265 53.7519 159.265 52.7473C159.265 51.7634 160.026 51.1938 161.414 51.1058L162.931 51.0178V50.5828C162.931 49.9407 162.502 49.5885 161.751 49.5885C161.14 49.5885 160.694 49.9044 160.596 50.3912H159.545C159.576 49.397 160.518 48.6616 161.782 48.6616C163.154 48.6616 164.04 49.3866 164.04 50.4999V54.3578H162.968V53.4205H162.942C162.631 54.0316 161.932 54.4147 161.166 54.4147ZM162.465 47.8435C161.782 47.8435 161.554 47.0874 161.155 47.0874C160.927 47.0874 160.803 47.3412 160.798 47.7606H160.13C160.13 46.9217 160.518 46.4298 161.119 46.4298C161.839 46.4298 162.067 47.1858 162.445 47.1858C162.662 47.1858 162.771 46.9424 162.771 46.5023H163.444C163.444 47.3256 163.04 47.8435 162.465 47.8435ZM167.576 54.4251C165.95 54.4251 164.915 53.3169 164.915 51.546C164.915 49.7801 165.956 48.6616 167.576 48.6616C169.197 48.6616 170.233 49.775 170.233 51.546C170.233 53.3169 169.202 54.4251 167.576 54.4251ZM167.576 53.493C168.529 53.493 169.094 52.7732 169.094 51.546C169.094 50.3187 168.529 49.5937 167.576 49.5937C166.624 49.5937 166.054 50.3239 166.054 51.546C166.054 52.7732 166.624 53.493 167.576 53.493ZM180.129 51.2508C180.129 53.2755 178.932 54.4821 176.908 54.4821C174.769 54.4821 173.423 52.9855 173.423 50.588C173.423 48.2318 174.764 46.7612 176.892 46.7612C178.554 46.7612 179.813 47.7451 180.072 49.2364H178.881C178.601 48.3095 177.871 47.7761 176.897 47.7761C175.468 47.7761 174.609 48.8222 174.609 50.5776C174.609 52.3641 175.494 53.4671 176.918 53.4671C178.13 53.4671 178.969 52.6904 178.984 51.5563V51.4269H177.053V50.4896H180.129V51.2508ZM181.149 54.3578V48.7341H182.221V49.6818H182.241C182.417 49.0552 182.935 48.6772 183.598 48.6772C183.764 48.6772 183.904 48.6927 183.992 48.7134V49.7646C183.898 49.7284 183.702 49.6973 183.479 49.6973C182.739 49.6973 182.272 50.2099 182.272 51.0022V54.3578H181.149ZM186.55 53.5189C187.384 53.5189 188.015 52.9855 188.015 52.245V51.8049L186.648 51.8981C185.882 51.9447 185.483 52.2295 185.483 52.7266C185.483 53.2082 185.903 53.5189 186.55 53.5189ZM186.249 54.4147C185.126 54.4147 184.349 53.7519 184.349 52.7473C184.349 51.7634 185.11 51.1938 186.498 51.1058L188.015 51.0178V50.5828C188.015 49.9407 187.585 49.5885 186.835 49.5885C186.224 49.5885 185.778 49.9044 185.68 50.3912H184.629C184.66 49.397 185.602 48.6616 186.866 48.6616C188.238 48.6616 189.123 49.3866 189.123 50.4999V54.3578H188.052V53.4205H188.026C187.715 54.0316 187.016 54.4147 186.249 54.4147ZM190.589 47.4706H191.707V48.7341H192.785V49.6196H191.707V52.7629C191.707 53.2496 191.925 53.4775 192.396 53.4775C192.515 53.4775 192.707 53.4619 192.779 53.4516V54.3371C192.655 54.3681 192.391 54.394 192.148 54.394C191.024 54.394 190.589 53.9642 190.589 52.8768V49.6196H189.812V48.7341H190.589V47.4706ZM198.527 48.7341V54.3578H197.455V53.3946H197.435C197.108 54.0626 196.539 54.4199 195.679 54.4199C194.452 54.4199 193.706 53.6276 193.706 52.3382V48.7341H194.83V52.1259C194.83 52.9907 195.239 53.4516 196.052 53.4516C196.891 53.4516 197.404 52.8664 197.404 51.9758V48.7341H198.527ZM199.718 54.3578V48.7341H200.842V54.3578H199.718ZM200.283 47.9315C199.92 47.9315 199.625 47.6415 199.625 47.2842C199.625 46.9165 199.92 46.6369 200.283 46.6369C200.645 46.6369 200.94 46.9165 200.94 47.2842C200.94 47.6415 200.645 47.9315 200.283 47.9315ZM202.375 47.4706H203.493V48.7341H204.57V49.6196H203.493V52.7629C203.493 53.2496 203.711 53.4775 204.182 53.4775C204.301 53.4775 204.493 53.4619 204.565 53.4516V54.3371C204.441 54.3681 204.177 54.394 203.933 54.394C202.81 54.394 202.375 53.9642 202.375 52.8768V49.6196H201.598V48.7341H202.375V47.4706ZM207.429 53.5189C208.263 53.5189 208.894 52.9855 208.894 52.245V51.8049L207.527 51.8981C206.761 51.9447 206.362 52.2295 206.362 52.7266C206.362 53.2082 206.782 53.5189 207.429 53.5189ZM207.128 54.4147C206.005 54.4147 205.228 53.7519 205.228 52.7473C205.228 51.7634 205.989 51.1938 207.377 51.1058L208.894 51.0178V50.5828C208.894 49.9407 208.464 49.5885 207.714 49.5885C207.103 49.5885 206.657 49.9044 206.559 50.3912H205.508C205.539 49.397 206.481 48.6616 207.745 48.6616C209.117 48.6616 210.002 49.3866 210.002 50.4999V54.3578H208.931V53.4205H208.905C208.594 54.0316 207.895 54.4147 207.128 54.4147Z" fill="#FF5200"/>
<path d="M113.122 25.0402L112.58 24.477C112.372 24.2607 112.087 24.1358 111.786 24.1299C111.486 24.1239 111.196 24.2374 110.98 24.4453C110.872 24.5484 110.786 24.6715 110.727 24.8078C110.667 24.944 110.635 25.0907 110.632 25.2394C110.629 25.3881 110.655 25.5359 110.71 25.6744C110.764 25.813 110.845 25.9394 110.948 26.0467L111.823 26.9572C111.986 27.1297 112.182 27.2679 112.399 27.3639C112.616 27.4598 112.85 27.5115 113.087 27.5159H113.115C113.585 27.5145 114.036 27.3279 114.37 26.9964L117.36 24.0051C117.572 23.7928 117.692 23.5048 117.692 23.2045C117.692 22.9042 117.572 22.6162 117.36 22.4038C117.255 22.2986 117.13 22.2151 116.993 22.1581C116.855 22.1012 116.708 22.0718 116.559 22.0718C116.41 22.0718 116.263 22.1012 116.125 22.1581C115.988 22.2151 115.863 22.2986 115.758 22.4038L113.122 25.0402Z" fill="#FF5200"/>
<path d="M113.122 37.3429L112.58 36.7797C112.372 36.5634 112.087 36.4385 111.786 36.4325C111.486 36.4266 111.196 36.5401 110.98 36.748C110.872 36.851 110.786 36.9742 110.727 37.1105C110.667 37.2467 110.635 37.3934 110.632 37.5421C110.629 37.6908 110.655 37.8386 110.71 37.9771C110.764 38.1156 110.845 38.2421 110.948 38.3493L111.823 39.2599C111.986 39.4323 112.182 39.5706 112.399 39.6665C112.616 39.7625 112.85 39.8142 113.087 39.8186H113.115C113.585 39.8172 114.036 39.6306 114.37 39.2991L117.36 36.3078C117.572 36.0954 117.692 35.8074 117.692 35.5071C117.692 35.2068 117.572 34.9188 117.36 34.7065C117.255 34.6012 117.13 34.5177 116.993 34.4608C116.855 34.4038 116.708 34.3745 116.559 34.3745C116.41 34.3745 116.263 34.4038 116.125 34.4608C115.988 34.5177 115.863 34.6012 115.758 34.7065L113.122 37.3429Z" fill="#FF5200"/>
<path d="M113.122 51.1834L112.58 50.6202C112.372 50.4039 112.087 50.279 111.786 50.2731C111.486 50.2671 111.196 50.3806 110.98 50.5885C110.872 50.6916 110.786 50.8147 110.727 50.951C110.667 51.0872 110.635 51.2339 110.632 51.3826C110.629 51.5313 110.655 51.6791 110.71 51.8176C110.764 51.9561 110.845 52.0826 110.948 52.1898L111.823 53.1004C111.986 53.2729 112.182 53.4111 112.399 53.5071C112.616 53.603 112.85 53.6547 113.087 53.6591H113.115C113.585 53.6577 114.036 53.4711 114.37 53.1396L117.36 50.1483C117.572 49.936 117.692 49.648 117.692 49.3477C117.692 49.0474 117.572 48.7594 117.36 48.547C117.255 48.4417 117.13 48.3583 116.993 48.3013C116.855 48.2443 116.708 48.215 116.559 48.215C116.41 48.215 116.263 48.2443 116.125 48.3013C115.988 48.3583 115.863 48.4417 115.758 48.547L113.122 51.1834Z" fill="#FF5200"/>
<rect x="93" y="76" width="133" height="17" rx="3" fill="#FF5200"/>
<path d="M123.842 87.0944C123.348 87.0944 122.898 86.9758 122.492 86.7387C122.085 86.4992 121.765 86.1774 121.53 85.7734C121.298 85.3669 121.181 84.9218 121.181 84.4379C121.181 83.954 121.298 83.5113 121.53 83.1097C121.765 82.7056 122.085 82.3863 122.492 82.1516C122.898 81.9169 123.348 81.7996 123.842 81.7996C124.139 81.7996 124.425 81.8444 124.698 81.9339C124.971 82.0234 125.219 82.1504 125.442 82.3149C125.485 82.3512 125.507 82.3899 125.507 82.431C125.507 82.4649 125.495 82.4976 125.471 82.529L124.778 83.4363C124.746 83.4798 124.708 83.5016 124.662 83.5016C124.633 83.5016 124.6 83.4907 124.564 83.469C124.455 83.3988 124.338 83.3431 124.212 83.302C124.088 83.2585 123.965 83.2367 123.842 83.2367C123.643 83.2367 123.456 83.2899 123.279 83.3964C123.105 83.5028 122.965 83.648 122.858 83.8319C122.754 84.0157 122.702 84.219 122.702 84.4415C122.702 84.6665 122.755 84.8722 122.862 85.0585C122.968 85.2448 123.108 85.3911 123.283 85.4976C123.457 85.604 123.643 85.6573 123.842 85.6573C123.989 85.6573 124.115 85.6415 124.219 85.6101C124.323 85.5762 124.44 85.5133 124.571 85.4214C124.605 85.3972 124.64 85.3851 124.676 85.3851C124.72 85.3851 124.757 85.4069 124.789 85.4504L125.467 86.3649C125.496 86.4012 125.511 86.4363 125.511 86.4702C125.511 86.5065 125.492 86.5391 125.453 86.5681C125.228 86.7375 124.977 86.8681 124.702 86.9601C124.428 87.0496 124.142 87.0944 123.842 87.0944ZM127.53 86.8476C127.53 86.9492 127.48 87 127.381 87H126.282C126.233 87 126.196 86.9867 126.169 86.9601C126.143 86.9335 126.129 86.896 126.129 86.8476V81.4802C126.129 81.4319 126.143 81.3944 126.169 81.3677C126.196 81.3411 126.233 81.3278 126.282 81.3278H127.381C127.48 81.3278 127.53 81.3786 127.53 81.4802V86.8476ZM128.631 82.1698C128.532 82.1698 128.482 82.119 128.482 82.0173V81.0339C128.482 80.9323 128.532 80.8815 128.631 80.8815H129.753C129.854 80.8815 129.905 80.9323 129.905 81.0339V82.0173C129.905 82.119 129.854 82.1698 129.753 82.1698H128.631ZM129.898 86.8476C129.898 86.896 129.885 86.9335 129.858 86.9601C129.831 86.9867 129.794 87 129.745 87H128.635C128.587 87 128.549 86.9867 128.522 86.9601C128.496 86.9335 128.482 86.896 128.482 86.8476V82.7431C128.482 82.644 128.533 82.5944 128.635 82.5944H129.745C129.847 82.5944 129.898 82.644 129.898 82.7431V86.8476ZM134.049 82.7032C134.068 82.6645 134.093 82.6367 134.122 82.6198C134.151 82.6028 134.186 82.5944 134.227 82.5944H135.036C135.138 82.5944 135.189 82.644 135.189 82.7431V88.1359C135.189 88.1843 135.175 88.2218 135.149 88.2484C135.122 88.275 135.085 88.2883 135.036 88.2883H133.926C133.824 88.2883 133.773 88.2375 133.773 88.1359V86.9238C133.514 87.0399 133.219 87.098 132.888 87.098C132.469 87.098 132.082 86.9952 131.726 86.7895C131.371 86.5815 131.089 86.302 130.881 85.9512C130.673 85.6004 130.569 85.2169 130.569 84.8008C130.569 84.3871 130.673 84.006 130.881 83.6577C131.091 83.3069 131.374 83.0298 131.73 82.8266C132.086 82.6234 132.472 82.5218 132.888 82.5218C133.287 82.5218 133.631 82.6198 133.918 82.8157L134.049 82.7032ZM132.913 85.7444C133.09 85.7444 133.249 85.7056 133.392 85.6282C133.537 85.5508 133.651 85.4419 133.733 85.3016C133.818 85.1589 133.86 84.998 133.86 84.819C133.86 84.6399 133.819 84.479 133.737 84.3363C133.655 84.1911 133.542 84.0774 133.399 83.9952C133.257 83.9129 133.098 83.8718 132.924 83.8718C132.747 83.8718 132.588 83.9129 132.445 83.9952C132.302 84.075 132.19 84.1875 132.108 84.3327C132.025 84.4778 131.984 84.6399 131.984 84.819C131.984 85.0004 132.024 85.1613 132.104 85.3016C132.184 85.4419 132.294 85.5508 132.434 85.6282C132.577 85.7056 132.737 85.7444 132.913 85.7444ZM139.085 82.7431C139.085 82.644 139.136 82.5944 139.238 82.5944H140.348C140.45 82.5944 140.501 82.644 140.501 82.7431V86.8476C140.501 86.9492 140.45 87 140.348 87H139.506C139.424 87 139.364 86.9625 139.325 86.8875L139.136 86.5754C138.964 86.723 138.757 86.8427 138.516 86.9347C138.276 87.0242 138.052 87.069 137.844 87.069C137.484 87.069 137.168 86.9867 136.897 86.8222C136.626 86.6552 136.417 86.4218 136.269 86.1218C136.122 85.8194 136.048 85.4698 136.048 85.073V82.7431C136.048 82.644 136.099 82.5944 136.2 82.5944H137.311C137.41 82.5944 137.459 82.644 137.459 82.7431V84.9133C137.459 85.0827 137.49 85.2339 137.55 85.3669C137.613 85.4976 137.701 85.5992 137.815 85.6718C137.931 85.7444 138.064 85.7806 138.214 85.7806C138.379 85.7806 138.528 85.7419 138.661 85.6645C138.794 85.5871 138.898 85.4879 138.973 85.3669C139.048 85.2435 139.085 85.1153 139.085 84.9823V82.7431ZM143.481 87.1125C143.031 87.1125 142.629 87.0097 142.276 86.804C141.925 86.596 141.652 86.3177 141.456 85.9694C141.26 85.6185 141.162 85.2363 141.162 84.8226C141.162 84.4065 141.255 84.023 141.441 83.6722C141.63 83.3214 141.893 83.0419 142.229 82.8339C142.568 82.6258 142.952 82.5218 143.383 82.5218C143.852 82.5218 144.256 82.6198 144.595 82.8157C144.936 83.0117 145.196 83.2827 145.375 83.6286C145.554 83.9746 145.644 84.3702 145.644 84.8153C145.644 84.9387 145.638 85.05 145.626 85.1492C145.616 85.246 145.563 85.2944 145.466 85.2944H142.617C142.704 85.4806 142.829 85.6222 142.991 85.719C143.153 85.8133 143.336 85.8605 143.539 85.8605C143.677 85.8605 143.799 85.8423 143.905 85.806C144.014 85.7698 144.123 85.7165 144.232 85.6464C144.263 85.6222 144.296 85.6101 144.33 85.6101C144.371 85.6101 144.407 85.6331 144.439 85.679L144.965 86.4266C144.987 86.4581 144.998 86.4895 144.998 86.521C144.998 86.5669 144.977 86.6056 144.936 86.6371C144.735 86.7871 144.513 86.9044 144.268 86.9891C144.024 87.0714 143.761 87.1125 143.481 87.1125ZM144.247 84.271C144.176 84.0871 144.071 83.9504 143.931 83.8609C143.79 83.769 143.624 83.723 143.43 83.723C143.236 83.723 143.068 83.769 142.926 83.8609C142.785 83.9528 142.678 84.0895 142.603 84.271H144.247ZM150.079 87.1125C149.629 87.1125 149.228 87.0097 148.874 86.804C148.524 86.596 148.25 86.3177 148.054 85.9694C147.858 85.6185 147.76 85.2363 147.76 84.8226C147.76 84.4065 147.853 84.023 148.04 83.6722C148.228 83.3214 148.491 83.0419 148.827 82.8339C149.166 82.6258 149.551 82.5218 149.981 82.5218C150.451 82.5218 150.855 82.6198 151.193 82.8157C151.534 83.0117 151.795 83.2827 151.974 83.6286C152.153 83.9746 152.242 84.3702 152.242 84.8153C152.242 84.9387 152.236 85.05 152.224 85.1492C152.214 85.246 152.161 85.2944 152.064 85.2944H149.215C149.303 85.4806 149.427 85.6222 149.589 85.719C149.751 85.8133 149.934 85.8605 150.137 85.8605C150.275 85.8605 150.397 85.8423 150.504 85.806C150.613 85.7698 150.722 85.7165 150.83 85.6464C150.862 85.6222 150.895 85.6101 150.928 85.6101C150.97 85.6101 151.006 85.6331 151.037 85.679L151.563 86.4266C151.585 86.4581 151.596 86.4895 151.596 86.521C151.596 86.5669 151.576 86.6056 151.534 86.6371C151.334 86.7871 151.111 86.9044 150.867 86.9891C150.622 87.0714 150.36 87.1125 150.079 87.1125ZM150.845 84.271C150.775 84.0871 150.67 83.9504 150.529 83.8609C150.389 83.769 150.222 83.723 150.028 83.723C149.835 83.723 149.667 83.769 149.524 83.8609C149.384 83.9528 149.276 84.0895 149.201 84.271H150.845ZM156.22 87.1125C155.867 87.1125 155.545 87.0544 155.255 86.9383C154.965 86.8222 154.686 86.6468 154.42 86.4121C154.382 86.3758 154.362 86.3395 154.362 86.3032C154.362 86.2718 154.376 86.2367 154.402 86.198L154.936 85.5157C154.97 85.4722 155.006 85.4504 155.045 85.4504C155.078 85.4504 155.113 85.4649 155.15 85.494C155.3 85.598 155.467 85.6839 155.651 85.7516C155.837 85.8194 156.013 85.8532 156.18 85.8532C156.263 85.8532 156.326 85.8435 156.369 85.8242C156.413 85.8024 156.434 85.7661 156.434 85.7153C156.434 85.6621 156.392 85.6065 156.307 85.5484C156.225 85.4879 156.059 85.4141 155.81 85.327C155.445 85.1988 155.144 85.027 154.907 84.8117C154.67 84.594 154.551 84.2927 154.551 83.9081C154.551 83.6637 154.611 83.4363 154.732 83.2258C154.856 83.0153 155.042 82.846 155.291 82.7177C155.54 82.5871 155.847 82.5218 156.209 82.5218C156.456 82.5218 156.71 82.5714 156.972 82.6706C157.233 82.7698 157.465 82.9198 157.668 83.1206C157.7 83.152 157.715 83.1859 157.715 83.2222C157.715 83.2609 157.699 83.2972 157.665 83.331L156.99 84.0315C156.958 84.0653 156.924 84.0823 156.888 84.0823C156.852 84.0823 156.814 84.0665 156.776 84.0351C156.693 83.9698 156.597 83.9153 156.485 83.8718C156.376 83.8282 156.268 83.8065 156.159 83.8065C155.989 83.8065 155.905 83.856 155.905 83.9552C155.905 83.9915 155.925 84.0266 155.966 84.0605C156.007 84.0919 156.074 84.127 156.166 84.1657C156.26 84.202 156.395 84.2492 156.569 84.3073C156.965 84.4379 157.268 84.6097 157.476 84.8226C157.686 85.0355 157.792 85.327 157.792 85.6972C157.792 85.9391 157.73 86.169 157.607 86.3867C157.486 86.602 157.307 86.7774 157.07 86.9129C156.832 87.046 156.549 87.1125 156.22 87.1125ZM161.662 82.7032C161.681 82.6645 161.706 82.6367 161.735 82.6198C161.764 82.6028 161.799 82.5944 161.84 82.5944H162.649C162.751 82.5944 162.802 82.644 162.802 82.7431V86.8476C162.802 86.896 162.788 86.9335 162.762 86.9601C162.735 86.9867 162.698 87 162.649 87H161.807C161.727 87 161.668 86.9625 161.629 86.8875L161.517 86.8149C161.229 87.0036 160.89 87.098 160.501 87.098C160.082 87.098 159.695 86.9952 159.34 86.7895C158.984 86.5815 158.702 86.302 158.494 85.9512C158.286 85.6004 158.182 85.2169 158.182 84.8008C158.182 84.3871 158.286 84.006 158.494 83.6577C158.704 83.3069 158.988 83.0298 159.343 82.8266C159.699 82.6234 160.085 82.5218 160.501 82.5218C160.9 82.5218 161.244 82.6198 161.531 82.8157L161.662 82.7032ZM160.526 85.7444C160.703 85.7444 160.863 85.7056 161.005 85.6282C161.15 85.5508 161.264 85.4419 161.346 85.3016C161.431 85.1589 161.473 84.998 161.473 84.819C161.473 84.6399 161.432 84.479 161.35 84.3363C161.268 84.1911 161.155 84.0774 161.013 83.9952C160.87 83.9129 160.711 83.8718 160.537 83.8718C160.361 83.8718 160.201 83.9129 160.058 83.9952C159.915 84.075 159.803 84.1875 159.721 84.3327C159.638 84.4778 159.597 84.6399 159.597 84.819C159.597 85.0004 159.637 85.1613 159.717 85.3016C159.797 85.4419 159.907 85.5508 160.047 85.6282C160.19 85.7056 160.35 85.7444 160.526 85.7444ZM163.904 82.1698C163.805 82.1698 163.755 82.119 163.755 82.0173V81.0339C163.755 80.9323 163.805 80.8815 163.904 80.8815H165.025C165.127 80.8815 165.178 80.9323 165.178 81.0339V82.0173C165.178 82.119 165.127 82.1698 165.025 82.1698H163.904ZM165.171 86.8476C165.171 86.896 165.157 86.9335 165.131 86.9601C165.104 86.9867 165.066 87 165.018 87H163.908C163.859 87 163.822 86.9867 163.795 86.9601C163.768 86.9335 163.755 86.896 163.755 86.8476V82.7431C163.755 82.644 163.806 82.5944 163.908 82.5944H165.018C165.12 82.5944 165.171 82.644 165.171 82.7431V86.8476ZM168.429 82.5218C168.845 82.5218 169.231 82.6234 169.587 82.8266C169.942 83.0298 170.224 83.3069 170.432 83.6577C170.643 84.006 170.748 84.3871 170.748 84.8008C170.748 85.2169 170.644 85.6004 170.436 85.9512C170.228 86.302 169.946 86.5815 169.59 86.7895C169.235 86.9952 168.848 87.098 168.429 87.098C168.04 87.098 167.701 87.0036 167.413 86.8149L167.3 86.8875C167.262 86.9625 167.202 87 167.123 87H166.281C166.232 87 166.195 86.9867 166.168 86.9601C166.142 86.9335 166.128 86.896 166.128 86.8476V81.4694C166.128 81.3702 166.179 81.3206 166.281 81.3206H167.388C167.489 81.3206 167.54 81.3702 167.54 81.4694V82.696C167.668 82.6379 167.804 82.5944 167.946 82.5653C168.092 82.5363 168.252 82.5218 168.429 82.5218ZM168.404 85.7444C168.58 85.7444 168.739 85.7056 168.879 85.6282C169.022 85.5508 169.133 85.4419 169.213 85.3016C169.293 85.1613 169.333 85.0004 169.333 84.819C169.333 84.6399 169.292 84.4778 169.209 84.3327C169.127 84.1875 169.015 84.075 168.872 83.9952C168.729 83.9129 168.569 83.8718 168.393 83.8718C168.219 83.8718 168.06 83.9129 167.917 83.9952C167.775 84.0774 167.662 84.1911 167.58 84.3363C167.498 84.479 167.456 84.6399 167.456 84.819C167.456 84.998 167.498 85.1589 167.58 85.3016C167.665 85.4419 167.778 85.5508 167.921 85.6282C168.066 85.7056 168.227 85.7444 168.404 85.7444ZM174.602 82.7032C174.621 82.6645 174.645 82.6367 174.674 82.6198C174.703 82.6028 174.739 82.5944 174.78 82.5944H175.589C175.691 82.5944 175.741 82.644 175.741 82.7431V86.8476C175.741 86.896 175.728 86.9335 175.701 86.9601C175.675 86.9867 175.637 87 175.589 87H174.747C174.667 87 174.608 86.9625 174.569 86.8875L174.457 86.8149C174.169 87.0036 173.83 87.098 173.441 87.098C173.022 87.098 172.635 86.9952 172.279 86.7895C171.924 86.5815 171.642 86.302 171.434 85.9512C171.226 85.6004 171.122 85.2169 171.122 84.8008C171.122 84.3871 171.226 84.006 171.434 83.6577C171.644 83.3069 171.927 83.0298 172.283 82.8266C172.639 82.6234 173.024 82.5218 173.441 82.5218C173.84 82.5218 174.183 82.6198 174.471 82.8157L174.602 82.7032ZM173.466 85.7444C173.643 85.7444 173.802 85.7056 173.945 85.6282C174.09 85.5508 174.204 85.4419 174.286 85.3016C174.371 85.1589 174.413 84.998 174.413 84.819C174.413 84.6399 174.372 84.479 174.29 84.3363C174.207 84.1911 174.095 84.0774 173.952 83.9952C173.809 83.9129 173.651 83.8718 173.477 83.8718C173.3 83.8718 173.141 83.9129 172.998 83.9952C172.855 84.075 172.743 84.1875 172.66 84.3327C172.578 84.4778 172.537 84.6399 172.537 84.819C172.537 85.0004 172.577 85.1613 172.657 85.3016C172.736 85.4419 172.847 85.5508 172.987 85.6282C173.13 85.7056 173.289 85.7444 173.466 85.7444ZM183.755 82.4782C184.089 82.4782 184.378 82.5556 184.623 82.7105C184.869 82.8653 185.059 83.0976 185.192 83.4073C185.328 83.7145 185.396 84.0919 185.396 84.5395V86.8476C185.396 86.9492 185.345 87 185.243 87H184.133C184.084 87 184.047 86.9867 184.02 86.9601C183.994 86.9335 183.98 86.896 183.98 86.8476V84.5831C183.98 84.3411 183.927 84.1524 183.821 84.0169C183.714 83.8815 183.558 83.8137 183.352 83.8137C183.217 83.8137 183.097 83.8464 182.993 83.9117C182.889 83.977 182.806 84.0641 182.743 84.173C182.68 84.2794 182.641 84.3944 182.627 84.5177V86.8476C182.627 86.896 182.613 86.9335 182.587 86.9601C182.56 86.9867 182.523 87 182.474 87H181.364C181.262 87 181.211 86.9492 181.211 86.8476V84.5831C181.211 84.3411 181.158 84.1524 181.052 84.0169C180.945 83.8815 180.789 83.8137 180.584 83.8137C180.438 83.8137 180.31 83.8524 180.199 83.9298C180.088 84.0073 180.002 84.1089 179.941 84.2347C179.881 84.3581 179.85 84.4887 179.85 84.6266V86.8476C179.85 86.896 179.837 86.9335 179.811 86.9601C179.784 86.9867 179.746 87 179.698 87H178.588C178.539 87 178.502 86.9867 178.475 86.9601C178.448 86.9335 178.435 86.896 178.435 86.8476V82.7431C178.435 82.644 178.486 82.5944 178.588 82.5944H179.433C179.477 82.5944 179.512 82.6028 179.538 82.6198C179.567 82.6367 179.592 82.6645 179.611 82.7032L179.727 82.8665C180.097 82.6077 180.516 82.4782 180.983 82.4782C181.256 82.4782 181.5 82.529 181.716 82.6306C181.934 82.7323 182.116 82.8847 182.264 83.0879C182.67 82.6815 183.167 82.4782 183.755 82.4782ZM189.447 82.7032C189.466 82.6645 189.49 82.6367 189.519 82.6198C189.548 82.6028 189.583 82.5944 189.624 82.5944H190.434C190.535 82.5944 190.586 82.644 190.586 82.7431V86.8476C190.586 86.896 190.573 86.9335 190.546 86.9601C190.52 86.9867 190.482 87 190.434 87H189.592C189.512 87 189.453 86.9625 189.414 86.8875L189.301 86.8149C189.013 87.0036 188.675 87.098 188.285 87.098C187.867 87.098 187.48 86.9952 187.124 86.7895C186.768 86.5815 186.486 86.302 186.278 85.9512C186.07 85.6004 185.966 85.2169 185.966 84.8008C185.966 84.3871 186.07 84.006 186.278 83.6577C186.489 83.3069 186.772 83.0298 187.128 82.8266C187.483 82.6234 187.869 82.5218 188.285 82.5218C188.684 82.5218 189.028 82.6198 189.316 82.8157L189.447 82.7032ZM188.311 85.7444C188.487 85.7444 188.647 85.7056 188.79 85.6282C188.935 85.5508 189.049 85.4419 189.131 85.3016C189.215 85.1589 189.258 84.998 189.258 84.819C189.258 84.6399 189.217 84.479 189.134 84.3363C189.052 84.1911 188.94 84.0774 188.797 83.9952C188.654 83.9129 188.496 83.8718 188.322 83.8718C188.145 83.8718 187.985 83.9129 187.843 83.9952C187.7 84.075 187.587 84.1875 187.505 84.3327C187.423 84.4778 187.382 84.6399 187.382 84.819C187.382 85.0004 187.422 85.1613 187.501 85.3016C187.581 85.4419 187.691 85.5508 187.832 85.6282C187.974 85.7056 188.134 85.7444 188.311 85.7444ZM191.688 82.1698C191.589 82.1698 191.54 82.119 191.54 82.0173V81.0339C191.54 80.9323 191.589 80.8815 191.688 80.8815H192.81C192.911 80.8815 192.962 80.9323 192.962 81.0339V82.0173C192.962 82.119 192.911 82.1698 192.81 82.1698H191.688ZM192.955 86.8476C192.955 86.896 192.942 86.9335 192.915 86.9601C192.888 86.9867 192.851 87 192.803 87H191.692C191.644 87 191.606 86.9867 191.58 86.9601C191.553 86.9335 191.54 86.896 191.54 86.8476V82.7431C191.54 82.644 191.59 82.5944 191.692 82.5944H192.803C192.904 82.5944 192.955 82.644 192.955 82.7431V86.8476ZM195.488 87.1125C195.134 87.1125 194.813 87.0544 194.522 86.9383C194.232 86.8222 193.954 86.6468 193.688 86.4121C193.649 86.3758 193.63 86.3395 193.63 86.3032C193.63 86.2718 193.643 86.2367 193.67 86.198L194.203 85.5157C194.237 85.4722 194.273 85.4504 194.312 85.4504C194.346 85.4504 194.381 85.4649 194.417 85.494C194.567 85.598 194.734 85.6839 194.918 85.7516C195.104 85.8194 195.281 85.8532 195.448 85.8532C195.53 85.8532 195.593 85.8435 195.636 85.8242C195.68 85.8024 195.702 85.7661 195.702 85.7153C195.702 85.6621 195.659 85.6065 195.575 85.5484C195.493 85.4879 195.327 85.4141 195.078 85.327C194.712 85.1988 194.411 85.027 194.174 84.8117C193.937 84.594 193.818 84.2927 193.818 83.9081C193.818 83.6637 193.879 83.4363 194 83.2258C194.123 83.0153 194.309 82.846 194.559 82.7177C194.808 82.5871 195.114 82.5218 195.477 82.5218C195.724 82.5218 195.978 82.5714 196.239 82.6706C196.5 82.7698 196.732 82.9198 196.936 83.1206C196.967 83.152 196.983 83.1859 196.983 83.2222C196.983 83.2609 196.966 83.2972 196.932 83.331L196.257 84.0315C196.226 84.0653 196.192 84.0823 196.155 84.0823C196.119 84.0823 196.082 84.0665 196.043 84.0351C195.961 83.9698 195.864 83.9153 195.753 83.8718C195.644 83.8282 195.535 83.8065 195.426 83.8065C195.257 83.8065 195.172 83.856 195.172 83.9552C195.172 83.9915 195.193 84.0266 195.234 84.0605C195.275 84.0919 195.341 84.127 195.433 84.1657C195.528 84.202 195.662 84.2492 195.836 84.3073C196.233 84.4379 196.535 84.6097 196.743 84.8226C196.954 85.0355 197.059 85.327 197.059 85.6972C197.059 85.9391 196.997 86.169 196.874 86.3867C196.753 86.602 196.574 86.7774 196.337 86.9129C196.1 87.046 195.817 87.1125 195.488 87.1125Z" fill="#FFFFD6"/>
</svg>
