<svg width="580" height="580" viewBox="0 0 580 580" fill="none" xmlns="http://www.w3.org/2000/svg">
<g opacity="0.3">
<path d="M579.262 312.464C567.789 462.123 442.695 580 290.056 580C174.562 580 74.8249 512.509 28.1671 414.812L92.8415 317.74C93.4081 321.768 94.0897 325.749 94.8933 329.683C107.208 390.611 147.368 441.451 201.506 468.372C201.524 468.39 201.544 468.401 201.562 468.41C228.226 481.639 258.273 489.091 290.054 489.091C334.649 489.091 375.831 474.424 409.029 449.656C451.96 417.626 481.545 368.68 487.901 312.707C487.957 312.225 488.005 311.753 488.052 311.27L565.486 312.281L579.257 312.461L579.262 312.464Z" fill="#F4EDD4"/>
<path d="M580 281.919L513.064 284.954L512.913 284.963L489.133 286.042C488.481 252.15 479.353 220.339 463.776 192.63C463.625 192.346 463.465 192.064 463.314 191.789L516.98 109.365C554.936 156.951 578.221 216.753 580 281.919Z" fill="#F4EDD4"/>
<path d="M508.43 87.8035C506.945 89.9113 505.451 92.0214 503.956 94.1292C485.91 119.671 467.636 145.053 449.231 170.358C415.031 217.366 380.413 264.081 346.041 310.949C338.048 321.825 330.076 332.718 322.131 343.623C270.537 383.17 209.133 317.313 252.509 268.689C310.186 227.298 367.312 185.122 424.734 143.351C449.59 125.261 474.514 107.254 499.55 89.4306C501.801 87.8238 504.053 86.2147 506.304 84.6169C507.979 84.3709 508.687 85.4294 508.432 87.8035H508.43Z" fill="#F4EDD4"/>
<path d="M478.929 69.903L399.055 123.361C391.326 118.301 383.221 113.754 374.795 109.791C345.966 92.6466 308.852 71.8619 242.02 78.8308C143.463 89.1103 24.6482 189.793 3.08328 332.398C1.04958 318.564 0 304.407 0 290.005C0 225.143 21.3008 165.244 57.289 116.929C57.3161 116.891 57.3364 116.864 57.3657 116.835C96.4643 66.1388 149.846 30.3082 205.395 12.5589C205.46 12.5295 205.519 12.5115 205.584 12.4934C212.575 10.3653 219.667 8.50346 226.874 6.90342C247.211 2.38314 268.358 0 290.056 0C334.547 0 376.695 10.0155 414.367 27.9161C437.785 39.0374 459.483 53.203 478.929 69.903Z" fill="#F4EDD4"/>
</g>
</svg>
