<svg width="309" height="57" viewBox="0 0 309 57" fill="none" xmlns="http://www.w3.org/2000/svg">
<g clip-path="url(#clip0_2001_2)">
<path d="M243.753 39.783C243.674 39.8601 243.565 39.8983 243.426 39.8983H242.623C242.336 39.8983 242.192 39.754 242.192 39.4655V24.2476H240.631C240.334 24.2476 240.185 24.1079 240.185 23.8293V23.1362C240.185 22.8575 240.334 22.7178 240.631 22.7178H242.192V21.7071C242.192 20.1094 242.604 18.8842 243.427 18.033C244.249 17.1811 245.479 16.7551 247.116 16.7551H247.636C247.924 16.7551 248.067 16.8994 248.067 17.188V17.9101C248.067 18.1895 247.923 18.3292 247.636 18.3292H247.145C246.035 18.3292 245.212 18.6376 244.676 19.2529C244.141 19.8689 243.874 20.7544 243.874 21.9094V22.7178H247.77C248.058 22.7178 248.201 22.8575 248.201 23.1362V23.8293C248.201 24.1087 248.057 24.2476 247.77 24.2476H243.874V39.4655C243.874 39.6006 243.834 39.7059 243.755 39.783H243.753Z" fill="#1E1D1C"/>
<path d="M251.174 19.1514C251.095 19.0743 251.056 18.9689 251.056 18.8338V17.7223C251.056 17.588 251.095 17.4819 251.174 17.4048C251.254 17.3277 251.362 17.2895 251.502 17.2895H252.602C252.741 17.2895 252.85 17.3284 252.929 17.4048C253.009 17.4819 253.048 17.588 253.048 17.7223V18.8338C253.048 18.9689 253.008 19.0743 252.929 19.1514C252.85 19.2285 252.741 19.2666 252.602 19.2666H251.502C251.362 19.2666 251.254 19.2285 251.174 19.1514ZM252.795 39.783C252.716 39.8601 252.606 39.8983 252.468 39.8983H251.665C251.377 39.8983 251.233 39.754 251.233 39.4655V23.1362C251.233 22.8575 251.377 22.7178 251.665 22.7178H252.468C252.765 22.7178 252.914 22.8575 252.914 23.1362V39.4655C252.914 39.6006 252.874 39.7059 252.795 39.783Z" fill="#1E1D1C"/>
<path d="M271.399 23.598C272.707 24.3873 273.741 25.4652 274.5 26.8324C275.258 28.1996 275.638 29.7012 275.638 31.3371C275.638 32.973 275.259 34.4723 274.5 35.8341C273.742 37.196 272.708 38.2716 271.399 39.0609C270.091 39.8502 268.648 40.2449 267.071 40.2449C266.02 40.2449 265.036 40.0594 264.119 39.6891C263.203 39.3189 262.397 38.8059 261.703 38.1517C261.009 37.4975 260.449 36.7372 260.023 35.8708L260.008 39.48C260.008 39.6151 259.968 39.7182 259.889 39.7907C259.81 39.8632 259.7 39.8991 259.562 39.8991H258.804C258.516 39.8991 258.372 39.7548 258.372 39.4662V17.7506C258.372 17.4712 258.516 17.3322 258.804 17.3322H259.667C259.954 17.3322 260.097 17.4719 260.097 17.7506V26.6301C260.762 25.3499 261.704 24.327 262.923 23.5621C264.142 22.7972 265.525 22.414 267.072 22.414C268.619 22.414 270.091 22.8087 271.4 23.598H271.399ZM270.567 37.6967C271.618 37.057 272.446 36.1807 273.05 35.0692C273.655 33.9577 273.958 32.718 273.958 31.3516C273.958 29.9851 273.655 28.7408 273.05 27.6194C272.446 26.4981 271.615 25.6125 270.559 24.9629C269.503 24.3133 268.331 23.9881 267.042 23.9881C265.753 23.9881 264.541 24.3125 263.466 24.9629C262.39 25.6125 261.54 26.5003 260.915 27.6271C260.291 28.7531 259.978 29.9951 259.978 31.3523C259.978 32.7096 260.288 33.9585 260.907 35.07C261.527 36.1814 262.377 37.0578 263.458 37.6975C264.538 38.338 265.738 38.6578 267.057 38.6578C268.376 38.6578 269.516 38.338 270.567 37.6975V37.6967Z" fill="#1E1D1C"/>
<path d="M290.316 23.382C290.484 23.469 290.568 23.5843 290.568 23.7285C290.568 23.7866 290.544 23.8637 290.494 23.9598L290.152 24.595C290.063 24.7492 289.949 24.8263 289.81 24.8263C289.711 24.8263 289.626 24.8026 289.558 24.7538C288.547 24.2339 287.57 23.9743 286.628 23.9743C285.745 23.9743 284.901 24.2293 284.092 24.7392C283.284 25.2499 282.632 25.9736 282.137 26.9118C281.641 27.85 281.393 28.9263 281.393 30.1386V39.4655C281.393 39.6006 281.353 39.7059 281.274 39.783C281.195 39.8601 281.085 39.8983 280.947 39.8983H280.144C279.856 39.8983 279.713 39.754 279.713 39.4655V23.1362C279.713 22.8575 279.856 22.7178 280.144 22.7178H280.843C281.14 22.7178 281.289 22.8575 281.289 23.1362L281.319 26.4713C281.567 25.7492 281.953 25.0782 282.479 24.4576C283.004 23.8369 283.636 23.3407 284.375 22.9705C285.113 22.6003 285.914 22.4148 286.777 22.4148C287.907 22.4148 289.087 22.7377 290.316 23.382Z" fill="#1E1D1C"/>
<path d="M307.061 22.7178H307.819C308.116 22.7178 308.265 22.8575 308.265 23.1362V39.4655C308.265 39.6006 308.225 39.7059 308.146 39.783C308.067 39.8601 307.957 39.8983 307.819 39.8983H307.061C306.922 39.8983 306.816 39.8624 306.741 39.7899C306.667 39.7174 306.629 39.6143 306.629 39.4792L306.614 35.87C306.188 36.7364 305.625 37.4967 304.926 38.151C304.227 38.8059 303.419 39.3182 302.502 39.6884C301.584 40.0586 300.605 40.2441 299.564 40.2441C297.978 40.2441 296.531 39.8495 295.222 39.0601C293.913 38.2708 292.879 37.1952 292.121 35.8334C291.363 34.4715 290.983 32.9722 290.983 31.3363C290.983 29.7004 291.362 28.1989 292.121 26.8316C292.879 25.4652 293.916 24.3873 295.229 23.5972C296.543 22.8079 297.988 22.4132 299.564 22.4132C301.141 22.4132 302.531 22.8079 303.766 23.5972C305 24.3866 305.944 25.4309 306.599 26.7301L306.614 23.1354C306.633 22.8568 306.782 22.7171 307.059 22.7171L307.061 22.7178ZM303.165 37.6967C304.245 37.057 305.098 36.1807 305.723 35.0692C306.347 33.9577 306.66 32.718 306.66 31.3516C306.66 29.9851 306.348 28.7531 305.723 27.6263C305.098 26.5003 304.245 25.6118 303.165 24.9621C302.084 24.3125 300.889 23.9873 299.581 23.9873C298.272 23.9873 297.122 24.3118 296.071 24.9621C295.02 25.6118 294.192 26.4973 293.588 27.6187C292.983 28.7401 292.68 29.9844 292.68 31.3508C292.68 32.7173 292.982 33.957 293.588 35.0685C294.192 36.1799 295.017 37.0563 296.064 37.696C297.11 38.3365 298.277 38.6563 299.566 38.6563C300.855 38.6563 302.084 38.3365 303.165 37.696V37.6967Z" fill="#1E1D1C"/>
<path d="M29.4319 5.01748H19.1392C18.1587 5.01748 17.6688 5.49382 17.6688 6.44499V39.0281C17.6688 40.6701 17.3134 41.8892 16.6034 42.6854C15.8918 43.4831 14.8994 43.8808 13.6256 43.8808C12.2284 43.8808 10.5496 43.251 8.58935 41.9892C8.2709 41.751 7.93987 41.6327 7.59704 41.6327C7.15592 41.6327 6.79973 41.8342 6.53081 42.2388L1.09116 49.7695C0.84583 50.1741 0.723953 50.5184 0.723953 50.8039C0.723953 51.1848 0.919743 51.5176 1.31132 51.8031C3.32112 53.207 5.40325 54.2955 7.56087 55.0688C9.71692 55.8414 11.7755 56.2284 13.7365 56.2284C17.2403 56.2284 20.2848 55.5681 22.871 54.2474C25.4572 52.9268 27.441 51.0413 28.8265 48.5908C30.2104 46.1404 30.9039 43.2503 30.9039 39.9189V6.44499C30.9039 5.49382 30.4132 5.01748 29.4327 5.01748H29.4319Z" fill="#FB5800"/>
<path d="M79.3347 11.9772H72.2769C71.4685 11.9772 70.904 12.3466 70.5855 13.084L69.5201 15.5108C66.4323 12.6795 62.5479 11.2642 57.8678 11.2642C53.7012 11.2642 49.8538 12.2634 46.3249 14.2619C42.796 16.2597 39.9959 18.9666 37.9248 22.3804C35.8537 25.795 34.8189 29.5363 34.8189 33.6043C34.8189 37.6723 35.8482 41.4617 37.9067 44.8992C39.9645 48.3366 42.7582 51.0611 46.2872 53.0711C49.8161 55.0818 53.6761 56.0864 57.8671 56.0864C62.4984 56.0864 66.345 54.6948 69.4092 51.9115L70.3284 54.0528C70.6469 54.791 71.2106 55.1597 72.0197 55.1597H79.3347C80.3153 55.1597 80.8051 54.6841 80.8051 53.7322V13.4039C80.8051 12.452 80.3153 11.9764 79.3347 11.9764V11.9772ZM67.6267 39.2952C66.6587 40.925 65.3354 42.1976 63.6566 43.1136C61.9779 44.0297 60.1214 44.4877 58.0872 44.4877C56.0531 44.4877 54.184 44.0297 52.5556 43.1136C50.9248 42.1984 49.6447 40.9312 48.7137 39.3136C47.7819 37.6952 47.3164 35.8517 47.3164 33.7814C47.3164 31.7111 47.7882 29.8447 48.7318 28.1782C49.6746 26.5133 50.9743 25.211 52.6279 24.2705C54.2823 23.3316 56.1254 22.8613 58.1596 22.8613C60.1937 22.8613 62.0439 23.3377 63.7101 24.2888C65.377 25.2415 66.6878 26.5431 67.644 28.1966C68.6001 29.85 69.0782 31.7119 69.0782 33.7814C69.0782 35.8509 68.5938 37.6662 67.6259 39.2952H67.6267Z" fill="#FB5800"/>
<path d="M122.574 49.484L117.906 43.0243C117.588 42.5732 117.22 42.3465 116.804 42.3465C116.534 42.3465 116.216 42.4655 115.848 42.7029C114.622 43.5358 113.379 44.161 112.117 44.5763C110.855 44.9923 109.427 45.2007 107.835 45.2007C105.874 45.2007 104.043 44.7076 102.34 43.7198C100.636 42.732 99.2762 41.3709 98.2595 39.6334C97.242 37.8967 96.7333 35.9578 96.7333 33.8165C96.7333 31.6753 97.2357 29.6592 98.2406 27.9095C99.2447 26.1606 100.593 24.7873 102.284 23.7881C103.975 22.7888 105.813 22.2888 107.798 22.2888C109.416 22.2888 110.849 22.5033 112.099 22.9316C113.349 23.3598 114.599 23.9911 115.848 24.8232C116.216 25.0621 116.534 25.1797 116.804 25.1797C117.221 25.1797 117.588 24.9545 117.907 24.5018L122.575 18.0429C122.795 17.7093 122.905 17.4002 122.905 17.1147C122.905 16.7345 122.696 16.3772 122.281 16.0444C120.271 14.5215 117.999 13.3444 115.462 12.5115C112.926 11.6787 110.211 11.2626 107.32 11.2626C102.91 11.2626 98.9506 12.2734 95.4469 14.2955C91.9423 16.3185 89.2099 19.0483 87.2496 22.4858C85.2894 25.924 84.3089 29.7012 84.3089 33.8173C84.3089 37.9334 85.2949 41.6327 87.2677 45.0587C89.2398 48.4847 91.973 51.2023 95.465 53.2131C98.9569 55.2238 102.884 56.2292 107.246 56.2292C110.236 56.2292 113.018 55.8009 115.59 54.9444C118.163 54.0887 120.467 52.8749 122.501 51.3046C122.795 51.0428 122.942 50.7565 122.942 50.4481C122.942 50.1397 122.819 49.8184 122.575 49.4848L122.574 49.484Z" fill="#FB5800"/>
<path d="M150.428 11.9772H143.517V2.09147C143.517 1.68688 143.408 1.36627 143.187 1.12733C142.966 0.88992 142.66 0.770834 142.267 0.770834C142.12 0.770834 141.998 0.783048 141.9 0.806713L132.233 2.6266C131.35 2.79301 130.909 3.31668 130.909 4.19609V11.9764H127.307C126.327 11.9764 125.837 12.452 125.837 13.4039V21.7903C125.837 22.7423 126.327 23.2178 127.307 23.2178H130.982V53.7306C130.982 54.6826 131.472 55.1582 132.454 55.1582H142.011C142.991 55.1582 143.481 54.6826 143.481 53.7306V23.2178H150.428C151.409 23.2178 151.899 22.7423 151.899 21.7903V13.4039C151.899 12.452 151.409 11.9764 150.428 11.9764L150.428 11.9772Z" fill="#FB5800"/>
<path d="M225.675 33.9959C223.469 31.8783 220.345 30.1897 216.301 28.9279C214.414 28.3332 212.944 27.8156 211.891 27.3752C210.836 26.9355 210.07 26.4958 209.592 26.0553C209.115 25.6148 208.876 25.1217 208.876 24.5736C208.876 23.7888 209.201 23.1705 209.85 22.7178C210.499 22.2651 211.449 22.0392 212.699 22.0392C213.949 22.0392 215.107 22.2949 216.32 22.8071C217.533 23.3186 218.641 23.9667 219.647 24.7515C220.014 25.037 220.358 25.1797 220.676 25.1797C221.043 25.1797 221.387 25.0141 221.705 24.6805L227.514 18.8628C227.857 18.4834 228.028 18.149 228.028 17.8643C228.028 17.5307 227.857 17.1986 227.514 16.865C225.528 15.0085 223.243 13.6123 220.657 12.6711C218.071 11.7321 215.553 11.2619 213.104 11.2619C209.55 11.2619 206.554 11.8749 204.116 13.0993C201.677 14.3253 199.864 15.9368 198.675 17.9353C197.486 19.9338 196.892 22.0995 196.892 24.4301C196.892 26.379 197.232 28.105 197.911 29.6096C198.509 30.9333 199.37 32.0859 200.494 33.0661C202.896 35.1601 205.947 36.8128 209.647 38.0265C211.582 38.6693 213.078 39.2342 214.132 39.7212C215.185 40.209 215.927 40.6907 216.356 41.1663C216.784 41.6419 216.999 42.1655 216.999 42.7358C216.999 43.5923 216.632 44.2534 215.896 44.7175C215.162 45.1809 214.181 45.4129 212.955 45.4129C211.166 45.4129 209.396 45.0564 207.645 44.3427C205.891 43.6289 204.121 42.6182 202.333 41.309C201.941 41.048 201.61 40.9167 201.34 40.9167C200.973 40.9167 200.617 41.1182 200.275 41.5228L195.311 47.5542C195.042 47.8878 194.907 48.2092 194.907 48.5176C194.907 48.8985 195.103 49.2435 195.495 49.5527C198.043 51.7413 200.782 53.4009 203.711 54.5314C206.638 55.6605 209.843 56.2261 213.323 56.2261C216.557 56.2261 219.357 55.5834 221.723 54.2986C224.087 53.0146 225.888 51.3314 227.126 49.2489C228.363 47.1672 228.982 44.9488 228.982 42.593C228.982 38.9769 227.879 36.1105 225.674 33.9929L225.675 33.9959Z" fill="#FB5800"/>
<path d="M195.789 36.8822C194.934 47.7046 185.618 56.2284 174.251 56.2284C165.65 56.2284 158.222 51.3482 154.748 44.2831L159.564 37.2631C159.607 37.5548 159.657 37.8425 159.717 38.1265C160.634 42.5327 163.625 46.2091 167.657 48.1557C167.659 48.1572 167.66 48.158 167.661 48.1588C169.646 49.1153 171.884 49.6542 174.251 49.6542C177.572 49.6542 180.639 48.5939 183.111 46.8023C186.308 44.4862 188.511 40.9464 188.985 36.899C188.989 36.8639 188.993 36.8303 188.996 36.7952L194.763 36.8685L195.788 36.8815L195.789 36.8822Z" fill="#1E1D1C"/>
<path d="M195.844 34.6738L190.859 34.8936H190.848L189.077 34.9723C189.028 32.5211 188.349 30.221 187.188 28.2172C187.177 28.1966 187.165 28.1759 187.154 28.1561L191.15 22.1957C193.977 25.637 195.711 29.9615 195.844 34.6738Z" fill="#1E1D1C"/>
<path d="M190.514 20.6361C190.403 20.7888 190.292 20.9414 190.181 21.0934C188.837 22.9407 187.476 24.7759 186.105 26.6057C183.559 30.005 180.98 33.3829 178.421 36.7723C177.826 37.5586 177.232 38.3464 176.64 39.1349C172.797 41.9945 168.225 37.2326 171.455 33.7165C175.751 30.7233 180.004 27.6736 184.281 24.653C186.132 23.3445 187.989 22.043 189.853 20.7537C190.02 20.6376 190.188 20.5208 190.356 20.4056C190.481 20.388 190.534 20.4643 190.515 20.6361H190.514Z" fill="#FB5800"/>
<path d="M188.317 19.3422L182.368 23.2079C181.793 22.8423 181.189 22.5132 180.561 22.227C178.415 20.9873 175.65 19.4842 170.673 19.988C163.334 20.7315 154.485 28.0118 152.879 38.3242C152.728 37.3235 152.65 36.2998 152.65 35.2585C152.65 30.5684 154.236 26.237 156.916 22.743C156.919 22.74 156.919 22.7384 156.922 22.7361C159.833 19.0704 163.809 16.4788 167.946 15.1955C167.95 15.1932 167.955 15.1925 167.96 15.191C168.48 15.0368 169.009 14.9024 169.545 14.7871C171.059 14.4604 172.634 14.2879 174.25 14.2879C177.564 14.2879 180.703 15.0123 183.508 16.3062C185.252 17.1101 186.868 18.1345 188.317 19.3422Z" fill="#1E1D1C"/>
</g>
<defs>
<clipPath id="clip0_2001_2">
<rect width="307.542" height="55.4583" fill="white" transform="translate(0.723953 0.770832)"/>
</clipPath>
</defs>
</svg>
