<svg width="24" height="24" viewBox="0 0 24 24" fill="none" xmlns="http://www.w3.org/2000/svg">
<g clip-path="url(#clip0_2096_23)">
<path d="M16.585 9.61587L15.21 5.99987H17.632C18.5529 6.00209 19.4605 6.2204 20.2816 6.63723C21.1028 7.05407 21.8147 7.6578 22.36 8.39987L23.147 9.47487C23.4824 9.93243 23.7269 10.4501 23.867 10.9999H16.952C16.881 10.5264 16.758 10.0623 16.585 9.61587ZM12 3.99987C12.2652 3.99987 12.5196 3.89452 12.7071 3.70698C12.8947 3.51944 13 3.26509 13 2.99987V0.999874C13 0.734658 12.8947 0.480304 12.7071 0.292768C12.5196 0.105231 12.2652 -0.00012563 12 -0.00012563C11.7348 -0.00012563 11.4805 0.105231 11.2929 0.292768C11.1054 0.480304 11 0.734658 11 0.999874V2.99987C11 3.26509 11.1054 3.51944 11.2929 3.70698C11.4805 3.89452 11.7348 3.99987 12 3.99987ZM14.722 10.3429L13.071 5.99987H10.938L9.26003 10.4519C9.19567 10.6311 9.14223 10.8141 9.10003 10.9999H14.921C14.8711 10.7762 14.8046 10.5566 14.722 10.3429ZM16.553 3.89987C16.6711 3.95924 16.7998 3.99461 16.9316 4.00395C17.0634 4.01329 17.1957 3.99641 17.321 3.95428C17.4463 3.91216 17.5619 3.84563 17.6613 3.75854C17.7607 3.67144 17.8418 3.56551 17.9 3.44687L18.9 1.44687C19.0186 1.20951 19.038 0.934764 18.954 0.683091C18.87 0.431417 18.6894 0.223426 18.452 0.104874C18.2147 -0.0136774 17.9399 -0.0330792 17.6882 0.0509371C17.4366 0.134953 17.2286 0.315506 17.11 0.552874L16.11 2.55287C16.0503 2.67034 16.0144 2.79844 16.0044 2.92983C15.9943 3.06122 16.0103 3.19329 16.0515 3.31847C16.0927 3.44364 16.1582 3.55945 16.2442 3.65922C16.3303 3.759 16.4353 3.84079 16.553 3.89987ZM11.988 18.8869L14.774 13.6339C14.8447 13.4268 14.9005 13.2149 14.941 12.9999H9.00003C9.04499 13.2574 9.1119 13.5107 9.20003 13.7569L11.988 18.8869ZM7.40003 9.72887L8.80003 5.99987H6.38303C5.48106 6.00223 4.59166 6.21164 3.78339 6.61196C2.97511 7.01228 2.26954 7.59283 1.72103 8.30887L0.900033 9.38287C0.538297 9.86381 0.279889 10.4143 0.141033 10.9999H7.04103C7.1179 10.5653 7.23817 10.1395 7.40003 9.72887ZM16.969 12.9999C16.906 13.4777 16.7907 13.9472 16.625 14.3999C16.61 14.4399 12.869 21.4739 12.866 21.4749C12.7846 21.6331 12.6613 21.766 12.5095 21.859C12.3578 21.952 12.1834 22.0017 12.0055 22.0025C11.8275 22.0033 11.6527 21.9553 11.5001 21.8637C11.3475 21.7721 11.223 21.6404 11.14 21.4829C11.14 21.4829 7.36603 14.5709 7.35003 14.5279C7.17091 14.0345 7.05139 13.5216 6.99403 12.9999H0.121033C0.305971 13.8947 0.771123 14.7073 1.44903 15.3199L9.43903 23.0269C10.1408 23.6527 11.0487 23.9977 11.989 23.9959C12.9493 23.994 13.875 23.6379 14.589 22.9959L22.525 15.3629C23.2204 14.741 23.6987 13.913 23.89 12.9999H16.969ZM6.10503 3.44687C6.22358 3.68491 6.43184 3.86609 6.68398 3.95058C6.93612 4.03506 7.2115 4.01593 7.44953 3.89737C7.68756 3.77882 7.86875 3.57057 7.95324 3.31843C8.03772 3.06628 8.01858 2.79091 7.90003 2.55287L6.90003 0.552874C6.84133 0.435341 6.76006 0.330521 6.66085 0.244399C6.56164 0.158276 6.44643 0.0925377 6.32182 0.0509371C6.07014 -0.0330792 5.7954 -0.0136774 5.55803 0.104874C5.32066 0.223426 5.14011 0.431417 5.0561 0.683091C4.97208 0.934764 4.99148 1.20951 5.11003 1.44687L6.10503 3.44687Z" fill="black"/>
</g>
<defs>
<clipPath id="clip0_2096_23">
<rect width="24" height="24" fill="white"/>
</clipPath>
</defs>
</svg>
