<svg width="81" height="82" viewBox="0 0 81 82" fill="none" xmlns="http://www.w3.org/2000/svg">
<g clip-path="url(#clip0_2003_73)">
<path d="M37.6523 40.1443L35.2511 37.6459C34.3279 36.6862 33.0615 36.1323 31.7302 36.106C30.3988 36.0796 29.1115 36.5829 28.1511 37.5052V37.5052C27.6754 37.9624 27.2944 38.5087 27.0299 39.1131C26.7654 39.7175 26.6226 40.3681 26.6095 41.0277C26.5964 41.6873 26.7134 42.3431 26.9538 42.9575C27.1942 43.5719 27.5532 44.1329 28.0104 44.6085L31.892 48.6475C32.6147 49.4126 33.4828 50.0259 34.4454 50.4515C35.4081 50.877 36.4459 51.1063 37.4983 51.1258H37.6222C39.7084 51.1197 41.7082 50.2919 43.1883 48.8216L56.4539 35.5527C57.3957 34.6106 57.9247 33.3331 57.9247 32.001C57.9247 30.669 57.3957 29.3914 56.4539 28.4494V28.4494C55.9874 27.9826 55.4334 27.6122 54.8237 27.3596C54.214 27.1069 53.5605 26.9769 52.9005 26.9769C52.2406 26.9769 51.5871 27.1069 50.9774 27.3596C50.3677 27.6122 49.8137 27.9826 49.3472 28.4494L37.6523 40.1443Z" fill="#FFFFFF"/>
<path d="M40.4658 81.3559C39.7632 81.3561 39.0684 81.2089 38.4262 80.9239C37.1167 80.3512 6.67054 66.5163 6.67054 41.1673V25.2493C6.66637 21.3821 7.88123 17.612 10.1425 14.4748C12.4037 11.3376 15.5962 8.99288 19.2663 7.774L38.875 1.23666C39.908 0.895073 41.0236 0.895073 42.0566 1.23666L61.6652 7.774C65.3351 8.99333 68.5273 11.3381 70.7885 14.4752C73.0496 17.6124 74.2647 21.3822 74.261 25.2493V41.1673C74.261 70.0294 43.3694 80.6593 42.0566 81.098C41.5438 81.2696 41.0065 81.3567 40.4658 81.3559V81.3559ZM40.4658 11.2972L22.4446 17.3054C20.777 17.8608 19.3264 18.927 18.2986 20.3528C17.2707 21.7785 16.7176 23.4917 16.7177 25.2493V41.1673C16.7177 57.0251 34.8729 67.799 40.7237 70.8567C46.6079 68.4018 64.2139 59.5268 64.2139 41.1673V25.2493C64.2139 23.4917 63.6609 21.7785 62.633 20.3528C61.6051 18.927 60.1546 17.8608 58.487 17.3054L40.4658 11.2972Z" fill="#FFFFFF"/>
</g>
<defs>
<clipPath id="clip0_2003_73">
<rect width="80.3771" height="80.3771" fill="white" transform="translate(0.2771 0.981873)"/>
</clipPath>
</defs>
</svg>
