<svg width="70" height="71" viewBox="0 0 70 71" fill="none" xmlns="http://www.w3.org/2000/svg">
<g clip-path="url(#clip0_2003_54)">
<path d="M34.8327 18.0387C32.5231 18.0387 30.3082 18.9562 28.6751 20.5893C27.042 22.2223 26.1245 24.4373 26.1245 26.7468V61.5794C26.1245 63.8889 27.042 66.1039 28.6751 67.737C30.3082 69.3701 32.5231 70.2875 34.8327 70.2875C37.1422 70.2875 39.3571 69.3701 40.9902 67.737C42.6233 66.1039 43.5408 63.8889 43.5408 61.5794V26.7468C43.5408 24.4373 42.6233 22.2223 40.9902 20.5893C39.3571 18.9562 37.1422 18.0387 34.8327 18.0387Z" fill="#FFFFFF"/>
<path d="M60.9569 0.622375C58.6474 0.622375 56.4324 1.53984 54.7993 3.17293C53.1662 4.80602 52.2488 7.02097 52.2488 9.33051V61.5793C52.2488 63.8889 53.1662 66.1038 54.7993 67.7369C56.4324 69.37 58.6474 70.2875 60.9569 70.2875C63.2665 70.2875 65.4814 69.37 67.1145 67.7369C68.7476 66.1038 69.6651 63.8889 69.6651 61.5793V9.33051C69.6651 7.02097 68.7476 4.80602 67.1145 3.17293C65.4814 1.53984 63.2665 0.622375 60.9569 0.622375V0.622375Z" fill="#FFFFFF"/>
<path d="M8.70814 35.4549C6.3986 35.4549 4.18365 36.3724 2.55055 38.0054C0.917462 39.6385 0 41.8535 0 44.163L0 61.5793C0 63.8889 0.917462 66.1038 2.55055 67.7369C4.18365 69.37 6.3986 70.2875 8.70814 70.2875C11.0177 70.2875 13.2326 69.37 14.8657 67.7369C16.4988 66.1038 17.4163 63.8889 17.4163 61.5793V44.163C17.4163 41.8535 16.4988 39.6385 14.8657 38.0054C13.2326 36.3724 11.0177 35.4549 8.70814 35.4549Z" fill="#FFFFFF"/>
</g>
<defs>
<clipPath id="clip0_2003_54">
<rect width="69.6651" height="69.6651" fill="white" transform="translate(0 0.622375)"/>
</clipPath>
</defs>
</svg>
