<svg width="24" height="24" viewBox="0 0 24 24" fill="none" xmlns="http://www.w3.org/2000/svg">
<path d="M23 10.9991H21V8.99908C21 8.4468 20.5523 7.9991 20 7.9991C19.4477 7.9991 19 8.4468 19 8.99908V10.9991H17C16.4477 10.9991 16 11.4468 16 11.9991C16 12.5514 16.4477 12.9991 17 12.9991H19V14.9991C19 15.5514 19.4477 15.9991 20 15.9991C20.5523 15.9991 21 15.5514 21 14.9991V12.9991H23C23.5523 12.9991 24 12.5514 24 11.9991C24 11.4468 23.5523 10.9991 23 10.9991Z" fill="#F4EDD4"/>
<path d="M9 12C12.3137 12 15 9.31371 15 6C15 2.68629 12.3137 0 9 0C5.68629 0 3 2.68629 3 6C3 9.31371 5.68629 12 9 12Z" fill="#F4EDD4"/>
<path d="M9 13.9991C4.03172 14.0046 0.00553125 18.0308 0 22.9991C0 23.5514 0.447703 23.9991 0.999984 23.9991H17C17.5522 23.9991 18 23.5514 18 22.9991C17.9945 18.0308 13.9683 14.0046 9 13.9991Z" fill="#F4EDD4"/>
</svg>
